<svg width="624" height="426" viewBox="0 0 624 426" fill="none" xmlns="http://www.w3.org/2000/svg">
<path d="M588 0.5H36C16.3939 0.5 0.5 16.3939 0.5 36V390C0.5 409.606 16.3939 425.5 36 425.5H588C607.606 425.5 623.5 409.606 623.5 390V36C623.5 16.3939 607.606 0.5 588 0.5Z" fill="url(#paint0_linear_142_3838)" fill-opacity="0.2"/>
<path d="M588 0.5H36C16.3939 0.5 0.5 16.3939 0.5 36V390C0.5 409.606 16.3939 425.5 36 425.5H588C607.606 425.5 623.5 409.606 623.5 390V36C623.5 16.3939 607.606 0.5 588 0.5Z" stroke="url(#paint1_linear_142_3838)"/>
<path d="M588 0.5H36C16.3939 0.5 0.5 16.3939 0.5 36V390C0.5 409.606 16.3939 425.5 36 425.5H588C607.606 425.5 623.5 409.606 623.5 390V36C623.5 16.3939 607.606 0.5 588 0.5Z" stroke="url(#paint2_linear_142_3838)" stroke-opacity="0.2"/>
<path d="M56.1983 307.615V305.608H60.212V319.675H57.9929V307.615H56.1983ZM64.4882 307.615V305.608H68.5019V319.675H66.2828V307.615H64.4882ZM73.0676 312.458C73.0676 310.232 73.4407 308.496 74.1868 307.248C74.9458 305.987 76.2451 305.357 78.0847 305.357C79.9243 305.357 81.2171 305.987 81.9633 307.248C82.7223 308.496 83.1018 310.232 83.1018 312.458C83.1018 314.709 82.7223 316.472 81.9633 317.745C81.2171 319.006 79.9243 319.636 78.0847 319.636C76.2451 319.636 74.9458 319.006 74.1868 317.745C73.4407 316.472 73.0676 314.709 73.0676 312.458ZM80.9406 312.458C80.9406 311.416 80.8698 310.535 80.7283 309.814C80.5996 309.094 80.3295 308.509 79.9178 308.058C79.5062 307.595 78.8951 307.364 78.0847 307.364C77.2742 307.364 76.6632 307.595 76.2515 308.058C75.8399 308.509 75.5633 309.094 75.4218 309.814C75.2931 310.535 75.2288 311.416 75.2288 312.458C75.2288 313.539 75.2931 314.445 75.4218 315.179C75.5504 315.912 75.8206 316.504 76.2322 316.954C76.6567 317.404 77.2742 317.629 78.0847 317.629C78.8951 317.629 79.5062 317.404 79.9178 316.954C80.3424 316.504 80.6189 315.912 80.7476 315.179C80.8762 314.445 80.9406 313.539 80.9406 312.458Z" fill="#505DFD"/>
<path d="M56.0166 333.533H83.583C87.1988 333.533 90.1299 336.464 90.1299 340.08V379.651H49.4697V340.08C49.4697 336.464 52.4008 333.533 56.0166 333.533Z" fill="url(#paint3_linear_142_3838)" fill-opacity="0.25" stroke="url(#paint4_linear_142_3838)" stroke-width="0.689158"/>
<path d="M117.455 297.278V295.271H121.469V309.338H119.25V297.278H117.455ZM125.745 297.278V295.271H129.759V309.338H127.54V297.278H125.745ZM135.54 306.347C136.775 305.279 137.746 304.404 138.454 303.723C139.174 303.028 139.773 302.308 140.249 301.561C140.725 300.815 140.963 300.069 140.963 299.323C140.963 298.551 140.776 297.947 140.403 297.509C140.043 297.072 139.47 296.853 138.686 296.853C137.927 296.853 137.335 297.098 136.91 297.586C136.499 298.062 136.28 298.706 136.254 299.516H134.132C134.17 298.049 134.608 296.93 135.444 296.158C136.293 295.374 137.367 294.981 138.666 294.981C140.068 294.981 141.162 295.367 141.947 296.139C142.744 296.911 143.143 297.94 143.143 299.227C143.143 300.153 142.905 301.047 142.429 301.909C141.966 302.758 141.406 303.523 140.75 304.205C140.107 304.874 139.284 305.652 138.28 306.54L137.412 307.312H143.529V309.145H134.151V307.543L135.54 306.347Z" fill="#505DFD"/>
<path d="M116.661 323.196H144.228C147.843 323.196 150.774 326.127 150.774 329.743V379.651H110.114V329.743C110.114 326.127 113.045 323.196 116.661 323.196Z" fill="url(#paint5_linear_142_3838)" fill-opacity="0.25" stroke="url(#paint6_linear_142_3838)" stroke-width="0.689158"/>
<path d="M175.315 278.67V276.663H179.328V290.73H177.109V278.67H175.315ZM185.11 287.74C186.345 286.672 187.316 285.797 188.024 285.115C188.744 284.421 189.342 283.7 189.818 282.954C190.294 282.208 190.532 281.462 190.532 280.716C190.532 279.944 190.346 279.339 189.973 278.902C189.612 278.464 189.04 278.246 188.255 278.246C187.496 278.246 186.904 278.49 186.48 278.979C186.068 279.455 185.85 280.098 185.824 280.909H183.701C183.74 279.442 184.177 278.323 185.013 277.551C185.862 276.766 186.937 276.374 188.236 276.374C189.638 276.374 190.732 276.76 191.516 277.532C192.314 278.304 192.713 279.333 192.713 280.619C192.713 281.545 192.475 282.439 191.999 283.301C191.536 284.15 190.976 284.916 190.32 285.598C189.677 286.267 188.853 287.045 187.85 287.932L186.982 288.704H193.099V290.538H183.72V288.936L185.11 287.74ZM205.644 278.554H199.18V282.394C199.45 282.034 199.849 281.732 200.376 281.487C200.916 281.243 201.489 281.121 202.094 281.121C203.174 281.121 204.049 281.352 204.718 281.816C205.4 282.279 205.882 282.864 206.165 283.571C206.461 284.279 206.609 285.025 206.609 285.81C206.609 286.762 206.422 287.611 206.049 288.357C205.689 289.09 205.142 289.669 204.409 290.094C203.689 290.518 202.801 290.73 201.746 290.73C200.344 290.73 199.218 290.383 198.369 289.688C197.52 288.994 197.012 288.074 196.845 286.929H198.987C199.128 287.534 199.444 288.016 199.932 288.376C200.421 288.724 201.032 288.897 201.766 288.897C202.679 288.897 203.361 288.621 203.811 288.068C204.274 287.514 204.506 286.781 204.506 285.868C204.506 284.942 204.274 284.234 203.811 283.745C203.348 283.243 202.666 282.993 201.766 282.993C201.135 282.993 200.601 283.153 200.164 283.475C199.739 283.784 199.431 284.208 199.238 284.749H197.154V276.625H205.644V278.554Z" fill="#505DFD"/>
<path d="M177.31 304.589H204.876C208.492 304.589 211.423 307.52 211.423 311.136V379.651H170.763V311.136C170.763 307.52 173.694 304.589 177.31 304.589Z" fill="url(#paint7_linear_142_3838)" fill-opacity="0.25" stroke="url(#paint8_linear_142_3838)" stroke-width="0.689158"/>
<path d="M235.78 249.726V247.719H239.794V261.786H237.575V249.726H235.78ZM244.321 251.192C244.398 249.996 244.855 249.063 245.691 248.394C246.54 247.725 247.621 247.391 248.933 247.391C249.833 247.391 250.612 247.552 251.268 247.873C251.924 248.195 252.419 248.632 252.754 249.186C253.088 249.739 253.255 250.363 253.255 251.057C253.255 251.855 253.043 252.537 252.619 253.103C252.194 253.669 251.686 254.048 251.094 254.241V254.318C251.853 254.55 252.445 254.974 252.869 255.592C253.294 256.197 253.506 256.975 253.506 257.927C253.506 258.686 253.332 259.361 252.985 259.953C252.638 260.545 252.123 261.014 251.441 261.362C250.76 261.696 249.943 261.863 248.991 261.863C247.601 261.863 246.457 261.51 245.556 260.802C244.668 260.082 244.192 259.052 244.128 257.715H246.251C246.302 258.396 246.566 258.956 247.042 259.393C247.518 259.818 248.161 260.03 248.972 260.03C249.756 260.03 250.361 259.818 250.785 259.393C251.21 258.956 251.422 258.396 251.422 257.715C251.422 256.814 251.133 256.177 250.554 255.804C249.988 255.418 249.113 255.225 247.929 255.225H247.428V253.411H247.949C248.991 253.399 249.782 253.225 250.322 252.89C250.875 252.556 251.152 252.029 251.152 251.308C251.152 250.691 250.953 250.202 250.554 249.842C250.155 249.469 249.589 249.282 248.856 249.282C248.135 249.282 247.576 249.469 247.177 249.842C246.778 250.202 246.54 250.652 246.463 251.192H244.321ZM257.361 254.569C257.361 252.344 257.734 250.607 258.48 249.359C259.239 248.099 260.538 247.468 262.378 247.468C264.217 247.468 265.51 248.099 266.256 249.359C267.015 250.607 267.395 252.344 267.395 254.569C267.395 256.821 267.015 258.583 266.256 259.856C265.51 261.117 264.217 261.748 262.378 261.748C260.538 261.748 259.239 261.117 258.48 259.856C257.734 258.583 257.361 256.821 257.361 254.569ZM265.234 254.569C265.234 253.527 265.163 252.646 265.021 251.926C264.893 251.205 264.623 250.62 264.211 250.17C263.799 249.707 263.188 249.475 262.378 249.475C261.567 249.475 260.956 249.707 260.545 250.17C260.133 250.62 259.856 251.205 259.715 251.926C259.586 252.646 259.522 253.527 259.522 254.569C259.522 255.65 259.586 256.557 259.715 257.29C259.843 258.023 260.114 258.615 260.525 259.065C260.95 259.516 261.567 259.741 262.378 259.741C263.188 259.741 263.799 259.516 264.211 259.065C264.635 258.615 264.912 258.023 265.041 257.29C265.169 256.557 265.234 255.65 265.234 254.569Z" fill="#505DFD"/>
<path d="M237.954 275.645H265.521C269.136 275.645 272.067 278.576 272.067 282.191V379.652H231.407V282.191C231.407 278.576 234.338 275.645 237.954 275.645Z" fill="url(#paint9_linear_142_3838)" fill-opacity="0.25" stroke="url(#paint10_linear_142_3838)" stroke-width="0.689158"/>
<path d="M295.991 228.362V226.355H300.005V240.422H297.786V228.362H295.991ZM313.64 228.246H307.176V232.086C307.446 231.726 307.845 231.423 308.372 231.179C308.912 230.934 309.485 230.812 310.09 230.812C311.17 230.812 312.045 231.044 312.714 231.507C313.396 231.97 313.878 232.555 314.161 233.263C314.457 233.97 314.605 234.717 314.605 235.501C314.605 236.453 314.418 237.302 314.045 238.048C313.685 238.782 313.138 239.361 312.405 239.785C311.685 240.21 310.797 240.422 309.742 240.422C308.34 240.422 307.214 240.075 306.365 239.38C305.516 238.685 305.008 237.765 304.841 236.62H306.983C307.124 237.225 307.44 237.708 307.928 238.068C308.417 238.415 309.028 238.589 309.762 238.589C310.675 238.589 311.357 238.312 311.807 237.759C312.27 237.206 312.502 236.473 312.502 235.559C312.502 234.633 312.27 233.925 311.807 233.437C311.344 232.935 310.662 232.684 309.762 232.684C309.131 232.684 308.597 232.845 308.16 233.166C307.735 233.475 307.427 233.9 307.234 234.44H305.15V226.316H313.64V228.246ZM318.439 233.205C318.439 230.979 318.812 229.243 319.558 227.995C320.317 226.734 321.616 226.104 323.456 226.104C325.295 226.104 326.588 226.734 327.334 227.995C328.093 229.243 328.473 230.979 328.473 233.205C328.473 235.456 328.093 237.219 327.334 238.492C326.588 239.753 325.295 240.383 323.456 240.383C321.616 240.383 320.317 239.753 319.558 238.492C318.812 237.219 318.439 235.456 318.439 233.205ZM326.312 233.205C326.312 232.163 326.241 231.282 326.099 230.561C325.971 229.841 325.7 229.256 325.289 228.805C324.877 228.342 324.266 228.111 323.456 228.111C322.645 228.111 322.034 228.342 321.622 228.805C321.211 229.256 320.934 229.841 320.793 230.561C320.664 231.282 320.6 232.163 320.6 233.205C320.6 234.286 320.664 235.193 320.793 235.926C320.921 236.659 321.192 237.251 321.603 237.701C322.028 238.151 322.645 238.376 323.456 238.376C324.266 238.376 324.877 238.151 325.289 237.701C325.713 237.251 325.99 236.659 326.119 235.926C326.247 235.193 326.312 234.286 326.312 233.205Z" fill="#505DFD"/>
<path d="M298.599 254.28H326.165C329.781 254.28 332.712 257.211 332.712 260.827V337.668H292.052V260.827C292.052 257.211 294.983 254.28 298.599 254.28Z" fill="url(#paint11_linear_142_3838)" fill-opacity="0.25" stroke="url(#paint12_linear_142_3838)" stroke-width="0.689158"/>
<path d="M356.555 199.417V197.41H360.569V211.478H358.35V199.417H356.555ZM364.864 208.544V206.885L371.348 197.584H374.011V206.634H375.805V208.544H374.011V211.478H371.85V208.544H364.864ZM371.946 199.822L367.392 206.634H371.946V199.822ZM379.172 204.261C379.172 202.035 379.545 200.298 380.291 199.051C381.05 197.79 382.349 197.16 384.189 197.16C386.028 197.16 387.321 197.79 388.067 199.051C388.826 200.298 389.206 202.035 389.206 204.261C389.206 206.512 388.826 208.274 388.067 209.548C387.321 210.809 386.028 211.439 384.189 211.439C382.349 211.439 381.05 210.809 380.291 209.548C379.545 208.274 379.172 206.512 379.172 204.261ZM387.045 204.261C387.045 203.219 386.974 202.337 386.832 201.617C386.704 200.897 386.434 200.311 386.022 199.861C385.61 199.398 384.999 199.166 384.189 199.166C383.378 199.166 382.767 199.398 382.356 199.861C381.944 200.311 381.667 200.897 381.526 201.617C381.397 202.337 381.333 203.219 381.333 204.261C381.333 205.341 381.397 206.248 381.526 206.981C381.655 207.715 381.925 208.306 382.336 208.757C382.761 209.207 383.378 209.432 384.189 209.432C384.999 209.432 385.61 209.207 386.022 208.757C386.447 208.306 386.723 207.715 386.852 206.981C386.98 206.248 387.045 205.341 387.045 204.261Z" fill="#505DFD"/>
<path d="M359.247 225.336H386.813C390.429 225.336 393.36 228.267 393.36 231.883V379.652H352.7V231.883C352.7 228.267 355.631 225.336 359.247 225.336Z" fill="url(#paint13_linear_142_3838)" fill-opacity="0.25" stroke="url(#paint14_linear_142_3838)" stroke-width="0.689158"/>
<path d="M417.256 160.135V158.128H421.27V172.195H419.051V160.135H417.256ZM433.4 161.389C433.258 160.798 433.001 160.354 432.628 160.058C432.255 159.762 431.734 159.614 431.065 159.614C430.049 159.614 429.29 160.006 428.788 160.791C428.286 161.563 428.022 162.849 427.997 164.65C428.331 164.084 428.82 163.647 429.463 163.338C430.106 163.03 430.801 162.875 431.547 162.875C432.396 162.875 433.142 163.062 433.786 163.435C434.442 163.795 434.95 164.322 435.31 165.017C435.683 165.712 435.87 166.541 435.87 167.506C435.87 168.407 435.69 169.211 435.329 169.918C434.982 170.626 434.461 171.185 433.766 171.597C433.072 171.996 432.235 172.195 431.258 172.195C429.933 172.195 428.891 171.906 428.132 171.327C427.386 170.735 426.858 169.905 426.549 168.838C426.254 167.77 426.106 166.439 426.106 164.843C426.106 160.135 427.765 157.781 431.084 157.781C432.371 157.781 433.38 158.128 434.114 158.823C434.86 159.518 435.297 160.373 435.426 161.389H433.4ZM431.065 164.728C430.28 164.728 429.611 164.966 429.058 165.442C428.518 165.905 428.248 166.58 428.248 167.468C428.248 168.355 428.498 169.063 429 169.59C429.515 170.105 430.229 170.362 431.142 170.362C431.952 170.362 432.589 170.111 433.052 169.61C433.528 169.108 433.766 168.439 433.766 167.603C433.766 166.728 433.535 166.033 433.072 165.519C432.621 164.991 431.952 164.728 431.065 164.728ZM439.76 164.978C439.76 162.753 440.133 161.016 440.879 159.768C441.638 158.508 442.937 157.877 444.777 157.877C446.616 157.877 447.909 158.508 448.655 159.768C449.414 161.016 449.794 162.753 449.794 164.978C449.794 167.23 449.414 168.992 448.655 170.266C447.909 171.526 446.616 172.157 444.777 172.157C442.937 172.157 441.638 171.526 440.879 170.266C440.133 168.992 439.76 167.23 439.76 164.978ZM447.633 164.978C447.633 163.936 447.562 163.055 447.42 162.335C447.292 161.614 447.022 161.029 446.61 160.579C446.198 160.116 445.587 159.884 444.777 159.884C443.966 159.884 443.355 160.116 442.944 160.579C442.532 161.029 442.255 161.614 442.114 162.335C441.985 163.055 441.921 163.936 441.921 164.978C441.921 166.059 441.985 166.966 442.114 167.699C442.243 168.433 442.513 169.024 442.924 169.475C443.349 169.925 443.966 170.15 444.777 170.15C445.587 170.15 446.198 169.925 446.61 169.475C447.035 169.024 447.311 168.433 447.44 167.699C447.568 166.966 447.633 166.059 447.633 164.978Z" fill="#505DFD"/>
<path d="M419.892 186.054H447.458C451.074 186.054 454.005 188.985 454.005 192.601V379.651H413.345V192.601C413.345 188.985 416.276 186.054 419.892 186.054Z" fill="url(#paint15_linear_142_3838)" fill-opacity="0.25" stroke="url(#paint16_linear_142_3838)" stroke-width="0.689158"/>
<path d="M482.839 120.963C484.074 119.895 485.046 119.021 485.753 118.339C486.473 117.644 487.072 116.924 487.548 116.178C488.024 115.432 488.262 114.685 488.262 113.939C488.262 113.167 488.075 112.563 487.702 112.125C487.342 111.688 486.769 111.469 485.985 111.469C485.226 111.469 484.634 111.714 484.209 112.203C483.798 112.679 483.579 113.322 483.553 114.132H481.431C481.469 112.666 481.907 111.546 482.743 110.775C483.592 109.99 484.666 109.598 485.965 109.598C487.368 109.598 488.461 109.983 489.246 110.755C490.043 111.527 490.442 112.556 490.442 113.843C490.442 114.769 490.204 115.663 489.728 116.525C489.265 117.374 488.705 118.139 488.049 118.821C487.406 119.49 486.583 120.268 485.579 121.156L484.711 121.928H490.828V123.761H481.45V122.16L482.839 120.963ZM494.015 111.894V109.887H498.028V123.954H495.809V111.894H494.015ZM502.305 111.894V109.887H506.318V123.954H504.099V111.894H502.305Z" fill="#505DFD"/>
<path d="M480.54 137.812H508.106C511.722 137.813 514.653 140.744 514.653 144.359V379.651H473.993V144.359C473.993 140.744 476.924 137.812 480.54 137.812Z" fill="url(#paint17_linear_142_3838)" fill-opacity="0.25" stroke="url(#paint18_linear_142_3838)" stroke-width="0.689158"/>
<path d="M88.5598 133.06C88.5598 134.724 88.1278 136.292 87.2638 137.764C86.4318 139.204 85.1838 140.404 83.5198 141.364C81.8878 142.292 79.9518 142.836 77.7118 142.996V146.884H74.6398V142.948C71.4398 142.66 68.8638 141.7 66.9118 140.068C64.9598 138.404 63.9518 136.164 63.8878 133.348H71.0878C71.2798 135.652 72.4638 137.044 74.6398 137.524V128.356C72.3358 127.78 70.4798 127.204 69.0718 126.628C67.6638 126.052 66.4478 125.124 65.4238 123.844C64.3998 122.564 63.8878 120.82 63.8878 118.612C63.8878 115.828 64.8798 113.556 66.8638 111.796C68.8798 110.036 71.4718 109.028 74.6398 108.772V104.884H77.7118V108.772C80.7838 109.028 83.2318 109.956 85.0558 111.556C86.9118 113.156 87.9518 115.364 88.1758 118.18H80.9278C80.8318 117.252 80.4958 116.452 79.9198 115.78C79.3758 115.076 78.6398 114.58 77.7118 114.292V123.364C80.1118 123.972 81.9998 124.564 83.3758 125.14C84.7838 125.684 85.9998 126.596 87.0238 127.876C88.0478 129.124 88.5598 130.852 88.5598 133.06ZM70.8958 118.276C70.8958 119.332 71.2158 120.196 71.8558 120.868C72.4958 121.508 73.4238 122.036 74.6398 122.452V114.148C73.4878 114.308 72.5758 114.74 71.9038 115.444C71.2318 116.148 70.8958 117.092 70.8958 118.276ZM77.7118 137.62C78.9278 137.396 79.8718 136.9 80.5438 136.132C81.2478 135.364 81.5998 134.436 81.5998 133.348C81.5998 132.292 81.2638 131.444 80.5918 130.804C79.9198 130.164 78.9598 129.636 77.7118 129.22V137.62ZM94.91 116.932C95.07 113.732 96.19 111.268 98.27 109.54C100.382 107.78 103.15 106.9 106.574 106.9C108.91 106.9 110.91 107.316 112.574 108.148C114.238 108.948 115.486 110.052 116.318 111.46C117.182 112.836 117.614 114.404 117.614 116.164C117.614 118.18 117.086 119.892 116.03 121.3C115.006 122.676 113.774 123.604 112.334 124.084V124.276C114.19 124.852 115.63 125.876 116.654 127.348C117.71 128.82 118.238 130.708 118.238 133.012C118.238 134.932 117.79 136.644 116.894 138.148C116.03 139.652 114.734 140.836 113.006 141.7C111.31 142.532 109.262 142.948 106.862 142.948C103.246 142.948 100.302 142.036 98.03 140.212C95.758 138.388 94.558 135.7 94.43 132.148H100.958C101.022 133.716 101.55 134.98 102.542 135.94C103.566 136.868 104.958 137.332 106.718 137.332C108.35 137.332 109.598 136.884 110.462 135.988C111.358 135.06 111.806 133.876 111.806 132.436C111.806 130.516 111.198 129.14 109.982 128.308C108.766 127.476 106.878 127.06 104.318 127.06H102.926V121.54H104.318C108.862 121.54 111.134 120.02 111.134 116.98C111.134 115.604 110.718 114.532 109.886 113.764C109.086 112.996 107.918 112.612 106.382 112.612C104.878 112.612 103.71 113.028 102.878 113.86C102.078 114.66 101.614 115.684 101.486 116.932H94.91ZM122.252 113.908V107.716H133.82V142.708H126.908V113.908H122.252ZM158.123 116.452C157.803 115.108 157.243 114.1 156.443 113.428C155.675 112.756 154.555 112.42 153.083 112.42C150.875 112.42 149.243 113.316 148.187 115.108C147.163 116.868 146.635 119.748 146.603 123.748C147.371 122.468 148.491 121.476 149.963 120.772C151.435 120.036 153.035 119.668 154.763 119.668C156.843 119.668 158.683 120.116 160.283 121.012C161.883 121.908 163.131 123.22 164.027 124.948C164.923 126.644 165.371 128.692 165.371 131.092C165.371 133.364 164.907 135.396 163.979 137.188C163.083 138.948 161.755 140.324 159.995 141.316C158.235 142.308 156.139 142.804 153.707 142.804C150.379 142.804 147.755 142.068 145.835 140.596C143.947 139.124 142.619 137.076 141.851 134.452C141.115 131.796 140.747 128.532 140.747 124.66C140.747 118.804 141.755 114.388 143.771 111.412C145.787 108.404 148.971 106.9 153.323 106.9C156.683 106.9 159.291 107.812 161.147 109.636C163.003 111.46 164.075 113.732 164.363 116.452H158.123ZM153.227 125.188C151.531 125.188 150.107 125.684 148.955 126.676C147.803 127.668 147.227 129.108 147.227 130.996C147.227 132.884 147.755 134.372 148.811 135.46C149.899 136.548 151.419 137.092 153.371 137.092C155.099 137.092 156.459 136.564 157.451 135.508C158.475 134.452 158.987 133.028 158.987 131.236C158.987 129.38 158.491 127.908 157.499 126.82C156.539 125.732 155.115 125.188 153.227 125.188ZM207.498 109.204V142.708H200.778V120.916L191.802 142.708H186.714L177.69 120.916V142.708H170.97V109.204H178.602L189.258 134.116L199.914 109.204H207.498ZM238.766 128.548H229.694V137.86H223.358V128.548H214.286V122.692H223.358V113.38H229.694V122.692H238.766V128.548Z" fill="#250A5B"/>
<path d="M65.0891 171.163V185.708H63.3278V171.163H65.0891ZM70.0696 179.146V185.708H68.3935V174.799H70.0128V176.503H70.1548C70.4105 175.949 70.7988 175.504 71.3196 175.168C71.8404 174.827 72.5128 174.657 73.3366 174.657C74.0753 174.657 74.7216 174.808 75.2756 175.111C75.8295 175.41 76.2604 175.864 76.5682 176.475C76.8759 177.081 77.0298 177.848 77.0298 178.776V185.708H75.3537V178.89C75.3537 178.033 75.1312 177.365 74.6861 176.887C74.241 176.404 73.6302 176.163 72.8537 176.163C72.3187 176.163 71.8404 176.279 71.419 176.511C71.0024 176.743 70.6733 177.081 70.4318 177.526C70.1903 177.971 70.0696 178.511 70.0696 179.146ZM93.8995 174.799C93.8143 174.079 93.4686 173.521 92.8626 173.123C92.2565 172.725 91.5131 172.526 90.6325 172.526C89.9885 172.526 89.4251 172.63 88.9421 172.839C88.4639 173.047 88.0898 173.333 87.82 173.698C87.5548 174.063 87.4222 174.477 87.4222 174.941C87.4222 175.329 87.5146 175.663 87.6992 175.942C87.8886 176.217 88.1301 176.447 88.4237 176.631C88.7172 176.811 89.025 176.96 89.3469 177.079C89.6689 177.192 89.9648 177.285 90.2347 177.356L91.712 177.753C92.0908 177.853 92.5122 177.99 92.9762 178.165C93.445 178.341 93.8924 178.58 94.3185 178.883C94.7494 179.181 95.1045 179.565 95.3839 180.033C95.6632 180.502 95.8029 181.077 95.8029 181.759C95.8029 182.545 95.5969 183.255 95.185 183.89C94.7778 184.524 94.1812 185.029 93.3952 185.403C92.614 185.777 91.6647 185.964 90.5472 185.964C89.5056 185.964 88.6036 185.796 87.8413 185.459C87.0837 185.123 86.4871 184.655 86.0515 184.053C85.6206 183.452 85.3768 182.753 85.32 181.958H87.1381C87.1855 182.507 87.3701 182.962 87.6921 183.322C88.0188 183.677 88.4308 183.942 88.9279 184.117C89.4298 184.288 89.9696 184.373 90.5472 184.373C91.2196 184.373 91.8233 184.264 92.3583 184.046C92.8933 183.824 93.3171 183.516 93.6296 183.123C93.9421 182.725 94.0984 182.261 94.0984 181.731C94.0984 181.248 93.9634 180.855 93.6935 180.552C93.4237 180.249 93.0685 180.003 92.6282 179.813C92.1879 179.624 91.712 179.458 91.2006 179.316L89.4109 178.805C88.2745 178.478 87.3749 178.012 86.712 177.405C86.0491 176.799 85.7177 176.006 85.7177 175.026C85.7177 174.212 85.9379 173.502 86.3782 172.896C86.8233 172.285 87.4199 171.811 88.168 171.475C88.9208 171.134 89.7612 170.964 90.6893 170.964C91.6268 170.964 92.4601 171.132 93.1893 171.468C93.9184 171.799 94.4961 172.254 94.9222 172.832C95.3531 173.409 95.5804 174.065 95.604 174.799H93.8995ZM105.347 181.248V174.799H107.023V185.708H105.347V183.861H105.233C104.977 184.415 104.58 184.887 104.04 185.275C103.5 185.658 102.818 185.85 101.994 185.85C101.312 185.85 100.706 185.701 100.176 185.403C99.6458 185.1 99.2292 184.645 98.9261 184.039C98.6231 183.428 98.4716 182.659 98.4716 181.731V174.799H100.148V181.617C100.148 182.413 100.37 183.047 100.815 183.521C101.265 183.994 101.838 184.231 102.534 184.231C102.951 184.231 103.375 184.124 103.805 183.911C104.241 183.698 104.606 183.371 104.899 182.931C105.197 182.491 105.347 181.93 105.347 181.248ZM110.093 189.799V174.799H111.712V176.532H111.911C112.034 176.342 112.204 176.101 112.422 175.807C112.645 175.509 112.962 175.244 113.374 175.012C113.791 174.775 114.354 174.657 115.064 174.657C115.983 174.657 116.792 174.887 117.493 175.346C118.194 175.805 118.741 176.456 119.134 177.299C119.527 178.142 119.723 179.136 119.723 180.282C119.723 181.437 119.527 182.439 119.134 183.286C118.741 184.129 118.196 184.782 117.5 185.246C116.804 185.706 116.002 185.935 115.093 185.935C114.392 185.935 113.831 185.819 113.409 185.587C112.988 185.351 112.664 185.083 112.436 184.785C112.209 184.482 112.034 184.231 111.911 184.032H111.769V189.799H110.093ZM111.74 180.253C111.74 181.077 111.861 181.804 112.103 182.434C112.344 183.059 112.697 183.549 113.161 183.904C113.625 184.254 114.193 184.43 114.865 184.43C115.566 184.43 116.151 184.245 116.62 183.876C117.093 183.502 117.448 183 117.685 182.37C117.926 181.735 118.047 181.03 118.047 180.253C118.047 179.486 117.929 178.795 117.692 178.18C117.46 177.559 117.107 177.069 116.634 176.709C116.165 176.345 115.576 176.163 114.865 176.163C114.184 176.163 113.611 176.335 113.147 176.681C112.683 177.022 112.332 177.5 112.096 178.116C111.859 178.726 111.74 179.439 111.74 180.253ZM122.28 189.799V174.799H123.9V176.532H124.098C124.221 176.342 124.392 176.101 124.61 175.807C124.832 175.509 125.15 175.244 125.561 175.012C125.978 174.775 126.542 174.657 127.252 174.657C128.17 174.657 128.98 174.887 129.681 175.346C130.382 175.805 130.928 176.456 131.321 177.299C131.714 178.142 131.911 179.136 131.911 180.282C131.911 181.437 131.714 182.439 131.321 183.286C130.928 184.129 130.384 184.782 129.688 185.246C128.992 185.706 128.189 185.935 127.28 185.935C126.579 185.935 126.018 185.819 125.597 185.587C125.176 185.351 124.851 185.083 124.624 184.785C124.397 184.482 124.221 184.231 124.098 184.032H123.956V189.799H122.28ZM123.928 180.253C123.928 181.077 124.049 181.804 124.29 182.434C124.532 183.059 124.884 183.549 125.348 183.904C125.812 184.254 126.381 184.43 127.053 184.43C127.754 184.43 128.338 184.245 128.807 183.876C129.281 183.502 129.636 183 129.873 182.37C130.114 181.735 130.235 181.03 130.235 180.253C130.235 179.486 130.116 178.795 129.88 178.18C129.648 177.559 129.295 177.069 128.821 176.709C128.353 176.345 127.763 176.163 127.053 176.163C126.371 176.163 125.798 176.335 125.334 176.681C124.87 177.022 124.52 177.5 124.283 178.116C124.046 178.726 123.928 179.439 123.928 180.253ZM138.9 185.935C137.915 185.935 137.051 185.701 136.307 185.232C135.569 184.763 134.991 184.108 134.574 183.265C134.162 182.422 133.956 181.437 133.956 180.31C133.956 179.174 134.162 178.182 134.574 177.334C134.991 176.487 135.569 175.829 136.307 175.36C137.051 174.891 137.915 174.657 138.9 174.657C139.884 174.657 140.746 174.891 141.485 175.36C142.228 175.829 142.806 176.487 143.218 177.334C143.634 178.182 143.843 179.174 143.843 180.31C143.843 181.437 143.634 182.422 143.218 183.265C142.806 184.108 142.228 184.763 141.485 185.232C140.746 185.701 139.884 185.935 138.9 185.935ZM138.9 184.43C139.648 184.43 140.263 184.238 140.746 183.854C141.229 183.471 141.587 182.967 141.819 182.342C142.051 181.717 142.167 181.039 142.167 180.31C142.167 179.581 142.051 178.902 141.819 178.272C141.587 177.642 141.229 177.133 140.746 176.745C140.263 176.357 139.648 176.163 138.9 176.163C138.151 176.163 137.536 176.357 137.053 176.745C136.57 177.133 136.212 177.642 135.98 178.272C135.748 178.902 135.632 179.581 135.632 180.31C135.632 181.039 135.748 181.717 135.98 182.342C136.212 182.967 136.57 183.471 137.053 183.854C137.536 184.238 138.151 184.43 138.9 184.43ZM146.401 185.708V174.799H148.021V176.447H148.134C148.333 175.907 148.693 175.469 149.214 175.133C149.735 174.797 150.322 174.628 150.975 174.628C151.098 174.628 151.252 174.631 151.437 174.636C151.621 174.64 151.761 174.647 151.856 174.657V176.361C151.799 176.347 151.669 176.326 151.465 176.297C151.266 176.264 151.056 176.248 150.833 176.248C150.303 176.248 149.829 176.359 149.413 176.582C149.001 176.799 148.674 177.102 148.433 177.491C148.196 177.874 148.077 178.312 148.077 178.805V185.708H146.401ZM159.271 174.799V176.219H153.617V174.799H159.271ZM155.265 172.185H156.941V182.583C156.941 183.056 157.01 183.412 157.147 183.648C157.289 183.88 157.469 184.037 157.687 184.117C157.909 184.193 158.144 184.231 158.39 184.231C158.575 184.231 158.726 184.221 158.844 184.202C158.963 184.179 159.058 184.16 159.129 184.146L159.469 185.651C159.356 185.694 159.197 185.736 158.994 185.779C158.79 185.826 158.532 185.85 158.219 185.85C157.746 185.85 157.282 185.748 156.827 185.545C156.378 185.341 156.004 185.031 155.705 184.614C155.412 184.198 155.265 183.672 155.265 183.038V172.185ZM166.249 185.935C165.197 185.935 164.291 185.703 163.528 185.239C162.771 184.771 162.186 184.117 161.774 183.279C161.367 182.436 161.163 181.456 161.163 180.339C161.163 179.221 161.367 178.236 161.774 177.384C162.186 176.527 162.759 175.86 163.493 175.381C164.232 174.898 165.093 174.657 166.078 174.657C166.646 174.657 167.207 174.752 167.761 174.941C168.315 175.13 168.82 175.438 169.274 175.864C169.729 176.286 170.091 176.844 170.361 177.54C170.631 178.236 170.766 179.093 170.766 180.111V180.822H162.357V179.373H169.061C169.061 178.757 168.938 178.208 168.692 177.725C168.45 177.242 168.105 176.861 167.655 176.582C167.21 176.302 166.684 176.163 166.078 176.163C165.411 176.163 164.833 176.328 164.345 176.66C163.862 176.986 163.491 177.413 163.23 177.938C162.97 178.464 162.839 179.027 162.839 179.628V180.594C162.839 181.418 162.982 182.117 163.266 182.69C163.554 183.258 163.955 183.691 164.466 183.989C164.977 184.283 165.571 184.43 166.249 184.43C166.689 184.43 167.087 184.368 167.442 184.245C167.802 184.117 168.112 183.928 168.372 183.677C168.633 183.421 168.834 183.104 168.976 182.725L170.595 183.18C170.425 183.729 170.138 184.212 169.736 184.628C169.333 185.04 168.836 185.362 168.244 185.594C167.652 185.822 166.987 185.935 166.249 185.935ZM177.435 185.935C176.526 185.935 175.723 185.706 175.027 185.246C174.331 184.782 173.786 184.129 173.393 183.286C173 182.439 172.804 181.437 172.804 180.282C172.804 179.136 173 178.142 173.393 177.299C173.786 176.456 174.333 175.805 175.034 175.346C175.735 174.887 176.545 174.657 177.463 174.657C178.173 174.657 178.734 174.775 179.146 175.012C179.563 175.244 179.88 175.509 180.098 175.807C180.321 176.101 180.493 176.342 180.616 176.532H180.759V171.163H182.435V185.708H180.815V184.032H180.616C180.493 184.231 180.318 184.482 180.091 184.785C179.864 185.083 179.539 185.351 179.118 185.587C178.696 185.819 178.135 185.935 177.435 185.935ZM177.662 184.43C178.334 184.43 178.902 184.254 179.366 183.904C179.83 183.549 180.183 183.059 180.425 182.434C180.666 181.804 180.787 181.077 180.787 180.253C180.787 179.439 180.669 178.726 180.432 178.116C180.195 177.5 179.845 177.022 179.381 176.681C178.917 176.335 178.344 176.163 177.662 176.163C176.952 176.163 176.36 176.345 175.886 176.709C175.418 177.069 175.065 177.559 174.828 178.18C174.596 178.795 174.48 179.486 174.48 180.253C174.48 181.03 174.598 181.735 174.835 182.37C175.077 183 175.432 183.502 175.901 183.876C176.374 184.245 176.961 184.43 177.662 184.43ZM203.294 175.708H201.533C201.429 175.201 201.246 174.756 200.986 174.373C200.73 173.989 200.418 173.667 200.048 173.407C199.684 173.142 199.279 172.943 198.834 172.81C198.389 172.678 197.925 172.611 197.442 172.611C196.561 172.611 195.763 172.834 195.048 173.279C194.338 173.724 193.772 174.38 193.351 175.246C192.934 176.113 192.726 177.176 192.726 178.435C192.726 179.695 192.934 180.758 193.351 181.624C193.772 182.491 194.338 183.146 195.048 183.592C195.763 184.037 196.561 184.259 197.442 184.259C197.925 184.259 198.389 184.193 198.834 184.06C199.279 183.928 199.684 183.731 200.048 183.471C200.418 183.206 200.73 182.881 200.986 182.498C201.246 182.11 201.429 181.664 201.533 181.163H203.294C203.161 181.906 202.92 182.571 202.57 183.158C202.219 183.745 201.784 184.245 201.263 184.657C200.742 185.064 200.157 185.374 199.509 185.587C198.865 185.8 198.176 185.907 197.442 185.907C196.201 185.907 195.098 185.604 194.132 184.998C193.166 184.392 192.406 183.53 191.852 182.413C191.298 181.295 191.021 179.969 191.021 178.435C191.021 176.901 191.298 175.575 191.852 174.458C192.406 173.341 193.166 172.479 194.132 171.873C195.098 171.267 196.201 170.964 197.442 170.964C198.176 170.964 198.865 171.07 199.509 171.283C200.157 171.496 200.742 171.809 201.263 172.221C201.784 172.628 202.219 173.125 202.57 173.712C202.92 174.295 203.161 174.96 203.294 175.708ZM207.589 171.163V185.708H205.913V171.163H207.589ZM210.659 185.708V174.799H212.335V185.708H210.659ZM211.511 172.981C211.185 172.981 210.903 172.869 210.666 172.647C210.434 172.424 210.318 172.157 210.318 171.844C210.318 171.532 210.434 171.264 210.666 171.042C210.903 170.819 211.185 170.708 211.511 170.708C211.838 170.708 212.117 170.819 212.349 171.042C212.586 171.264 212.705 171.532 212.705 171.844C212.705 172.157 212.586 172.424 212.349 172.647C212.117 172.869 211.838 172.981 211.511 172.981ZM219.979 185.935C218.928 185.935 218.021 185.703 217.259 185.239C216.501 184.771 215.917 184.117 215.505 183.279C215.097 182.436 214.894 181.456 214.894 180.339C214.894 179.221 215.097 178.236 215.505 177.384C215.917 176.527 216.489 175.86 217.223 175.381C217.962 174.898 218.824 174.657 219.809 174.657C220.377 174.657 220.938 174.752 221.492 174.941C222.046 175.13 222.55 175.438 223.005 175.864C223.459 176.286 223.821 176.844 224.091 177.54C224.361 178.236 224.496 179.093 224.496 180.111V180.822H216.087V179.373H222.792C222.792 178.757 222.668 178.208 222.422 177.725C222.181 177.242 221.835 176.861 221.385 176.582C220.94 176.302 220.415 176.163 219.809 176.163C219.141 176.163 218.563 176.328 218.076 176.66C217.593 176.986 217.221 177.413 216.961 177.938C216.7 178.464 216.57 179.027 216.57 179.628V180.594C216.57 181.418 216.712 182.117 216.996 182.69C217.285 183.258 217.685 183.691 218.196 183.989C218.708 184.283 219.302 184.43 219.979 184.43C220.419 184.43 220.817 184.368 221.172 184.245C221.532 184.117 221.842 183.928 222.103 183.677C222.363 183.421 222.564 183.104 222.706 182.725L224.326 183.18C224.155 183.729 223.869 184.212 223.466 184.628C223.064 185.04 222.567 185.362 221.975 185.594C221.383 185.822 220.718 185.935 219.979 185.935ZM228.722 179.146V185.708H227.046V174.799H228.665V176.503H228.807C229.063 175.949 229.451 175.504 229.972 175.168C230.493 174.827 231.165 174.657 231.989 174.657C232.728 174.657 233.374 174.808 233.928 175.111C234.482 175.41 234.913 175.864 235.221 176.475C235.528 177.081 235.682 177.848 235.682 178.776V185.708H234.006V178.89C234.006 178.033 233.783 177.365 233.338 176.887C232.893 176.404 232.283 176.163 231.506 176.163C230.971 176.163 230.493 176.279 230.071 176.511C229.655 176.743 229.326 177.081 229.084 177.526C228.843 177.971 228.722 178.511 228.722 179.146ZM243.489 174.799V176.219H237.836V174.799H243.489ZM239.484 172.185H241.16V182.583C241.16 183.056 241.228 183.412 241.366 183.648C241.508 183.88 241.688 184.037 241.906 184.117C242.128 184.193 242.362 184.231 242.609 184.231C242.793 184.231 242.945 184.221 243.063 184.202C243.182 184.179 243.276 184.16 243.347 184.146L243.688 185.651C243.575 185.694 243.416 185.736 243.212 185.779C243.009 185.826 242.751 185.85 242.438 185.85C241.965 185.85 241.501 185.748 241.046 185.545C240.596 185.341 240.222 185.031 239.924 184.614C239.63 184.198 239.484 183.672 239.484 183.038V172.185ZM251.863 185.708V171.163H260.641V172.725H253.624V177.64H260.187V179.202H253.624V184.146H260.755V185.708H251.863ZM264.839 174.799L267.452 179.259L270.066 174.799H271.998L268.475 180.253L271.998 185.708H270.066L267.452 181.475L264.839 185.708H262.907L266.373 180.253L262.907 174.799H264.839ZM274.39 185.708V174.799H276.066V185.708H274.39ZM275.242 172.981C274.915 172.981 274.633 172.869 274.397 172.647C274.165 172.424 274.049 172.157 274.049 171.844C274.049 171.532 274.165 171.264 274.397 171.042C274.633 170.819 274.915 170.708 275.242 170.708C275.569 170.708 275.848 170.819 276.08 171.042C276.317 171.264 276.435 171.532 276.435 171.844C276.435 172.157 276.317 172.424 276.08 172.647C275.848 172.869 275.569 172.981 275.242 172.981ZM283.88 174.799V176.219H278.227V174.799H283.88ZM279.874 172.185H281.55V182.583C281.55 183.056 281.619 183.412 281.756 183.648C281.898 183.88 282.078 184.037 282.296 184.117C282.519 184.193 282.753 184.231 282.999 184.231C283.184 184.231 283.335 184.221 283.454 184.202C283.572 184.179 283.667 184.16 283.738 184.146L284.079 185.651C283.965 185.694 283.807 185.736 283.603 185.779C283.399 185.826 283.141 185.85 282.829 185.85C282.355 185.85 281.891 185.748 281.437 185.545C280.987 185.341 280.613 185.031 280.315 184.614C280.021 184.198 279.874 183.672 279.874 183.038V172.185ZM293.933 177.242L292.428 177.668C292.333 177.417 292.193 177.173 292.009 176.937C291.829 176.695 291.582 176.496 291.27 176.34C290.957 176.184 290.557 176.106 290.07 176.106C289.402 176.106 288.846 176.26 288.401 176.567C287.96 176.87 287.74 177.256 287.74 177.725C287.74 178.142 287.892 178.471 288.195 178.712C288.498 178.954 288.971 179.155 289.615 179.316L291.234 179.714C292.21 179.95 292.937 180.313 293.415 180.8C293.893 181.283 294.132 181.906 294.132 182.668C294.132 183.293 293.952 183.852 293.592 184.344C293.237 184.837 292.74 185.225 292.101 185.509C291.462 185.793 290.718 185.935 289.871 185.935C288.758 185.935 287.837 185.694 287.108 185.211C286.379 184.728 285.917 184.022 285.723 183.094L287.314 182.697C287.465 183.284 287.752 183.724 288.173 184.018C288.599 184.311 289.156 184.458 289.842 184.458C290.624 184.458 291.244 184.292 291.703 183.961C292.167 183.625 292.399 183.222 292.399 182.753C292.399 182.375 292.267 182.057 292.001 181.802C291.736 181.541 291.329 181.347 290.78 181.219L288.962 180.793C287.963 180.556 287.229 180.19 286.76 179.692C286.296 179.19 286.064 178.563 286.064 177.81C286.064 177.195 286.237 176.65 286.582 176.177C286.933 175.703 287.409 175.332 288.01 175.062C288.616 174.792 289.303 174.657 290.07 174.657C291.149 174.657 291.997 174.894 292.612 175.367C293.232 175.841 293.673 176.466 293.933 177.242Z" fill="#24223E"/>
<defs>
<linearGradient id="paint0_linear_142_3838" x1="21.2551" y1="442.161" x2="435.946" y2="-129.788" gradientUnits="userSpaceOnUse">
<stop offset="0.4" stop-color="white" stop-opacity="0"/>
<stop offset="1" stop-color="#1C27FF"/>
</linearGradient>
<linearGradient id="paint1_linear_142_3838" x1="213.582" y1="269.964" x2="22.1387" y2="525.264" gradientUnits="userSpaceOnUse">
<stop stop-color="white" stop-opacity="0"/>
<stop offset="1" stop-color="#505DFD"/>
</linearGradient>
<linearGradient id="paint2_linear_142_3838" x1="403.296" y1="163.388" x2="602.576" y2="-133.054" gradientUnits="userSpaceOnUse">
<stop stop-opacity="0"/>
<stop offset="1" stop-color="#6634E6"/>
</linearGradient>
<linearGradient id="paint3_linear_142_3838" x1="69.7998" y1="333.188" x2="69.7998" y2="379.996" gradientUnits="userSpaceOnUse">
<stop stop-color="#3E45FF"/>
<stop offset="1" stop-color="white" stop-opacity="0"/>
</linearGradient>
<linearGradient id="paint4_linear_142_3838" x1="69.7998" y1="333.188" x2="69.7998" y2="379.996" gradientUnits="userSpaceOnUse">
<stop stop-color="#1C27FF"/>
<stop offset="1" stop-color="white" stop-opacity="0"/>
</linearGradient>
<linearGradient id="paint5_linear_142_3838" x1="130.444" y1="322.852" x2="130.444" y2="379.996" gradientUnits="userSpaceOnUse">
<stop stop-color="#3E45FF"/>
<stop offset="1" stop-color="white" stop-opacity="0"/>
</linearGradient>
<linearGradient id="paint6_linear_142_3838" x1="130.444" y1="322.852" x2="130.444" y2="379.996" gradientUnits="userSpaceOnUse">
<stop stop-color="#1C27FF"/>
<stop offset="1" stop-color="white" stop-opacity="0"/>
</linearGradient>
<linearGradient id="paint7_linear_142_3838" x1="191.093" y1="304.244" x2="191.093" y2="379.996" gradientUnits="userSpaceOnUse">
<stop stop-color="#3E45FF"/>
<stop offset="1" stop-color="white" stop-opacity="0"/>
</linearGradient>
<linearGradient id="paint8_linear_142_3838" x1="191.093" y1="304.244" x2="191.093" y2="379.996" gradientUnits="userSpaceOnUse">
<stop stop-color="#1C27FF"/>
<stop offset="1" stop-color="white" stop-opacity="0"/>
</linearGradient>
<linearGradient id="paint9_linear_142_3838" x1="251.737" y1="275.3" x2="251.737" y2="379.997" gradientUnits="userSpaceOnUse">
<stop stop-color="#3E45FF"/>
<stop offset="1" stop-color="white" stop-opacity="0"/>
</linearGradient>
<linearGradient id="paint10_linear_142_3838" x1="251.737" y1="275.3" x2="251.737" y2="379.997" gradientUnits="userSpaceOnUse">
<stop stop-color="#1C27FF"/>
<stop offset="1" stop-color="white" stop-opacity="0"/>
</linearGradient>
<linearGradient id="paint11_linear_142_3838" x1="312.382" y1="253.936" x2="312.382" y2="338.013" gradientUnits="userSpaceOnUse">
<stop stop-color="#3E45FF"/>
<stop offset="1" stop-color="white" stop-opacity="0"/>
</linearGradient>
<linearGradient id="paint12_linear_142_3838" x1="312.382" y1="253.936" x2="312.382" y2="338.013" gradientUnits="userSpaceOnUse">
<stop stop-color="#1C27FF"/>
<stop offset="1" stop-color="white" stop-opacity="0"/>
</linearGradient>
<linearGradient id="paint13_linear_142_3838" x1="373.03" y1="224.991" x2="373.03" y2="379.997" gradientUnits="userSpaceOnUse">
<stop stop-color="#3E45FF"/>
<stop offset="1" stop-color="white" stop-opacity="0"/>
</linearGradient>
<linearGradient id="paint14_linear_142_3838" x1="373.03" y1="224.991" x2="373.03" y2="379.997" gradientUnits="userSpaceOnUse">
<stop stop-color="#1C27FF"/>
<stop offset="1" stop-color="white" stop-opacity="0"/>
</linearGradient>
<linearGradient id="paint15_linear_142_3838" x1="433.675" y1="185.709" x2="433.675" y2="379.996" gradientUnits="userSpaceOnUse">
<stop stop-color="#3E45FF"/>
<stop offset="1" stop-color="white" stop-opacity="0"/>
</linearGradient>
<linearGradient id="paint16_linear_142_3838" x1="433.675" y1="185.709" x2="433.675" y2="379.996" gradientUnits="userSpaceOnUse">
<stop stop-color="#1C27FF"/>
<stop offset="1" stop-color="white" stop-opacity="0"/>
</linearGradient>
<linearGradient id="paint17_linear_142_3838" x1="494.323" y1="137.468" x2="494.323" y2="379.996" gradientUnits="userSpaceOnUse">
<stop stop-color="#3E45FF"/>
<stop offset="1" stop-color="white" stop-opacity="0"/>
</linearGradient>
<linearGradient id="paint18_linear_142_3838" x1="494.323" y1="137.468" x2="494.323" y2="379.996" gradientUnits="userSpaceOnUse">
<stop stop-color="#1C27FF"/>
<stop offset="1" stop-color="white" stop-opacity="0"/>
</linearGradient>
</defs>
</svg>
