<svg width="670" height="437" viewBox="0 0 670 437" fill="none" xmlns="http://www.w3.org/2000/svg">
<path d="M36.6416 0.977417H634C653.606 0.977417 669.5 16.8713 669.5 36.4774V400.477C669.5 420.084 653.606 435.977 634 435.977H36.6416C17.0355 435.977 1.1416 420.084 1.1416 400.477V36.4774C1.14161 16.8713 17.0355 0.977417 36.6416 0.977417Z" fill="url(#paint0_linear_2125_7595)" fill-opacity="0.2"/>
<path d="M36.6416 0.977417H634C653.606 0.977417 669.5 16.8713 669.5 36.4774V400.477C669.5 420.084 653.606 435.977 634 435.977H36.6416C17.0355 435.977 1.1416 420.084 1.1416 400.477V36.4774C1.14161 16.8713 17.0355 0.977417 36.6416 0.977417Z" stroke="url(#paint1_linear_2125_7595)"/>
<path d="M36.6416 0.977417H634C653.606 0.977417 669.5 16.8713 669.5 36.4774V400.477C669.5 420.084 653.606 435.977 634 435.977H36.6416C17.0355 435.977 1.1416 420.084 1.1416 400.477V36.4774C1.14161 16.8713 17.0355 0.977417 36.6416 0.977417Z" stroke="url(#paint2_linear_2125_7595)" stroke-opacity="0.2"/>
<path d="M70.355 344.615V342.608H74.3686V356.675H72.1495V344.615H70.355ZM78.6449 344.615V342.608H82.6585V356.675H80.4395V344.615H78.6449ZM88.4399 353.684C89.6749 352.617 90.6462 351.742 91.3537 351.06C92.0741 350.365 92.6723 349.645 93.1483 348.899C93.6242 348.153 93.8622 347.407 93.8622 346.66C93.8622 345.889 93.6757 345.284 93.3026 344.847C92.9424 344.409 92.37 344.19 91.5853 344.19C90.8263 344.19 90.2345 344.435 89.81 344.924C89.3983 345.4 89.1796 346.043 89.1539 346.853H87.0313C87.0699 345.387 87.5073 344.268 88.3435 343.496C89.1925 342.711 90.2667 342.319 91.566 342.319C92.9682 342.319 94.0616 342.705 94.8463 343.477C95.6439 344.248 96.0427 345.278 96.0427 346.564C96.0427 347.49 95.8047 348.384 95.3288 349.246C94.8656 350.095 94.306 350.861 93.65 351.542C93.0068 352.211 92.1834 352.99 91.18 353.877L90.3117 354.649H96.4287V356.482H87.0506V354.881L88.4399 353.684ZM114.319 343.264V356.675H112.12V347.49L108.029 356.675H106.504L102.394 347.49V356.675H100.194V343.264H102.568L107.276 353.781L111.965 343.264H114.319Z" fill="#505DFD"/>
<path d="M78.8419 370.533H106.408C110.024 370.533 112.955 373.464 112.955 377.08V416.651H72.295V377.08C72.295 373.464 75.226 370.533 78.8419 370.533Z" fill="url(#paint3_linear_2125_7595)" fill-opacity="0.25" stroke="url(#paint4_linear_2125_7595)" stroke-width="0.689158"/>
<path d="M136.712 334.278V332.271H140.725V346.338H138.506V334.278H136.712ZM147.665 338.986C146.327 338.317 145.658 337.262 145.658 335.821C145.658 335.127 145.831 334.49 146.179 333.911C146.526 333.332 147.047 332.875 147.742 332.541C148.436 332.194 149.285 332.02 150.289 332.02C151.279 332.02 152.122 332.194 152.817 332.541C153.524 332.875 154.052 333.332 154.399 333.911C154.746 334.49 154.92 335.127 154.92 335.821C154.92 336.542 154.733 337.179 154.36 337.732C154 338.272 153.518 338.69 152.913 338.986C153.646 339.256 154.225 339.7 154.65 340.317C155.074 340.922 155.287 341.636 155.287 342.459C155.287 343.295 155.074 344.035 154.65 344.678C154.225 345.322 153.634 345.817 152.875 346.164C152.116 346.512 151.254 346.685 150.289 346.685C149.324 346.685 148.462 346.512 147.703 346.164C146.957 345.817 146.372 345.322 145.947 344.678C145.523 344.035 145.31 343.295 145.31 342.459C145.31 341.623 145.523 340.903 145.947 340.298C146.372 339.693 146.944 339.256 147.665 338.986ZM152.817 336.091C152.817 335.371 152.592 334.818 152.141 334.432C151.691 334.046 151.074 333.853 150.289 333.853C149.517 333.853 148.906 334.046 148.456 334.432C148.005 334.818 147.78 335.378 147.78 336.111C147.78 336.754 148.012 337.281 148.475 337.693C148.951 338.092 149.556 338.291 150.289 338.291C151.022 338.291 151.627 338.085 152.103 337.674C152.579 337.262 152.817 336.735 152.817 336.091ZM150.289 339.951C149.44 339.951 148.745 340.163 148.205 340.588C147.677 340.999 147.414 341.597 147.414 342.382C147.414 343.115 147.671 343.714 148.186 344.177C148.7 344.627 149.401 344.852 150.289 344.852C151.164 344.852 151.852 344.621 152.354 344.157C152.868 343.694 153.125 343.103 153.125 342.382C153.125 341.61 152.862 341.012 152.334 340.588C151.82 340.163 151.138 339.951 150.289 339.951ZM159.101 335.744C159.179 334.548 159.635 333.615 160.471 332.946C161.321 332.277 162.401 331.943 163.713 331.943C164.614 331.943 165.392 332.104 166.048 332.425C166.704 332.747 167.2 333.184 167.534 333.737C167.868 334.29 168.036 334.914 168.036 335.609C168.036 336.407 167.823 337.088 167.399 337.654C166.974 338.221 166.466 338.6 165.874 338.793V338.87C166.633 339.102 167.225 339.526 167.65 340.144C168.074 340.748 168.287 341.527 168.287 342.479C168.287 343.238 168.113 343.913 167.766 344.505C167.418 345.096 166.904 345.566 166.222 345.913C165.54 346.248 164.723 346.415 163.771 346.415C162.382 346.415 161.237 346.061 160.336 345.354C159.449 344.633 158.973 343.604 158.908 342.266H161.031C161.083 342.948 161.346 343.508 161.822 343.945C162.298 344.37 162.941 344.582 163.752 344.582C164.537 344.582 165.141 344.37 165.566 343.945C165.99 343.508 166.203 342.948 166.203 342.266C166.203 341.366 165.913 340.729 165.334 340.356C164.768 339.97 163.893 339.777 162.71 339.777H162.208V337.963H162.729C163.771 337.95 164.562 337.777 165.103 337.442C165.656 337.108 165.932 336.58 165.932 335.86C165.932 335.242 165.733 334.754 165.334 334.393C164.935 334.02 164.369 333.834 163.636 333.834C162.916 333.834 162.356 334.02 161.957 334.393C161.559 334.754 161.321 335.204 161.243 335.744H159.101ZM186.555 332.927V346.338H184.356V337.153L180.265 346.338H178.74L174.63 337.153V346.338H172.43V332.927H174.804L179.512 343.443L184.201 332.927H186.555Z" fill="#505DFD"/>
<path d="M148.138 360.196H175.705C179.32 360.196 182.252 363.127 182.252 366.743V416.651H141.591V366.743C141.591 363.127 144.522 360.196 148.138 360.196Z" fill="url(#paint5_linear_2125_7595)" fill-opacity="0.25" stroke="url(#paint6_linear_2125_7595)" stroke-width="0.689158"/>
<path d="M210.262 324.74C211.497 323.672 212.468 322.797 213.176 322.115C213.896 321.421 214.494 320.7 214.97 319.954C215.446 319.208 215.684 318.462 215.684 317.716C215.684 316.944 215.498 316.339 215.125 315.902C214.765 315.464 214.192 315.246 213.407 315.246C212.648 315.246 212.057 315.49 211.632 315.979C211.22 316.455 211.002 317.098 210.976 317.909H208.853C208.892 316.442 209.329 315.323 210.166 314.551C211.015 313.766 212.089 313.374 213.388 313.374C214.79 313.374 215.884 313.76 216.668 314.532C217.466 315.304 217.865 316.333 217.865 317.619C217.865 318.545 217.627 319.44 217.151 320.301C216.688 321.151 216.128 321.916 215.472 322.598C214.829 323.267 214.006 324.045 213.002 324.933L212.134 325.704H218.251V327.538H208.873V325.936L210.262 324.74ZM229.291 316.925C229.15 316.333 228.892 315.889 228.519 315.593C228.146 315.297 227.625 315.149 226.956 315.149C225.94 315.149 225.181 315.542 224.679 316.326C224.178 317.098 223.914 318.385 223.888 320.186C224.223 319.62 224.711 319.182 225.355 318.874C225.998 318.565 226.693 318.41 227.439 318.41C228.288 318.41 229.034 318.597 229.677 318.97C230.333 319.33 230.841 319.858 231.201 320.552C231.575 321.247 231.761 322.077 231.761 323.042C231.761 323.942 231.581 324.746 231.221 325.454C230.873 326.161 230.352 326.721 229.658 327.132C228.963 327.531 228.127 327.731 227.149 327.731C225.824 327.731 224.782 327.441 224.023 326.862C223.277 326.27 222.75 325.441 222.441 324.373C222.145 323.305 221.997 321.974 221.997 320.379C221.997 315.67 223.657 313.316 226.976 313.316C228.262 313.316 229.272 313.663 230.005 314.358C230.751 315.053 231.189 315.908 231.317 316.925H229.291ZM226.956 320.263C226.172 320.263 225.503 320.501 224.949 320.977C224.409 321.44 224.139 322.115 224.139 323.003C224.139 323.891 224.39 324.598 224.892 325.126C225.406 325.64 226.12 325.897 227.033 325.897C227.844 325.897 228.481 325.647 228.944 325.145C229.42 324.643 229.658 323.974 229.658 323.138C229.658 322.263 229.426 321.569 228.963 321.054C228.513 320.527 227.844 320.263 226.956 320.263ZM235.381 324.798V323.138L241.865 313.837H244.528V322.887H246.322V324.798H244.528V327.731H242.366V324.798H235.381ZM242.463 316.076L237.909 322.887H242.463V316.076ZM264.103 314.32V327.731H261.903V318.545L257.812 327.731H256.288L252.178 318.545V327.731H249.978V314.32H252.352L257.06 324.836L261.749 314.32H264.103Z" fill="#505DFD"/>
<path d="M222.935 341.589H250.501C254.117 341.589 257.048 344.52 257.048 348.135V416.651H216.388V348.135C216.388 344.52 219.319 341.589 222.935 341.589Z" fill="url(#paint7_linear_2125_7595)" fill-opacity="0.25" stroke="url(#paint8_linear_2125_7595)" stroke-width="0.689158"/>
<path d="M286.19 288.192C286.268 286.996 286.724 286.063 287.561 285.394C288.41 284.725 289.49 284.391 290.802 284.391C291.703 284.391 292.481 284.552 293.137 284.873C293.793 285.195 294.289 285.632 294.623 286.185C294.957 286.738 295.125 287.362 295.125 288.057C295.125 288.855 294.912 289.536 294.488 290.102C294.063 290.669 293.555 291.048 292.964 291.241V291.318C293.722 291.55 294.314 291.974 294.739 292.592C295.163 293.196 295.376 293.975 295.376 294.927C295.376 295.686 295.202 296.361 294.855 296.953C294.507 297.544 293.993 298.014 293.311 298.361C292.629 298.696 291.812 298.863 290.86 298.863C289.471 298.863 288.326 298.509 287.425 297.802C286.538 297.081 286.062 296.052 285.997 294.714H288.12C288.172 295.396 288.435 295.956 288.911 296.393C289.387 296.818 290.03 297.03 290.841 297.03C291.626 297.03 292.23 296.818 292.655 296.393C293.079 295.956 293.292 295.396 293.292 294.714C293.292 293.814 293.002 293.177 292.423 292.804C291.857 292.418 290.982 292.225 289.799 292.225H289.297V290.411H289.818C290.86 290.398 291.651 290.225 292.192 289.89C292.745 289.556 293.021 289.028 293.021 288.308C293.021 287.69 292.822 287.202 292.423 286.841C292.024 286.468 291.458 286.282 290.725 286.282C290.005 286.282 289.445 286.468 289.046 286.841C288.648 287.202 288.41 287.652 288.332 288.192H286.19ZM299.191 288.192C299.269 286.996 299.725 286.063 300.561 285.394C301.411 284.725 302.491 284.391 303.803 284.391C304.704 284.391 305.482 284.552 306.138 284.873C306.794 285.195 307.289 285.632 307.624 286.185C307.958 286.738 308.126 287.362 308.126 288.057C308.126 288.855 307.913 289.536 307.489 290.102C307.064 290.669 306.556 291.048 305.964 291.241V291.318C306.723 291.55 307.315 291.974 307.74 292.592C308.164 293.196 308.377 293.975 308.377 294.927C308.377 295.686 308.203 296.361 307.856 296.953C307.508 297.544 306.994 298.014 306.312 298.361C305.63 298.696 304.813 298.863 303.861 298.863C302.472 298.863 301.327 298.509 300.426 297.802C299.539 297.081 299.063 296.052 298.998 294.714H301.121C301.173 295.396 301.436 295.956 301.912 296.393C302.388 296.818 303.031 297.03 303.842 297.03C304.627 297.03 305.231 296.818 305.656 296.393C306.08 295.956 306.293 295.396 306.293 294.714C306.293 293.814 306.003 293.177 305.424 292.804C304.858 292.418 303.983 292.225 302.8 292.225H302.298V290.411H302.819C303.861 290.398 304.652 290.225 305.193 289.89C305.746 289.556 306.022 289.028 306.022 288.308C306.022 287.69 305.823 287.202 305.424 286.841C305.025 286.468 304.459 286.282 303.726 286.282C303.006 286.282 302.446 286.468 302.047 286.841C301.649 287.202 301.411 287.652 301.333 288.192H299.191ZM321.3 286.61H314.836V290.45C315.106 290.09 315.505 289.787 316.032 289.543C316.573 289.298 317.145 289.176 317.75 289.176C318.83 289.176 319.705 289.408 320.374 289.871C321.056 290.334 321.538 290.919 321.821 291.627C322.117 292.334 322.265 293.081 322.265 293.865C322.265 294.817 322.079 295.666 321.706 296.412C321.345 297.146 320.799 297.725 320.065 298.149C319.345 298.574 318.457 298.786 317.402 298.786C316 298.786 314.875 298.439 314.026 297.744C313.177 297.049 312.668 296.129 312.501 294.984H314.643C314.785 295.589 315.1 296.072 315.589 296.432C316.077 296.779 316.688 296.953 317.422 296.953C318.335 296.953 319.017 296.676 319.467 296.123C319.93 295.57 320.162 294.837 320.162 293.923C320.162 292.997 319.93 292.289 319.467 291.801C319.004 291.299 318.322 291.048 317.422 291.048C316.791 291.048 316.258 291.209 315.82 291.53C315.396 291.839 315.087 292.264 314.894 292.804H312.81V284.68H321.3V286.61ZM340.513 285.375V298.786H338.313V289.601L334.223 298.786H332.698L328.588 289.601V298.786H326.388V285.375H328.762L333.47 295.891L338.159 285.375H340.513Z" fill="#505DFD"/>
<path d="M299.731 312.644H327.298C330.913 312.644 333.844 315.575 333.844 319.191V416.652H293.184V319.191C293.184 315.575 296.115 312.644 299.731 312.644Z" fill="url(#paint9_linear_2125_7595)" fill-opacity="0.25" stroke="url(#paint10_linear_2125_7595)" stroke-width="0.689158"/>
<path d="M362.508 274.489V272.829L368.991 263.529H371.654V272.579H373.449V274.489H371.654V277.422H369.493V274.489H362.508ZM369.59 265.767L365.036 272.579H369.59V265.767ZM376.526 265.362V263.355H380.54V277.422H378.321V265.362H376.526ZM384.835 274.489V272.829L391.319 263.529H393.982V272.579H395.776V274.489H393.982V277.422H391.82V274.489H384.835ZM391.917 265.767L387.363 272.579H391.917V265.767ZM413.557 264.011V277.422H411.357V268.237L407.267 277.422H405.742L401.632 268.237V277.422H399.432V264.011H401.806L406.514 274.528L411.203 264.011H413.557Z" fill="#505DFD"/>
<path d="M374.528 291.28H402.094C405.71 291.28 408.641 294.211 408.641 297.827V374.668H367.981V297.827C367.981 294.211 370.912 291.28 374.528 291.28Z" fill="url(#paint11_linear_2125_7595)" fill-opacity="0.25" stroke="url(#paint12_linear_2125_7595)" stroke-width="0.689158"/>
<path d="M435.927 245.544V243.885L442.41 234.584H445.073V243.634H446.868V245.544H445.073V248.477H442.912V245.544H435.927ZM443.009 236.822L438.455 243.634H443.009V236.822ZM452.974 244.657C453.103 245.3 453.38 245.789 453.804 246.123C454.229 246.458 454.801 246.625 455.522 246.625C456.435 246.625 457.104 246.265 457.528 245.544C457.953 244.824 458.165 243.595 458.165 241.859C457.856 242.296 457.419 242.637 456.853 242.881C456.3 243.113 455.695 243.229 455.039 243.229C454.203 243.229 453.444 243.062 452.762 242.727C452.08 242.38 451.54 241.872 451.141 241.203C450.755 240.521 450.562 239.698 450.562 238.733C450.562 237.318 450.974 236.192 451.797 235.356C452.634 234.507 453.778 234.082 455.232 234.082C456.982 234.082 458.223 234.668 458.956 235.838C459.702 236.996 460.076 238.778 460.076 241.183C460.076 242.843 459.934 244.2 459.651 245.255C459.381 246.31 458.905 247.107 458.223 247.648C457.541 248.188 456.596 248.458 455.386 248.458C454.01 248.458 452.949 248.098 452.203 247.378C451.456 246.657 451.038 245.75 450.948 244.657H452.974ZM455.425 241.376C456.197 241.376 456.802 241.138 457.239 240.662C457.689 240.174 457.914 239.53 457.914 238.733C457.914 237.845 457.676 237.157 457.2 236.668C456.737 236.166 456.1 235.915 455.29 235.915C454.48 235.915 453.836 236.173 453.36 236.687C452.897 237.189 452.666 237.852 452.666 238.675C452.666 239.46 452.891 240.109 453.341 240.624C453.804 241.125 454.499 241.376 455.425 241.376ZM463.737 236.417V234.41H467.751V248.477H465.532V236.417H463.737ZM486.731 235.066V248.477H484.531V239.292L480.44 248.477H478.916L474.806 239.292V248.477H472.606V235.066H474.98L479.688 245.583L484.377 235.066H486.731Z" fill="#505DFD"/>
<path d="M447.824 262.335H475.39C479.006 262.335 481.937 265.267 481.937 268.882V416.652H441.277V268.882C441.277 265.267 444.208 262.335 447.824 262.335Z" fill="url(#paint13_linear_2125_7595)" fill-opacity="0.25" stroke="url(#paint14_linear_2125_7595)" stroke-width="0.689158"/>
<path d="M518.178 197.019H511.713V200.859C511.984 200.499 512.382 200.197 512.91 199.952C513.45 199.708 514.022 199.586 514.627 199.586C515.708 199.586 516.582 199.817 517.251 200.28C517.933 200.743 518.416 201.329 518.699 202.036C518.995 202.744 519.142 203.49 519.142 204.275C519.142 205.227 518.956 206.076 518.583 206.822C518.223 207.555 517.676 208.134 516.943 208.559C516.222 208.983 515.335 209.195 514.28 209.195C512.878 209.195 511.752 208.848 510.903 208.153C510.054 207.459 509.546 206.539 509.378 205.394H511.52C511.662 205.999 511.977 206.481 512.466 206.841C512.955 207.188 513.566 207.362 514.299 207.362C515.212 207.362 515.894 207.086 516.345 206.532C516.808 205.979 517.039 205.246 517.039 204.333C517.039 203.406 516.808 202.699 516.345 202.21C515.881 201.708 515.2 201.457 514.299 201.457C513.669 201.457 513.135 201.618 512.697 201.94C512.273 202.249 511.964 202.673 511.771 203.213H509.687V195.09H518.178V197.019ZM531.891 196.826L526.527 209.195H524.308L529.73 197.058H522.59V195.186H531.891V196.826ZM536.533 206.204C537.768 205.137 538.739 204.262 539.447 203.58C540.167 202.885 540.766 202.165 541.242 201.419C541.718 200.673 541.956 199.927 541.956 199.18C541.956 198.409 541.769 197.804 541.396 197.367C541.036 196.929 540.463 196.711 539.679 196.711C538.92 196.711 538.328 196.955 537.903 197.444C537.492 197.92 537.273 198.563 537.247 199.373H535.125C535.163 197.907 535.601 196.788 536.437 196.016C537.286 195.231 538.36 194.839 539.659 194.839C541.061 194.839 542.155 195.225 542.94 195.997C543.737 196.768 544.136 197.798 544.136 199.084C544.136 200.01 543.898 200.904 543.422 201.766C542.959 202.615 542.399 203.381 541.743 204.062C541.1 204.731 540.277 205.51 539.273 206.397L538.405 207.169H544.522V209.002H535.144V207.401L536.533 206.204ZM562.413 195.784V209.195H560.213V200.01L556.122 209.195H554.598L550.487 200.01V209.195H548.288V195.784H550.661L555.369 206.301L560.058 195.784H562.413Z" fill="#505DFD"/>
<path d="M522.12 223.053H549.687C553.303 223.053 556.234 225.984 556.234 229.6V416.651H515.574V229.6C515.574 225.984 518.505 223.053 522.12 223.053Z" fill="url(#paint15_linear_2125_7595)" fill-opacity="0.25" stroke="url(#paint16_linear_2125_7595)" stroke-width="0.689158"/>
<path d="M592.075 150.148C591.933 149.556 591.676 149.113 591.303 148.817C590.93 148.521 590.409 148.373 589.74 148.373C588.723 148.373 587.964 148.765 587.463 149.55C586.961 150.322 586.697 151.608 586.672 153.409C587.006 152.843 587.495 152.406 588.138 152.097C588.781 151.788 589.476 151.634 590.222 151.634C591.071 151.634 591.817 151.821 592.46 152.194C593.117 152.554 593.625 153.081 593.985 153.776C594.358 154.471 594.544 155.3 594.544 156.265C594.544 157.166 594.364 157.97 594.004 158.677C593.657 159.385 593.136 159.944 592.441 160.356C591.746 160.755 590.91 160.954 589.933 160.954C588.608 160.954 587.566 160.665 586.807 160.086C586.06 159.494 585.533 158.664 585.224 157.597C584.928 156.529 584.78 155.197 584.78 153.602C584.78 148.894 586.44 146.54 589.759 146.54C591.045 146.54 592.055 146.887 592.788 147.582C593.535 148.276 593.972 149.132 594.101 150.148H592.075ZM589.74 153.487C588.955 153.487 588.286 153.724 587.733 154.2C587.193 154.664 586.922 155.339 586.922 156.227C586.922 157.114 587.173 157.822 587.675 158.349C588.19 158.864 588.903 159.121 589.817 159.121C590.627 159.121 591.264 158.87 591.727 158.369C592.203 157.867 592.441 157.198 592.441 156.362C592.441 155.487 592.21 154.792 591.746 154.278C591.296 153.75 590.627 153.487 589.74 153.487ZM600.808 153.602C599.47 152.933 598.801 151.878 598.801 150.438C598.801 149.743 598.975 149.106 599.322 148.527C599.67 147.948 600.191 147.492 600.885 147.157C601.58 146.81 602.429 146.636 603.432 146.636C604.423 146.636 605.266 146.81 605.96 147.157C606.668 147.492 607.195 147.948 607.543 148.527C607.89 149.106 608.064 149.743 608.064 150.438C608.064 151.158 607.877 151.795 607.504 152.348C607.144 152.888 606.661 153.306 606.057 153.602C606.79 153.872 607.369 154.316 607.793 154.934C608.218 155.538 608.43 156.252 608.43 157.076C608.43 157.912 608.218 158.652 607.793 159.295C607.369 159.938 606.777 160.433 606.018 160.781C605.259 161.128 604.397 161.302 603.432 161.302C602.468 161.302 601.606 161.128 600.847 160.781C600.101 160.433 599.515 159.938 599.091 159.295C598.666 158.652 598.454 157.912 598.454 157.076C598.454 156.239 598.666 155.519 599.091 154.914C599.515 154.31 600.088 153.872 600.808 153.602ZM605.96 150.708C605.96 149.987 605.735 149.434 605.285 149.048C604.835 148.662 604.217 148.469 603.432 148.469C602.661 148.469 602.05 148.662 601.599 149.048C601.149 149.434 600.924 149.994 600.924 150.727C600.924 151.37 601.155 151.898 601.619 152.309C602.095 152.708 602.699 152.908 603.432 152.908C604.166 152.908 604.77 152.702 605.246 152.29C605.722 151.878 605.96 151.351 605.96 150.708ZM603.432 154.567C602.583 154.567 601.889 154.779 601.348 155.204C600.821 155.616 600.557 156.214 600.557 156.998C600.557 157.732 600.815 158.33 601.329 158.793C601.844 159.243 602.545 159.468 603.432 159.468C604.307 159.468 604.995 159.237 605.497 158.774C606.012 158.311 606.269 157.719 606.269 156.998C606.269 156.227 606.005 155.628 605.478 155.204C604.963 154.779 604.281 154.567 603.432 154.567ZM612.284 153.737C612.284 151.512 612.657 149.775 613.403 148.527C614.162 147.267 615.461 146.636 617.301 146.636C619.14 146.636 620.433 147.267 621.179 148.527C621.938 149.775 622.318 151.512 622.318 153.737C622.318 155.989 621.938 157.751 621.179 159.025C620.433 160.285 619.14 160.916 617.301 160.916C615.461 160.916 614.162 160.285 613.403 159.025C612.657 157.751 612.284 155.989 612.284 153.737ZM620.157 153.737C620.157 152.695 620.086 151.814 619.944 151.094C619.816 150.373 619.546 149.788 619.134 149.338C618.722 148.875 618.111 148.643 617.301 148.643C616.49 148.643 615.879 148.875 615.468 149.338C615.056 149.788 614.779 150.373 614.638 151.094C614.509 151.814 614.445 152.695 614.445 153.737C614.445 154.818 614.509 155.725 614.638 156.458C614.766 157.191 615.037 157.783 615.448 158.233C615.873 158.684 616.49 158.909 617.301 158.909C618.111 158.909 618.722 158.684 619.134 158.233C619.558 157.783 619.835 157.191 619.964 156.458C620.092 155.725 620.157 154.818 620.157 153.737ZM640.604 147.543V160.954H638.404V151.769L634.313 160.954H632.788L628.678 151.769V160.954H626.479V147.543H628.852L633.56 158.06L638.249 147.543H640.604Z" fill="#505DFD"/>
<path d="M598.917 174.812H626.483C630.099 174.812 633.03 177.743 633.03 181.359V416.651H592.37V181.359C592.37 177.743 595.301 174.812 598.917 174.812Z" fill="url(#paint17_linear_2125_7595)" fill-opacity="0.25" stroke="url(#paint18_linear_2125_7595)" stroke-width="0.689158"/>
<path d="M108.56 163.352C108.56 165.016 108.128 166.584 107.264 168.056C106.432 169.496 105.184 170.696 103.52 171.656C101.888 172.584 99.9518 173.128 97.7118 173.288V177.176H94.6398V173.24C91.4398 172.952 88.8638 171.992 86.9118 170.36C84.9598 168.696 83.9518 166.456 83.8878 163.64H91.0878C91.2798 165.944 92.4638 167.336 94.6398 167.816V158.648C92.3358 158.072 90.4798 157.496 89.0718 156.92C87.6638 156.344 86.4478 155.416 85.4238 154.136C84.3998 152.856 83.8878 151.112 83.8878 148.904C83.8878 146.12 84.8798 143.848 86.8638 142.088C88.8798 140.328 91.4718 139.32 94.6398 139.064V135.176H97.7118V139.064C100.784 139.32 103.232 140.248 105.056 141.848C106.912 143.448 107.952 145.656 108.176 148.472H100.928C100.832 147.544 100.496 146.744 99.9198 146.072C99.3758 145.368 98.6398 144.872 97.7118 144.584V153.656C100.112 154.264 102 154.856 103.376 155.432C104.784 155.976 106 156.888 107.024 158.168C108.048 159.416 108.56 161.144 108.56 163.352ZM90.8958 148.568C90.8958 149.624 91.2158 150.488 91.8558 151.16C92.4958 151.8 93.4238 152.328 94.6398 152.744V144.44C93.4878 144.6 92.5758 145.032 91.9038 145.736C91.2318 146.44 90.8958 147.384 90.8958 148.568ZM97.7118 167.912C98.9278 167.688 99.8718 167.192 100.544 166.424C101.248 165.656 101.6 164.728 101.6 163.64C101.6 162.584 101.264 161.736 100.592 161.096C99.9198 160.456 98.9598 159.928 97.7118 159.512V167.912ZM113.998 144.2V138.008H125.566V173H118.654V144.2H113.998ZM135.469 173.336C134.253 173.336 133.245 172.968 132.445 172.232C131.677 171.464 131.293 170.52 131.293 169.4C131.293 168.28 131.677 167.352 132.445 166.616C133.245 165.848 134.253 165.464 135.469 165.464C136.653 165.464 137.629 165.848 138.397 166.616C139.165 167.352 139.549 168.28 139.549 169.4C139.549 170.52 139.165 171.464 138.397 172.232C137.629 172.968 136.653 173.336 135.469 173.336ZM143.809 147.224C143.969 144.024 145.089 141.56 147.169 139.832C149.281 138.072 152.049 137.192 155.473 137.192C157.809 137.192 159.809 137.608 161.473 138.44C163.137 139.24 164.385 140.344 165.217 141.752C166.081 143.128 166.513 144.696 166.513 146.456C166.513 148.472 165.985 150.184 164.929 151.592C163.905 152.968 162.673 153.896 161.233 154.376V154.568C163.089 155.144 164.529 156.168 165.553 157.64C166.609 159.112 167.137 161 167.137 163.304C167.137 165.224 166.689 166.936 165.793 168.44C164.929 169.944 163.633 171.128 161.905 171.992C160.209 172.824 158.161 173.24 155.761 173.24C152.145 173.24 149.201 172.328 146.929 170.504C144.657 168.68 143.457 165.992 143.329 162.44H149.857C149.921 164.008 150.449 165.272 151.441 166.232C152.465 167.16 153.857 167.624 155.617 167.624C157.249 167.624 158.497 167.176 159.361 166.28C160.257 165.352 160.705 164.168 160.705 162.728C160.705 160.808 160.097 159.432 158.881 158.6C157.665 157.768 155.777 157.352 153.217 157.352H151.825V151.832H153.217C157.761 151.832 160.033 150.312 160.033 147.272C160.033 145.896 159.617 144.824 158.785 144.056C157.985 143.288 156.817 142.904 155.281 142.904C153.777 142.904 152.609 143.32 151.777 144.152C150.977 144.952 150.513 145.976 150.385 147.224H143.809ZM194.24 143.096L181.472 173H174.656L187.52 143.864H171.104V138.104H194.24V143.096ZM217.561 155.816C219.449 156.168 221.001 157.112 222.217 158.648C223.433 160.184 224.041 161.944 224.041 163.928C224.041 165.72 223.593 167.304 222.697 168.68C221.833 170.024 220.569 171.08 218.905 171.848C217.241 172.616 215.273 173 213.001 173H198.553V139.496H212.377C214.649 139.496 216.601 139.864 218.233 140.6C219.897 141.336 221.145 142.36 221.977 143.672C222.841 144.984 223.273 146.472 223.273 148.136C223.273 150.088 222.745 151.72 221.689 153.032C220.665 154.344 219.289 155.272 217.561 155.816ZM205.273 153.32H211.417C213.017 153.32 214.249 152.968 215.113 152.264C215.977 151.528 216.409 150.488 216.409 149.144C216.409 147.8 215.977 146.76 215.113 146.024C214.249 145.288 213.017 144.92 211.417 144.92H205.273V153.32ZM212.041 167.528C213.673 167.528 214.937 167.144 215.833 166.376C216.761 165.608 217.225 164.52 217.225 163.112C217.225 161.672 216.745 160.552 215.785 159.752C214.825 158.92 213.529 158.504 211.897 158.504H205.273V167.528H212.041ZM254.02 158.84H244.948V168.152H238.612V158.84H229.54V152.984H238.612V143.672H244.948V152.984H254.02V158.84Z" fill="#250A5B"/>
<path d="M85.0891 201.454V216H83.3278V201.454H85.0891ZM90.0696 209.437V216H88.3935V205.091H90.0128V206.795H90.1548C90.4105 206.241 90.7988 205.796 91.3196 205.46C91.8404 205.119 92.5128 204.949 93.3366 204.949C94.0753 204.949 94.7216 205.1 95.2756 205.403C95.8295 205.702 96.2604 206.156 96.5682 206.767C96.8759 207.373 97.0298 208.14 97.0298 209.068V216H95.3537V209.182C95.3537 208.325 95.1312 207.657 94.6861 207.179C94.241 206.696 93.6302 206.454 92.8537 206.454C92.3187 206.454 91.8404 206.57 91.419 206.802C91.0024 207.034 90.6733 207.373 90.4318 207.818C90.1903 208.263 90.0696 208.803 90.0696 209.437ZM113.9 205.091C113.814 204.371 113.469 203.812 112.863 203.415C112.257 203.017 111.513 202.818 110.632 202.818C109.989 202.818 109.425 202.922 108.942 203.131C108.464 203.339 108.09 203.625 107.82 203.99C107.555 204.355 107.422 204.769 107.422 205.233C107.422 205.621 107.515 205.955 107.699 206.234C107.889 206.509 108.13 206.739 108.424 206.923C108.717 207.103 109.025 207.252 109.347 207.371C109.669 207.484 109.965 207.577 110.235 207.648L111.712 208.045C112.091 208.145 112.512 208.282 112.976 208.457C113.445 208.632 113.892 208.872 114.319 209.175C114.749 209.473 115.105 209.856 115.384 210.325C115.663 210.794 115.803 211.369 115.803 212.051C115.803 212.837 115.597 213.547 115.185 214.182C114.778 214.816 114.181 215.32 113.395 215.694C112.614 216.069 111.665 216.256 110.547 216.256C109.506 216.256 108.604 216.087 107.841 215.751C107.084 215.415 106.487 214.946 106.051 214.345C105.621 213.744 105.377 213.045 105.32 212.25H107.138C107.185 212.799 107.37 213.254 107.692 213.614C108.019 213.969 108.431 214.234 108.928 214.409C109.43 214.579 109.97 214.665 110.547 214.665C111.22 214.665 111.823 214.556 112.358 214.338C112.893 214.115 113.317 213.808 113.63 213.415C113.942 213.017 114.098 212.553 114.098 212.023C114.098 211.54 113.963 211.147 113.694 210.844C113.424 210.541 113.069 210.294 112.628 210.105C112.188 209.916 111.712 209.75 111.201 209.608L109.411 209.096C108.275 208.77 107.375 208.303 106.712 207.697C106.049 207.091 105.718 206.298 105.718 205.318C105.718 204.504 105.938 203.793 106.378 203.187C106.823 202.577 107.42 202.103 108.168 201.767C108.921 201.426 109.761 201.256 110.689 201.256C111.627 201.256 112.46 201.424 113.189 201.76C113.918 202.091 114.496 202.546 114.922 203.123C115.353 203.701 115.58 204.357 115.604 205.091H113.9ZM125.347 211.54V205.091H127.023V216H125.347V214.153H125.233C124.977 214.707 124.58 215.178 124.04 215.567C123.5 215.95 122.818 216.142 121.994 216.142C121.312 216.142 120.706 215.993 120.176 215.694C119.646 215.391 119.229 214.937 118.926 214.331C118.623 213.72 118.472 212.951 118.472 212.023V205.091H120.148V211.909C120.148 212.704 120.37 213.339 120.815 213.812C121.265 214.286 121.838 214.523 122.534 214.523C122.951 214.523 123.375 214.416 123.805 214.203C124.241 213.99 124.606 213.663 124.899 213.223C125.197 212.783 125.347 212.221 125.347 211.54ZM130.093 220.091V205.091H131.712V206.824H131.911C132.034 206.634 132.204 206.393 132.422 206.099C132.645 205.801 132.962 205.536 133.374 205.304C133.791 205.067 134.354 204.949 135.064 204.949C135.983 204.949 136.792 205.178 137.493 205.638C138.194 206.097 138.741 206.748 139.134 207.591C139.527 208.434 139.723 209.428 139.723 210.574C139.723 211.729 139.527 212.73 139.134 213.578C138.741 214.421 138.196 215.074 137.5 215.538C136.804 215.998 136.002 216.227 135.093 216.227C134.392 216.227 133.831 216.111 133.409 215.879C132.988 215.642 132.664 215.375 132.436 215.077C132.209 214.774 132.034 214.523 131.911 214.324H131.769V220.091H130.093ZM131.74 210.545C131.74 211.369 131.861 212.096 132.103 212.726C132.344 213.351 132.697 213.841 133.161 214.196C133.625 214.546 134.193 214.721 134.865 214.721C135.566 214.721 136.151 214.537 136.62 214.167C137.093 213.793 137.448 213.292 137.685 212.662C137.926 212.027 138.047 211.322 138.047 210.545C138.047 209.778 137.929 209.087 137.692 208.471C137.46 207.851 137.107 207.361 136.634 207.001C136.165 206.637 135.576 206.454 134.865 206.454C134.184 206.454 133.611 206.627 133.147 206.973C132.683 207.314 132.332 207.792 132.096 208.408C131.859 209.018 131.74 209.731 131.74 210.545ZM142.28 220.091V205.091H143.9V206.824H144.098C144.221 206.634 144.392 206.393 144.61 206.099C144.832 205.801 145.15 205.536 145.561 205.304C145.978 205.067 146.542 204.949 147.252 204.949C148.17 204.949 148.98 205.178 149.681 205.638C150.382 206.097 150.928 206.748 151.321 207.591C151.714 208.434 151.911 209.428 151.911 210.574C151.911 211.729 151.714 212.73 151.321 213.578C150.928 214.421 150.384 215.074 149.688 215.538C148.992 215.998 148.189 216.227 147.28 216.227C146.579 216.227 146.018 216.111 145.597 215.879C145.176 215.642 144.851 215.375 144.624 215.077C144.397 214.774 144.221 214.523 144.098 214.324H143.956V220.091H142.28ZM143.928 210.545C143.928 211.369 144.049 212.096 144.29 212.726C144.532 213.351 144.884 213.841 145.348 214.196C145.812 214.546 146.381 214.721 147.053 214.721C147.754 214.721 148.338 214.537 148.807 214.167C149.281 213.793 149.636 213.292 149.873 212.662C150.114 212.027 150.235 211.322 150.235 210.545C150.235 209.778 150.116 209.087 149.88 208.471C149.648 207.851 149.295 207.361 148.821 207.001C148.353 206.637 147.763 206.454 147.053 206.454C146.371 206.454 145.798 206.627 145.334 206.973C144.87 207.314 144.52 207.792 144.283 208.408C144.046 209.018 143.928 209.731 143.928 210.545ZM158.9 216.227C157.915 216.227 157.051 215.993 156.307 215.524C155.569 215.055 154.991 214.399 154.574 213.557C154.162 212.714 153.956 211.729 153.956 210.602C153.956 209.466 154.162 208.474 154.574 207.626C154.991 206.779 155.569 206.121 156.307 205.652C157.051 205.183 157.915 204.949 158.9 204.949C159.884 204.949 160.746 205.183 161.485 205.652C162.228 206.121 162.806 206.779 163.218 207.626C163.634 208.474 163.843 209.466 163.843 210.602C163.843 211.729 163.634 212.714 163.218 213.557C162.806 214.399 162.228 215.055 161.485 215.524C160.746 215.993 159.884 216.227 158.9 216.227ZM158.9 214.721C159.648 214.721 160.263 214.53 160.746 214.146C161.229 213.763 161.587 213.258 161.819 212.633C162.051 212.008 162.167 211.331 162.167 210.602C162.167 209.873 162.051 209.194 161.819 208.564C161.587 207.934 161.229 207.425 160.746 207.037C160.263 206.649 159.648 206.454 158.9 206.454C158.151 206.454 157.536 206.649 157.053 207.037C156.57 207.425 156.212 207.934 155.98 208.564C155.748 209.194 155.632 209.873 155.632 210.602C155.632 211.331 155.748 212.008 155.98 212.633C156.212 213.258 156.57 213.763 157.053 214.146C157.536 214.53 158.151 214.721 158.9 214.721ZM166.401 216V205.091H168.021V206.739H168.134C168.333 206.199 168.693 205.761 169.214 205.425C169.735 205.088 170.322 204.92 170.975 204.92C171.098 204.92 171.252 204.923 171.437 204.927C171.621 204.932 171.761 204.939 171.856 204.949V206.653C171.799 206.639 171.669 206.618 171.465 206.589C171.266 206.556 171.056 206.54 170.833 206.54C170.303 206.54 169.829 206.651 169.413 206.873C169.001 207.091 168.674 207.394 168.433 207.783C168.196 208.166 168.077 208.604 168.077 209.096V216H166.401ZM179.271 205.091V206.511H173.617V205.091H179.271ZM175.265 202.477H176.941V212.875C176.941 213.348 177.01 213.703 177.147 213.94C177.289 214.172 177.469 214.328 177.687 214.409C177.909 214.485 178.144 214.523 178.39 214.523C178.575 214.523 178.726 214.513 178.844 214.494C178.963 214.471 179.058 214.452 179.129 214.437L179.469 215.943C179.356 215.986 179.197 216.028 178.994 216.071C178.79 216.118 178.532 216.142 178.219 216.142C177.746 216.142 177.282 216.04 176.827 215.837C176.378 215.633 176.004 215.323 175.705 214.906C175.412 214.489 175.265 213.964 175.265 213.329V202.477ZM186.249 216.227C185.197 216.227 184.291 215.995 183.528 215.531C182.771 215.062 182.186 214.409 181.774 213.571C181.367 212.728 181.163 211.748 181.163 210.631C181.163 209.513 181.367 208.528 181.774 207.676C182.186 206.819 182.759 206.151 183.493 205.673C184.232 205.19 185.093 204.949 186.078 204.949C186.646 204.949 187.207 205.043 187.761 205.233C188.315 205.422 188.82 205.73 189.274 206.156C189.729 206.578 190.091 207.136 190.361 207.832C190.631 208.528 190.766 209.385 190.766 210.403V211.114H182.357V209.665H189.061C189.061 209.049 188.938 208.5 188.692 208.017C188.45 207.534 188.105 207.153 187.655 206.873C187.21 206.594 186.684 206.454 186.078 206.454C185.411 206.454 184.833 206.62 184.345 206.952C183.862 207.278 183.491 207.704 183.23 208.23C182.97 208.756 182.839 209.319 182.839 209.92V210.886C182.839 211.71 182.982 212.408 183.266 212.981C183.554 213.55 183.955 213.983 184.466 214.281C184.977 214.575 185.571 214.721 186.249 214.721C186.689 214.721 187.087 214.66 187.442 214.537C187.802 214.409 188.112 214.22 188.372 213.969C188.633 213.713 188.834 213.396 188.976 213.017L190.595 213.471C190.425 214.021 190.138 214.504 189.736 214.92C189.333 215.332 188.836 215.654 188.244 215.886C187.652 216.114 186.987 216.227 186.249 216.227ZM197.435 216.227C196.526 216.227 195.723 215.998 195.027 215.538C194.331 215.074 193.786 214.421 193.393 213.578C193 212.73 192.804 211.729 192.804 210.574C192.804 209.428 193 208.434 193.393 207.591C193.786 206.748 194.333 206.097 195.034 205.638C195.735 205.178 196.545 204.949 197.463 204.949C198.173 204.949 198.734 205.067 199.146 205.304C199.563 205.536 199.88 205.801 200.098 206.099C200.321 206.393 200.493 206.634 200.616 206.824H200.759V201.454H202.435V216H200.815V214.324H200.616C200.493 214.523 200.318 214.774 200.091 215.077C199.864 215.375 199.539 215.642 199.118 215.879C198.696 216.111 198.135 216.227 197.435 216.227ZM197.662 214.721C198.334 214.721 198.902 214.546 199.366 214.196C199.83 213.841 200.183 213.351 200.425 212.726C200.666 212.096 200.787 211.369 200.787 210.545C200.787 209.731 200.669 209.018 200.432 208.408C200.195 207.792 199.845 207.314 199.381 206.973C198.917 206.627 198.344 206.454 197.662 206.454C196.952 206.454 196.36 206.637 195.886 207.001C195.418 207.361 195.065 207.851 194.828 208.471C194.596 209.087 194.48 209.778 194.48 210.545C194.48 211.322 194.598 212.027 194.835 212.662C195.077 213.292 195.432 213.793 195.901 214.167C196.374 214.537 196.961 214.721 197.662 214.721ZM223.294 206H221.533C221.429 205.493 221.246 205.048 220.986 204.665C220.73 204.281 220.418 203.959 220.048 203.699C219.684 203.434 219.279 203.235 218.834 203.102C218.389 202.97 217.925 202.903 217.442 202.903C216.561 202.903 215.763 203.126 215.048 203.571C214.338 204.016 213.772 204.672 213.351 205.538C212.934 206.405 212.726 207.468 212.726 208.727C212.726 209.987 212.934 211.05 213.351 211.916C213.772 212.783 214.338 213.438 215.048 213.883C215.763 214.328 216.561 214.551 217.442 214.551C217.925 214.551 218.389 214.485 218.834 214.352C219.279 214.22 219.684 214.023 220.048 213.763C220.418 213.498 220.73 213.173 220.986 212.79C221.246 212.401 221.429 211.956 221.533 211.454H223.294C223.161 212.198 222.92 212.863 222.57 213.45C222.219 214.037 221.784 214.537 221.263 214.949C220.742 215.356 220.157 215.666 219.509 215.879C218.865 216.092 218.176 216.199 217.442 216.199C216.201 216.199 215.098 215.896 214.132 215.29C213.166 214.684 212.406 213.822 211.852 212.704C211.298 211.587 211.021 210.261 211.021 208.727C211.021 207.193 211.298 205.867 211.852 204.75C212.406 203.632 213.166 202.771 214.132 202.165C215.098 201.559 216.201 201.256 217.442 201.256C218.176 201.256 218.865 201.362 219.509 201.575C220.157 201.788 220.742 202.101 221.263 202.513C221.784 202.92 222.219 203.417 222.57 204.004C222.92 204.587 223.161 205.252 223.294 206ZM227.589 201.454V216H225.913V201.454H227.589ZM230.659 216V205.091H232.335V216H230.659ZM231.511 203.273C231.185 203.273 230.903 203.161 230.666 202.939C230.434 202.716 230.318 202.449 230.318 202.136C230.318 201.824 230.434 201.556 230.666 201.334C230.903 201.111 231.185 201 231.511 201C231.838 201 232.117 201.111 232.349 201.334C232.586 201.556 232.705 201.824 232.705 202.136C232.705 202.449 232.586 202.716 232.349 202.939C232.117 203.161 231.838 203.273 231.511 203.273ZM239.979 216.227C238.928 216.227 238.021 215.995 237.259 215.531C236.501 215.062 235.917 214.409 235.505 213.571C235.097 212.728 234.894 211.748 234.894 210.631C234.894 209.513 235.097 208.528 235.505 207.676C235.917 206.819 236.489 206.151 237.223 205.673C237.962 205.19 238.824 204.949 239.809 204.949C240.377 204.949 240.938 205.043 241.492 205.233C242.046 205.422 242.55 205.73 243.005 206.156C243.459 206.578 243.821 207.136 244.091 207.832C244.361 208.528 244.496 209.385 244.496 210.403V211.114H236.087V209.665H242.792C242.792 209.049 242.668 208.5 242.422 208.017C242.181 207.534 241.835 207.153 241.385 206.873C240.94 206.594 240.415 206.454 239.809 206.454C239.141 206.454 238.563 206.62 238.076 206.952C237.593 207.278 237.221 207.704 236.961 208.23C236.7 208.756 236.57 209.319 236.57 209.92V210.886C236.57 211.71 236.712 212.408 236.996 212.981C237.285 213.55 237.685 213.983 238.196 214.281C238.708 214.575 239.302 214.721 239.979 214.721C240.419 214.721 240.817 214.66 241.172 214.537C241.532 214.409 241.842 214.22 242.103 213.969C242.363 213.713 242.564 213.396 242.706 213.017L244.326 213.471C244.155 214.021 243.869 214.504 243.466 214.92C243.064 215.332 242.567 215.654 241.975 215.886C241.383 216.114 240.718 216.227 239.979 216.227ZM248.722 209.437V216H247.046V205.091H248.665V206.795H248.807C249.063 206.241 249.451 205.796 249.972 205.46C250.493 205.119 251.165 204.949 251.989 204.949C252.728 204.949 253.374 205.1 253.928 205.403C254.482 205.702 254.913 206.156 255.221 206.767C255.528 207.373 255.682 208.14 255.682 209.068V216H254.006V209.182C254.006 208.325 253.783 207.657 253.338 207.179C252.893 206.696 252.283 206.454 251.506 206.454C250.971 206.454 250.493 206.57 250.071 206.802C249.655 207.034 249.326 207.373 249.084 207.818C248.843 208.263 248.722 208.803 248.722 209.437ZM263.489 205.091V206.511H257.836V205.091H263.489ZM259.484 202.477H261.16V212.875C261.16 213.348 261.228 213.703 261.366 213.94C261.508 214.172 261.688 214.328 261.906 214.409C262.128 214.485 262.362 214.523 262.609 214.523C262.793 214.523 262.945 214.513 263.063 214.494C263.182 214.471 263.276 214.452 263.347 214.437L263.688 215.943C263.575 215.986 263.416 216.028 263.212 216.071C263.009 216.118 262.751 216.142 262.438 216.142C261.965 216.142 261.501 216.04 261.046 215.837C260.596 215.633 260.222 215.323 259.924 214.906C259.63 214.489 259.484 213.964 259.484 213.329V202.477ZM271.863 216V201.454H280.641V203.017H273.624V207.932H280.187V209.494H273.624V214.437H280.755V216H271.863ZM284.839 205.091L287.452 209.551L290.066 205.091H291.998L288.475 210.545L291.998 216H290.066L287.452 211.767L284.839 216H282.907L286.373 210.545L282.907 205.091H284.839ZM294.39 216V205.091H296.066V216H294.39ZM295.242 203.273C294.915 203.273 294.633 203.161 294.397 202.939C294.165 202.716 294.049 202.449 294.049 202.136C294.049 201.824 294.165 201.556 294.397 201.334C294.633 201.111 294.915 201 295.242 201C295.569 201 295.848 201.111 296.08 201.334C296.317 201.556 296.435 201.824 296.435 202.136C296.435 202.449 296.317 202.716 296.08 202.939C295.848 203.161 295.569 203.273 295.242 203.273ZM303.88 205.091V206.511H298.227V205.091H303.88ZM299.874 202.477H301.55V212.875C301.55 213.348 301.619 213.703 301.756 213.94C301.898 214.172 302.078 214.328 302.296 214.409C302.519 214.485 302.753 214.523 302.999 214.523C303.184 214.523 303.335 214.513 303.454 214.494C303.572 214.471 303.667 214.452 303.738 214.437L304.079 215.943C303.965 215.986 303.807 216.028 303.603 216.071C303.399 216.118 303.141 216.142 302.829 216.142C302.355 216.142 301.891 216.04 301.437 215.837C300.987 215.633 300.613 215.323 300.315 214.906C300.021 214.489 299.874 213.964 299.874 213.329V202.477ZM313.933 207.534L312.428 207.96C312.333 207.709 312.193 207.465 312.009 207.229C311.829 206.987 311.582 206.788 311.27 206.632C310.957 206.476 310.557 206.398 310.07 206.398C309.402 206.398 308.846 206.551 308.401 206.859C307.96 207.162 307.74 207.548 307.74 208.017C307.74 208.434 307.892 208.763 308.195 209.004C308.498 209.246 308.971 209.447 309.615 209.608L311.234 210.006C312.21 210.242 312.937 210.605 313.415 211.092C313.893 211.575 314.132 212.198 314.132 212.96C314.132 213.585 313.952 214.144 313.592 214.636C313.237 215.129 312.74 215.517 312.101 215.801C311.462 216.085 310.718 216.227 309.871 216.227C308.758 216.227 307.837 215.986 307.108 215.503C306.379 215.02 305.917 214.314 305.723 213.386L307.314 212.989C307.465 213.576 307.752 214.016 308.173 214.31C308.599 214.603 309.156 214.75 309.842 214.75C310.624 214.75 311.244 214.584 311.703 214.253C312.167 213.917 312.399 213.514 312.399 213.045C312.399 212.667 312.267 212.349 312.001 212.094C311.736 211.833 311.329 211.639 310.78 211.511L308.962 211.085C307.963 210.848 307.229 210.481 306.76 209.984C306.296 209.482 306.064 208.855 306.064 208.102C306.064 207.487 306.237 206.942 306.582 206.469C306.933 205.995 307.409 205.623 308.01 205.354C308.616 205.084 309.303 204.949 310.07 204.949C311.149 204.949 311.997 205.185 312.612 205.659C313.232 206.132 313.673 206.757 313.933 207.534Z" fill="#24223E"/>
<defs>
<linearGradient id="paint0_linear_2125_7595" x1="647.2" y1="453.017" x2="229.339" y2="-151.017" gradientUnits="userSpaceOnUse">
<stop offset="0.4" stop-color="white" stop-opacity="0"/>
<stop offset="1" stop-color="#1C27FF"/>
</linearGradient>
<linearGradient id="paint1_linear_2125_7595" x1="440.893" y1="276.778" x2="634.074" y2="546.785" gradientUnits="userSpaceOnUse">
<stop stop-color="white" stop-opacity="0"/>
<stop offset="1" stop-color="#505DFD"/>
</linearGradient>
<linearGradient id="paint2_linear_2125_7595" x1="237.389" y1="167.701" x2="37.2023" y2="-144.409" gradientUnits="userSpaceOnUse">
<stop stop-opacity="0"/>
<stop offset="1" stop-color="#6634E6"/>
</linearGradient>
<linearGradient id="paint3_linear_2125_7595" x1="92.625" y1="370.189" x2="92.625" y2="416.996" gradientUnits="userSpaceOnUse">
<stop stop-color="#3E45FF"/>
<stop offset="1" stop-color="white" stop-opacity="0"/>
</linearGradient>
<linearGradient id="paint4_linear_2125_7595" x1="92.625" y1="370.189" x2="92.625" y2="416.996" gradientUnits="userSpaceOnUse">
<stop stop-color="#1C27FF"/>
<stop offset="1" stop-color="white" stop-opacity="0"/>
</linearGradient>
<linearGradient id="paint5_linear_2125_7595" x1="161.921" y1="359.851" x2="161.921" y2="416.996" gradientUnits="userSpaceOnUse">
<stop stop-color="#3E45FF"/>
<stop offset="1" stop-color="white" stop-opacity="0"/>
</linearGradient>
<linearGradient id="paint6_linear_2125_7595" x1="161.921" y1="359.851" x2="161.921" y2="416.996" gradientUnits="userSpaceOnUse">
<stop stop-color="#1C27FF"/>
<stop offset="1" stop-color="white" stop-opacity="0"/>
</linearGradient>
<linearGradient id="paint7_linear_2125_7595" x1="236.718" y1="341.244" x2="236.718" y2="416.996" gradientUnits="userSpaceOnUse">
<stop stop-color="#3E45FF"/>
<stop offset="1" stop-color="white" stop-opacity="0"/>
</linearGradient>
<linearGradient id="paint8_linear_2125_7595" x1="236.718" y1="341.244" x2="236.718" y2="416.996" gradientUnits="userSpaceOnUse">
<stop stop-color="#1C27FF"/>
<stop offset="1" stop-color="white" stop-opacity="0"/>
</linearGradient>
<linearGradient id="paint9_linear_2125_7595" x1="313.514" y1="312.299" x2="313.514" y2="416.996" gradientUnits="userSpaceOnUse">
<stop stop-color="#3E45FF"/>
<stop offset="1" stop-color="white" stop-opacity="0"/>
</linearGradient>
<linearGradient id="paint10_linear_2125_7595" x1="313.514" y1="312.299" x2="313.514" y2="416.996" gradientUnits="userSpaceOnUse">
<stop stop-color="#1C27FF"/>
<stop offset="1" stop-color="white" stop-opacity="0"/>
</linearGradient>
<linearGradient id="paint11_linear_2125_7595" x1="388.311" y1="290.935" x2="388.311" y2="375.013" gradientUnits="userSpaceOnUse">
<stop stop-color="#3E45FF"/>
<stop offset="1" stop-color="white" stop-opacity="0"/>
</linearGradient>
<linearGradient id="paint12_linear_2125_7595" x1="388.311" y1="290.935" x2="388.311" y2="375.013" gradientUnits="userSpaceOnUse">
<stop stop-color="#1C27FF"/>
<stop offset="1" stop-color="white" stop-opacity="0"/>
</linearGradient>
<linearGradient id="paint13_linear_2125_7595" x1="461.607" y1="261.991" x2="461.607" y2="416.996" gradientUnits="userSpaceOnUse">
<stop stop-color="#3E45FF"/>
<stop offset="1" stop-color="white" stop-opacity="0"/>
</linearGradient>
<linearGradient id="paint14_linear_2125_7595" x1="461.607" y1="261.991" x2="461.607" y2="416.996" gradientUnits="userSpaceOnUse">
<stop stop-color="#1C27FF"/>
<stop offset="1" stop-color="white" stop-opacity="0"/>
</linearGradient>
<linearGradient id="paint15_linear_2125_7595" x1="535.904" y1="222.709" x2="535.904" y2="416.996" gradientUnits="userSpaceOnUse">
<stop stop-color="#3E45FF"/>
<stop offset="1" stop-color="white" stop-opacity="0"/>
</linearGradient>
<linearGradient id="paint16_linear_2125_7595" x1="535.904" y1="222.709" x2="535.904" y2="416.996" gradientUnits="userSpaceOnUse">
<stop stop-color="#1C27FF"/>
<stop offset="1" stop-color="white" stop-opacity="0"/>
</linearGradient>
<linearGradient id="paint17_linear_2125_7595" x1="612.7" y1="174.468" x2="612.7" y2="416.996" gradientUnits="userSpaceOnUse">
<stop stop-color="#3E45FF"/>
<stop offset="1" stop-color="white" stop-opacity="0"/>
</linearGradient>
<linearGradient id="paint18_linear_2125_7595" x1="612.7" y1="174.468" x2="612.7" y2="416.996" gradientUnits="userSpaceOnUse">
<stop stop-color="#1C27FF"/>
<stop offset="1" stop-color="white" stop-opacity="0"/>
</linearGradient>
</defs>
</svg>
