<svg width="595" height="437" viewBox="0 0 595 437" fill="none" xmlns="http://www.w3.org/2000/svg">
<path d="M36.6416 0.977417H558.039C577.645 0.977582 593.539 16.8714 593.539 36.4774V400.477C593.539 420.083 577.645 435.977 558.039 435.977H36.6416C17.0355 435.977 1.1416 420.084 1.1416 400.477V36.4774C1.14161 16.8713 17.0355 0.977417 36.6416 0.977417Z" fill="url(#paint0_linear_2125_7595)" fill-opacity="0.2"/>
<path d="M36.6416 0.977417H558.039C577.645 0.977582 593.539 16.8714 593.539 36.4774V400.477C593.539 420.083 577.645 435.977 558.039 435.977H36.6416C17.0355 435.977 1.1416 420.084 1.1416 400.477V36.4774C1.14161 16.8713 17.0355 0.977417 36.6416 0.977417Z" stroke="url(#paint1_linear_2125_7595)"/>
<path d="M36.6416 0.977417H558.039C577.645 0.977582 593.539 16.8714 593.539 36.4774V400.477C593.539 420.083 577.645 435.977 558.039 435.977H36.6416C17.0355 435.977 1.1416 420.084 1.1416 400.477V36.4774C1.14161 16.8713 17.0355 0.977417 36.6416 0.977417Z" stroke="url(#paint2_linear_2125_7595)" stroke-opacity="0.2"/>
<path d="M76.1973 344.615V342.608H80.2109V356.675H77.9918V344.615H76.1973ZM84.4872 344.615V342.608H88.5009V356.675H86.2818V344.615H84.4872ZM93.0666 349.458C93.0666 347.233 93.4396 345.496 94.1858 344.248C94.9448 342.988 96.2441 342.357 98.0837 342.357C99.9232 342.357 101.216 342.988 101.962 344.248C102.721 345.496 103.101 347.233 103.101 349.458C103.101 351.71 102.721 353.472 101.962 354.746C101.216 356.006 99.9232 356.637 98.0837 356.637C96.2441 356.637 94.9448 356.006 94.1858 354.746C93.4396 353.472 93.0666 351.71 93.0666 349.458ZM100.94 349.458C100.94 348.416 100.869 347.535 100.727 346.815C100.599 346.094 100.328 345.509 99.9168 345.059C99.5052 344.596 98.8941 344.364 98.0837 344.364C97.2732 344.364 96.6621 344.596 96.2505 345.059C95.8388 345.509 95.5622 346.094 95.4207 346.815C95.2921 347.535 95.2278 348.416 95.2278 349.458C95.2278 350.539 95.2921 351.446 95.4207 352.179C95.5494 352.912 95.8195 353.504 96.2312 353.954C96.6557 354.405 97.2732 354.63 98.0837 354.63C98.8941 354.63 99.5052 354.405 99.9168 353.954C100.341 353.504 100.618 352.912 100.747 352.179C100.875 351.446 100.94 350.539 100.94 349.458Z" fill="#505DFD"/>
<path d="M76.0166 370.533H103.583C107.199 370.533 110.13 373.464 110.13 377.08V416.651H69.4697V377.08C69.4697 373.464 72.4008 370.533 76.0166 370.533Z" fill="url(#paint3_linear_2125_7595)" fill-opacity="0.25" stroke="url(#paint4_linear_2125_7595)" stroke-width="0.689158"/>
<path d="M137.456 334.278V332.271H141.469V346.338H139.25V334.278H137.456ZM145.746 334.278V332.271H149.759V346.338H147.54V334.278H145.746ZM155.541 343.347C156.776 342.279 157.747 341.404 158.454 340.723C159.175 340.028 159.773 339.308 160.249 338.561C160.725 337.815 160.963 337.069 160.963 336.323C160.963 335.551 160.776 334.947 160.403 334.509C160.043 334.072 159.471 333.853 158.686 333.853C157.927 333.853 157.335 334.098 156.911 334.586C156.499 335.062 156.28 335.706 156.255 336.516H154.132C154.171 335.049 154.608 333.93 155.444 333.158C156.293 332.374 157.367 331.981 158.667 331.981C160.069 331.981 161.162 332.367 161.947 333.139C162.745 333.911 163.143 334.94 163.143 336.227C163.143 337.153 162.905 338.047 162.429 338.909C161.966 339.758 161.407 340.523 160.751 341.205C160.107 341.874 159.284 342.652 158.281 343.54L157.412 344.312H163.529V346.145H154.151V344.543L155.541 343.347Z" fill="#505DFD"/>
<path d="M136.663 360.196H164.229C167.845 360.196 170.776 363.127 170.776 366.743V416.651H130.116V366.743C130.116 363.127 133.047 360.196 136.663 360.196Z" fill="url(#paint5_linear_2125_7595)" fill-opacity="0.25" stroke="url(#paint6_linear_2125_7595)" stroke-width="0.689158"/>
<path d="M195.313 315.67V313.663H199.326V327.731H197.107V315.67H195.313ZM205.108 324.74C206.343 323.672 207.314 322.797 208.021 322.115C208.742 321.421 209.34 320.7 209.816 319.954C210.292 319.208 210.53 318.462 210.53 317.716C210.53 316.944 210.343 316.339 209.97 315.902C209.61 315.464 209.038 315.246 208.253 315.246C207.494 315.246 206.902 315.49 206.478 315.979C206.066 316.455 205.847 317.098 205.822 317.909H203.699C203.738 316.442 204.175 315.323 205.011 314.551C205.86 313.766 206.934 313.374 208.234 313.374C209.636 313.374 210.729 313.76 211.514 314.532C212.312 315.304 212.71 316.333 212.71 317.619C212.71 318.545 212.472 319.44 211.997 320.301C211.533 321.151 210.974 321.916 210.318 322.598C209.675 323.267 208.851 324.045 207.848 324.933L206.979 325.704H213.096V327.538H203.718V325.936L205.108 324.74ZM225.642 315.555H219.178V319.395C219.448 319.034 219.847 318.732 220.374 318.488C220.914 318.243 221.487 318.121 222.091 318.121C223.172 318.121 224.047 318.353 224.716 318.816C225.398 319.279 225.88 319.864 226.163 320.572C226.459 321.279 226.607 322.025 226.607 322.81C226.607 323.762 226.42 324.611 226.047 325.357C225.687 326.09 225.14 326.669 224.407 327.094C223.687 327.518 222.799 327.731 221.744 327.731C220.342 327.731 219.216 327.383 218.367 326.689C217.518 325.994 217.01 325.074 216.843 323.929H218.985C219.126 324.534 219.441 325.016 219.93 325.376C220.419 325.724 221.03 325.897 221.763 325.897C222.677 325.897 223.359 325.621 223.809 325.068C224.272 324.515 224.503 323.781 224.503 322.868C224.503 321.942 224.272 321.234 223.809 320.745C223.346 320.244 222.664 319.993 221.763 319.993C221.133 319.993 220.599 320.154 220.162 320.475C219.737 320.784 219.429 321.208 219.236 321.749H217.152V313.625H225.642V315.555Z" fill="#505DFD"/>
<path d="M197.308 341.589H224.875C228.491 341.589 231.422 344.52 231.422 348.135V416.651H190.762V348.135C190.762 344.52 193.693 341.589 197.308 341.589Z" fill="url(#paint7_linear_2125_7595)" fill-opacity="0.25" stroke="url(#paint8_linear_2125_7595)" stroke-width="0.689158"/>
<path d="M255.78 286.726V284.719H259.793V298.786H257.574V286.726H255.78ZM264.32 288.192C264.398 286.996 264.854 286.063 265.69 285.394C266.539 284.725 267.62 284.391 268.932 284.391C269.833 284.391 270.611 284.552 271.267 284.873C271.923 285.195 272.418 285.632 272.753 286.185C273.087 286.738 273.255 287.362 273.255 288.057C273.255 288.855 273.042 289.536 272.618 290.102C272.193 290.669 271.685 291.048 271.093 291.241V291.318C271.852 291.55 272.444 291.974 272.869 292.592C273.293 293.196 273.505 293.975 273.505 294.927C273.505 295.686 273.332 296.361 272.984 296.953C272.637 297.544 272.123 298.014 271.441 298.361C270.759 298.696 269.942 298.863 268.99 298.863C267.601 298.863 266.456 298.509 265.555 297.802C264.668 297.081 264.192 296.052 264.127 294.714H266.25C266.301 295.396 266.565 295.956 267.041 296.393C267.517 296.818 268.16 297.03 268.971 297.03C269.755 297.03 270.36 296.818 270.785 296.393C271.209 295.956 271.421 295.396 271.421 294.714C271.421 293.814 271.132 293.177 270.553 292.804C269.987 292.418 269.112 292.225 267.929 292.225H267.427V290.411H267.948C268.99 290.398 269.781 290.225 270.322 289.89C270.875 289.556 271.151 289.028 271.151 288.308C271.151 287.69 270.952 287.202 270.553 286.841C270.154 286.468 269.588 286.282 268.855 286.282C268.135 286.282 267.575 286.468 267.176 286.841C266.777 287.202 266.539 287.652 266.462 288.192H264.32ZM277.36 291.569C277.36 289.343 277.733 287.607 278.479 286.359C279.238 285.098 280.537 284.468 282.377 284.468C284.217 284.468 285.509 285.098 286.256 286.359C287.015 287.607 287.394 289.343 287.394 291.569C287.394 293.82 287.015 295.583 286.256 296.856C285.509 298.117 284.217 298.747 282.377 298.747C280.537 298.747 279.238 298.117 278.479 296.856C277.733 295.583 277.36 293.82 277.36 291.569ZM285.233 291.569C285.233 290.527 285.162 289.646 285.021 288.925C284.892 288.205 284.622 287.62 284.21 287.169C283.798 286.706 283.187 286.475 282.377 286.475C281.567 286.475 280.955 286.706 280.544 287.169C280.132 287.62 279.856 288.205 279.714 288.925C279.585 289.646 279.521 290.527 279.521 291.569C279.521 292.65 279.585 293.557 279.714 294.29C279.843 295.023 280.113 295.615 280.525 296.065C280.949 296.515 281.567 296.74 282.377 296.74C283.187 296.74 283.798 296.515 284.21 296.065C284.635 295.615 284.911 295.023 285.04 294.29C285.169 293.557 285.233 292.65 285.233 291.569Z" fill="#505DFD"/>
<path d="M257.954 312.644H285.521C289.137 312.644 292.068 315.575 292.068 319.191V416.652H251.408V319.191C251.408 315.575 254.339 312.644 257.954 312.644Z" fill="url(#paint9_linear_2125_7595)" fill-opacity="0.25" stroke="url(#paint10_linear_2125_7595)" stroke-width="0.689158"/>
<path d="M315.992 265.362V263.355H320.006V277.422H317.787V265.362H315.992ZM333.641 265.246H327.176V269.086C327.447 268.726 327.845 268.423 328.373 268.179C328.913 267.935 329.486 267.812 330.09 267.812C331.171 267.812 332.046 268.044 332.715 268.507C333.396 268.97 333.879 269.555 334.162 270.263C334.458 270.971 334.606 271.717 334.606 272.501C334.606 273.453 334.419 274.302 334.046 275.049C333.686 275.782 333.139 276.361 332.406 276.785C331.685 277.21 330.798 277.422 329.743 277.422C328.341 277.422 327.215 277.075 326.366 276.38C325.517 275.685 325.009 274.766 324.842 273.621H326.983C327.125 274.225 327.44 274.708 327.929 275.068C328.418 275.415 329.029 275.589 329.762 275.589C330.676 275.589 331.357 275.312 331.808 274.759C332.271 274.206 332.502 273.473 332.502 272.559C332.502 271.633 332.271 270.926 331.808 270.437C331.344 269.935 330.663 269.684 329.762 269.684C329.132 269.684 328.598 269.845 328.161 270.167C327.736 270.475 327.427 270.9 327.234 271.44H325.15V263.316H333.641V265.246ZM338.439 270.205C338.439 267.98 338.812 266.243 339.558 264.995C340.317 263.734 341.617 263.104 343.456 263.104C345.296 263.104 346.589 263.734 347.335 264.995C348.094 266.243 348.473 267.98 348.473 270.205C348.473 272.456 348.094 274.219 347.335 275.492C346.589 276.753 345.296 277.383 343.456 277.383C341.617 277.383 340.317 276.753 339.558 275.492C338.812 274.219 338.439 272.456 338.439 270.205ZM346.312 270.205C346.312 269.163 346.241 268.282 346.1 267.562C345.971 266.841 345.701 266.256 345.289 265.806C344.878 265.342 344.267 265.111 343.456 265.111C342.646 265.111 342.035 265.342 341.623 265.806C341.212 266.256 340.935 266.841 340.793 267.562C340.665 268.282 340.6 269.163 340.6 270.205C340.6 271.286 340.665 272.193 340.793 272.926C340.922 273.659 341.192 274.251 341.604 274.701C342.028 275.151 342.646 275.377 343.456 275.377C344.267 275.377 344.878 275.151 345.289 274.701C345.714 274.251 345.991 273.659 346.119 272.926C346.248 272.193 346.312 271.286 346.312 270.205Z" fill="#505DFD"/>
<path d="M318.6 291.28H346.167C349.783 291.28 352.714 294.211 352.714 297.827V374.668H312.053V297.827C312.053 294.211 314.985 291.28 318.6 291.28Z" fill="url(#paint11_linear_2125_7595)" fill-opacity="0.25" stroke="url(#paint12_linear_2125_7595)" stroke-width="0.689158"/>
<path d="M376.553 236.417V234.41H380.567V248.477H378.348V236.417H376.553ZM384.862 245.544V243.885L391.346 234.584H394.009V243.634H395.804V245.544H394.009V248.477H391.848V245.544H384.862ZM391.944 236.822L387.39 243.634H391.944V236.822ZM399.17 241.261C399.17 239.035 399.543 237.298 400.289 236.051C401.048 234.79 402.347 234.159 404.187 234.159C406.027 234.159 407.32 234.79 408.066 236.051C408.825 237.298 409.204 239.035 409.204 241.261C409.204 243.512 408.825 245.274 408.066 246.548C407.32 247.808 406.027 248.439 404.187 248.439C402.347 248.439 401.048 247.808 400.289 246.548C399.543 245.274 399.17 243.512 399.17 241.261ZM407.043 241.261C407.043 240.219 406.972 239.337 406.831 238.617C406.702 237.897 406.432 237.311 406.02 236.861C405.609 236.398 404.998 236.166 404.187 236.166C403.377 236.166 402.766 236.398 402.354 236.861C401.942 237.311 401.666 237.897 401.524 238.617C401.396 239.337 401.331 240.219 401.331 241.261C401.331 242.341 401.396 243.248 401.524 243.981C401.653 244.715 401.923 245.306 402.335 245.757C402.759 246.207 403.377 246.432 404.187 246.432C404.998 246.432 405.609 246.207 406.02 245.757C406.445 245.306 406.721 244.715 406.85 243.981C406.979 243.248 407.043 242.341 407.043 241.261Z" fill="#505DFD"/>
<path d="M379.246 262.335H406.813C410.428 262.335 413.36 265.267 413.36 268.882V416.652H372.699V268.882C372.699 265.267 375.63 262.335 379.246 262.335Z" fill="url(#paint13_linear_2125_7595)" fill-opacity="0.25" stroke="url(#paint14_linear_2125_7595)" stroke-width="0.689158"/>
<path d="M437.256 197.135V195.128H441.269V209.195H439.05V197.135H437.256ZM453.399 198.389C453.258 197.798 453 197.354 452.627 197.058C452.254 196.762 451.733 196.614 451.064 196.614C450.048 196.614 449.289 197.006 448.787 197.791C448.286 198.563 448.022 199.849 447.996 201.65C448.331 201.084 448.82 200.647 449.463 200.338C450.106 200.03 450.801 199.875 451.547 199.875C452.396 199.875 453.142 200.062 453.785 200.435C454.441 200.795 454.949 201.322 455.31 202.017C455.683 202.712 455.869 203.541 455.869 204.506C455.869 205.407 455.689 206.211 455.329 206.918C454.982 207.626 454.461 208.185 453.766 208.597C453.071 208.996 452.235 209.195 451.257 209.195C449.932 209.195 448.89 208.906 448.131 208.327C447.385 207.735 446.858 206.905 446.549 205.838C446.253 204.77 446.105 203.439 446.105 201.843C446.105 197.135 447.765 194.781 451.084 194.781C452.37 194.781 453.38 195.128 454.113 195.823C454.859 196.518 455.297 197.373 455.425 198.389H453.399ZM451.064 201.728C450.28 201.728 449.611 201.966 449.058 202.442C448.517 202.905 448.247 203.58 448.247 204.468C448.247 205.355 448.498 206.063 449 206.59C449.514 207.105 450.228 207.362 451.142 207.362C451.952 207.362 452.589 207.111 453.052 206.61C453.528 206.108 453.766 205.439 453.766 204.603C453.766 203.728 453.534 203.033 453.071 202.519C452.621 201.991 451.952 201.728 451.064 201.728ZM459.759 201.978C459.759 199.753 460.132 198.016 460.879 196.768C461.638 195.508 462.937 194.877 464.776 194.877C466.616 194.877 467.909 195.508 468.655 196.768C469.414 198.016 469.794 199.753 469.794 201.978C469.794 204.23 469.414 205.992 468.655 207.266C467.909 208.526 466.616 209.157 464.776 209.157C462.937 209.157 461.638 208.526 460.879 207.266C460.132 205.992 459.759 204.23 459.759 201.978ZM467.632 201.978C467.632 200.936 467.562 200.055 467.42 199.335C467.291 198.614 467.021 198.029 466.61 197.579C466.198 197.116 465.587 196.884 464.776 196.884C463.966 196.884 463.355 197.116 462.943 197.579C462.532 198.029 462.255 198.614 462.114 199.335C461.985 200.055 461.921 200.936 461.921 201.978C461.921 203.059 461.985 203.966 462.114 204.699C462.242 205.433 462.512 206.024 462.924 206.475C463.349 206.925 463.966 207.15 464.776 207.15C465.587 207.15 466.198 206.925 466.61 206.475C467.034 206.024 467.311 205.433 467.439 204.699C467.568 203.966 467.632 203.059 467.632 201.978Z" fill="#505DFD"/>
<path d="M439.892 223.053H467.459C471.074 223.053 474.006 225.984 474.006 229.6V416.651H433.345V229.6C433.345 225.984 436.276 223.053 439.892 223.053Z" fill="url(#paint15_linear_2125_7595)" fill-opacity="0.25" stroke="url(#paint16_linear_2125_7595)" stroke-width="0.689158"/>
<path d="M502.836 157.963C504.071 156.896 505.043 156.021 505.75 155.339C506.471 154.644 507.069 153.924 507.545 153.178C508.021 152.432 508.259 151.686 508.259 150.939C508.259 150.168 508.072 149.563 507.699 149.126C507.339 148.688 506.766 148.469 505.982 148.469C505.223 148.469 504.631 148.714 504.206 149.203C503.795 149.679 503.576 150.322 503.55 151.132H501.428C501.466 149.666 501.904 148.547 502.74 147.775C503.589 146.99 504.663 146.598 505.962 146.598C507.365 146.598 508.458 146.984 509.243 147.755C510.04 148.527 510.439 149.556 510.439 150.843C510.439 151.769 510.201 152.663 509.725 153.525C509.262 154.374 508.703 155.14 508.046 155.821C507.403 156.49 506.58 157.269 505.577 158.156L504.708 158.928H510.825V160.761H501.447V159.16L502.836 157.963ZM514.012 148.894V146.887H518.026V160.954H515.806V148.894H514.012ZM522.302 148.894V146.887H526.316V160.954H524.096V148.894H522.302Z" fill="#505DFD"/>
<path d="M500.538 174.812H528.105C531.72 174.812 534.651 177.743 534.651 181.359V416.651H493.991V181.359C493.991 177.743 496.922 174.812 500.538 174.812Z" fill="url(#paint17_linear_2125_7595)" fill-opacity="0.25" stroke="url(#paint18_linear_2125_7595)" stroke-width="0.689158"/>
<path d="M108.56 163.352C108.56 165.016 108.128 166.584 107.264 168.056C106.432 169.496 105.184 170.696 103.52 171.656C101.888 172.584 99.9518 173.128 97.7118 173.288V177.176H94.6398V173.24C91.4398 172.952 88.8638 171.992 86.9118 170.36C84.9598 168.696 83.9518 166.456 83.8878 163.64H91.0878C91.2798 165.944 92.4638 167.336 94.6398 167.816V158.648C92.3358 158.072 90.4798 157.496 89.0718 156.92C87.6638 156.344 86.4478 155.416 85.4238 154.136C84.3998 152.856 83.8878 151.112 83.8878 148.904C83.8878 146.12 84.8798 143.848 86.8638 142.088C88.8798 140.328 91.4718 139.32 94.6398 139.064V135.176H97.7118V139.064C100.784 139.32 103.232 140.248 105.056 141.848C106.912 143.448 107.952 145.656 108.176 148.472H100.928C100.832 147.544 100.496 146.744 99.9198 146.072C99.3758 145.368 98.6398 144.872 97.7118 144.584V153.656C100.112 154.264 102 154.856 103.376 155.432C104.784 155.976 106 156.888 107.024 158.168C108.048 159.416 108.56 161.144 108.56 163.352ZM90.8958 148.568C90.8958 149.624 91.2158 150.488 91.8558 151.16C92.4958 151.8 93.4238 152.328 94.6398 152.744V144.44C93.4878 144.6 92.5758 145.032 91.9038 145.736C91.2318 146.44 90.8958 147.384 90.8958 148.568ZM97.7118 167.912C98.9278 167.688 99.8718 167.192 100.544 166.424C101.248 165.656 101.6 164.728 101.6 163.64C101.6 162.584 101.264 161.736 100.592 161.096C99.9198 160.456 98.9598 159.928 97.7118 159.512V167.912ZM113.998 144.2V138.008H125.566V173H118.654V144.2H113.998ZM135.469 173.336C134.253 173.336 133.245 172.968 132.445 172.232C131.677 171.464 131.293 170.52 131.293 169.4C131.293 168.28 131.677 167.352 132.445 166.616C133.245 165.848 134.253 165.464 135.469 165.464C136.653 165.464 137.629 165.848 138.397 166.616C139.165 167.352 139.549 168.28 139.549 169.4C139.549 170.52 139.165 171.464 138.397 172.232C137.629 172.968 136.653 173.336 135.469 173.336ZM143.809 147.224C143.969 144.024 145.089 141.56 147.169 139.832C149.281 138.072 152.049 137.192 155.473 137.192C157.809 137.192 159.809 137.608 161.473 138.44C163.137 139.24 164.385 140.344 165.217 141.752C166.081 143.128 166.513 144.696 166.513 146.456C166.513 148.472 165.985 150.184 164.929 151.592C163.905 152.968 162.673 153.896 161.233 154.376V154.568C163.089 155.144 164.529 156.168 165.553 157.64C166.609 159.112 167.137 161 167.137 163.304C167.137 165.224 166.689 166.936 165.793 168.44C164.929 169.944 163.633 171.128 161.905 171.992C160.209 172.824 158.161 173.24 155.761 173.24C152.145 173.24 149.201 172.328 146.929 170.504C144.657 168.68 143.457 165.992 143.329 162.44H149.857C149.921 164.008 150.449 165.272 151.441 166.232C152.465 167.16 153.857 167.624 155.617 167.624C157.249 167.624 158.497 167.176 159.361 166.28C160.257 165.352 160.705 164.168 160.705 162.728C160.705 160.808 160.097 159.432 158.881 158.6C157.665 157.768 155.777 157.352 153.217 157.352H151.825V151.832H153.217C157.761 151.832 160.033 150.312 160.033 147.272C160.033 145.896 159.617 144.824 158.785 144.056C157.985 143.288 156.817 142.904 155.281 142.904C153.777 142.904 152.609 143.32 151.777 144.152C150.977 144.952 150.513 145.976 150.385 147.224H143.809ZM194.24 143.096L181.472 173H174.656L187.52 143.864H171.104V138.104H194.24V143.096ZM217.561 155.816C219.449 156.168 221.001 157.112 222.217 158.648C223.433 160.184 224.041 161.944 224.041 163.928C224.041 165.72 223.593 167.304 222.697 168.68C221.833 170.024 220.569 171.08 218.905 171.848C217.241 172.616 215.273 173 213.001 173H198.553V139.496H212.377C214.649 139.496 216.601 139.864 218.233 140.6C219.897 141.336 221.145 142.36 221.977 143.672C222.841 144.984 223.273 146.472 223.273 148.136C223.273 150.088 222.745 151.72 221.689 153.032C220.665 154.344 219.289 155.272 217.561 155.816ZM205.273 153.32H211.417C213.017 153.32 214.249 152.968 215.113 152.264C215.977 151.528 216.409 150.488 216.409 149.144C216.409 147.8 215.977 146.76 215.113 146.024C214.249 145.288 213.017 144.92 211.417 144.92H205.273V153.32ZM212.041 167.528C213.673 167.528 214.937 167.144 215.833 166.376C216.761 165.608 217.225 164.52 217.225 163.112C217.225 161.672 216.745 160.552 215.785 159.752C214.825 158.92 213.529 158.504 211.897 158.504H205.273V167.528H212.041ZM254.02 158.84H244.948V168.152H238.612V158.84H229.54V152.984H238.612V143.672H244.948V152.984H254.02V158.84Z" fill="#250A5B"/>
<path d="M85.0891 201.454V216H83.3278V201.454H85.0891ZM90.0696 209.437V216H88.3935V205.091H90.0128V206.795H90.1548C90.4105 206.241 90.7988 205.796 91.3196 205.46C91.8404 205.119 92.5128 204.949 93.3366 204.949C94.0753 204.949 94.7216 205.1 95.2756 205.403C95.8295 205.702 96.2604 206.156 96.5682 206.767C96.8759 207.373 97.0298 208.14 97.0298 209.068V216H95.3537V209.182C95.3537 208.325 95.1312 207.657 94.6861 207.179C94.241 206.696 93.6302 206.454 92.8537 206.454C92.3187 206.454 91.8404 206.57 91.419 206.802C91.0024 207.034 90.6733 207.373 90.4318 207.818C90.1903 208.263 90.0696 208.803 90.0696 209.437ZM113.9 205.091C113.814 204.371 113.469 203.812 112.863 203.415C112.257 203.017 111.513 202.818 110.632 202.818C109.989 202.818 109.425 202.922 108.942 203.131C108.464 203.339 108.09 203.625 107.82 203.99C107.555 204.355 107.422 204.769 107.422 205.233C107.422 205.621 107.515 205.955 107.699 206.234C107.889 206.509 108.13 206.739 108.424 206.923C108.717 207.103 109.025 207.252 109.347 207.371C109.669 207.484 109.965 207.577 110.235 207.648L111.712 208.045C112.091 208.145 112.512 208.282 112.976 208.457C113.445 208.632 113.892 208.872 114.319 209.175C114.749 209.473 115.105 209.856 115.384 210.325C115.663 210.794 115.803 211.369 115.803 212.051C115.803 212.837 115.597 213.547 115.185 214.182C114.778 214.816 114.181 215.32 113.395 215.694C112.614 216.069 111.665 216.256 110.547 216.256C109.506 216.256 108.604 216.087 107.841 215.751C107.084 215.415 106.487 214.946 106.051 214.345C105.621 213.744 105.377 213.045 105.32 212.25H107.138C107.185 212.799 107.37 213.254 107.692 213.614C108.019 213.969 108.431 214.234 108.928 214.409C109.43 214.579 109.97 214.665 110.547 214.665C111.22 214.665 111.823 214.556 112.358 214.338C112.893 214.115 113.317 213.808 113.63 213.415C113.942 213.017 114.098 212.553 114.098 212.023C114.098 211.54 113.963 211.147 113.694 210.844C113.424 210.541 113.069 210.294 112.628 210.105C112.188 209.916 111.712 209.75 111.201 209.608L109.411 209.096C108.275 208.77 107.375 208.303 106.712 207.697C106.049 207.091 105.718 206.298 105.718 205.318C105.718 204.504 105.938 203.793 106.378 203.187C106.823 202.577 107.42 202.103 108.168 201.767C108.921 201.426 109.761 201.256 110.689 201.256C111.627 201.256 112.46 201.424 113.189 201.76C113.918 202.091 114.496 202.546 114.922 203.123C115.353 203.701 115.58 204.357 115.604 205.091H113.9ZM125.347 211.54V205.091H127.023V216H125.347V214.153H125.233C124.977 214.707 124.58 215.178 124.04 215.567C123.5 215.95 122.818 216.142 121.994 216.142C121.312 216.142 120.706 215.993 120.176 215.694C119.646 215.391 119.229 214.937 118.926 214.331C118.623 213.72 118.472 212.951 118.472 212.023V205.091H120.148V211.909C120.148 212.704 120.37 213.339 120.815 213.812C121.265 214.286 121.838 214.523 122.534 214.523C122.951 214.523 123.375 214.416 123.805 214.203C124.241 213.99 124.606 213.663 124.899 213.223C125.197 212.783 125.347 212.221 125.347 211.54ZM130.093 220.091V205.091H131.712V206.824H131.911C132.034 206.634 132.204 206.393 132.422 206.099C132.645 205.801 132.962 205.536 133.374 205.304C133.791 205.067 134.354 204.949 135.064 204.949C135.983 204.949 136.792 205.178 137.493 205.638C138.194 206.097 138.741 206.748 139.134 207.591C139.527 208.434 139.723 209.428 139.723 210.574C139.723 211.729 139.527 212.73 139.134 213.578C138.741 214.421 138.196 215.074 137.5 215.538C136.804 215.998 136.002 216.227 135.093 216.227C134.392 216.227 133.831 216.111 133.409 215.879C132.988 215.642 132.664 215.375 132.436 215.077C132.209 214.774 132.034 214.523 131.911 214.324H131.769V220.091H130.093ZM131.74 210.545C131.74 211.369 131.861 212.096 132.103 212.726C132.344 213.351 132.697 213.841 133.161 214.196C133.625 214.546 134.193 214.721 134.865 214.721C135.566 214.721 136.151 214.537 136.62 214.167C137.093 213.793 137.448 213.292 137.685 212.662C137.926 212.027 138.047 211.322 138.047 210.545C138.047 209.778 137.929 209.087 137.692 208.471C137.46 207.851 137.107 207.361 136.634 207.001C136.165 206.637 135.576 206.454 134.865 206.454C134.184 206.454 133.611 206.627 133.147 206.973C132.683 207.314 132.332 207.792 132.096 208.408C131.859 209.018 131.74 209.731 131.74 210.545ZM142.28 220.091V205.091H143.9V206.824H144.098C144.221 206.634 144.392 206.393 144.61 206.099C144.832 205.801 145.15 205.536 145.561 205.304C145.978 205.067 146.542 204.949 147.252 204.949C148.17 204.949 148.98 205.178 149.681 205.638C150.382 206.097 150.928 206.748 151.321 207.591C151.714 208.434 151.911 209.428 151.911 210.574C151.911 211.729 151.714 212.73 151.321 213.578C150.928 214.421 150.384 215.074 149.688 215.538C148.992 215.998 148.189 216.227 147.28 216.227C146.579 216.227 146.018 216.111 145.597 215.879C145.176 215.642 144.851 215.375 144.624 215.077C144.397 214.774 144.221 214.523 144.098 214.324H143.956V220.091H142.28ZM143.928 210.545C143.928 211.369 144.049 212.096 144.29 212.726C144.532 213.351 144.884 213.841 145.348 214.196C145.812 214.546 146.381 214.721 147.053 214.721C147.754 214.721 148.338 214.537 148.807 214.167C149.281 213.793 149.636 213.292 149.873 212.662C150.114 212.027 150.235 211.322 150.235 210.545C150.235 209.778 150.116 209.087 149.88 208.471C149.648 207.851 149.295 207.361 148.821 207.001C148.353 206.637 147.763 206.454 147.053 206.454C146.371 206.454 145.798 206.627 145.334 206.973C144.87 207.314 144.52 207.792 144.283 208.408C144.046 209.018 143.928 209.731 143.928 210.545ZM158.9 216.227C157.915 216.227 157.051 215.993 156.307 215.524C155.569 215.055 154.991 214.399 154.574 213.557C154.162 212.714 153.956 211.729 153.956 210.602C153.956 209.466 154.162 208.474 154.574 207.626C154.991 206.779 155.569 206.121 156.307 205.652C157.051 205.183 157.915 204.949 158.9 204.949C159.884 204.949 160.746 205.183 161.485 205.652C162.228 206.121 162.806 206.779 163.218 207.626C163.634 208.474 163.843 209.466 163.843 210.602C163.843 211.729 163.634 212.714 163.218 213.557C162.806 214.399 162.228 215.055 161.485 215.524C160.746 215.993 159.884 216.227 158.9 216.227ZM158.9 214.721C159.648 214.721 160.263 214.53 160.746 214.146C161.229 213.763 161.587 213.258 161.819 212.633C162.051 212.008 162.167 211.331 162.167 210.602C162.167 209.873 162.051 209.194 161.819 208.564C161.587 207.934 161.229 207.425 160.746 207.037C160.263 206.649 159.648 206.454 158.9 206.454C158.151 206.454 157.536 206.649 157.053 207.037C156.57 207.425 156.212 207.934 155.98 208.564C155.748 209.194 155.632 209.873 155.632 210.602C155.632 211.331 155.748 212.008 155.98 212.633C156.212 213.258 156.57 213.763 157.053 214.146C157.536 214.53 158.151 214.721 158.9 214.721ZM166.401 216V205.091H168.021V206.739H168.134C168.333 206.199 168.693 205.761 169.214 205.425C169.735 205.088 170.322 204.92 170.975 204.92C171.098 204.92 171.252 204.923 171.437 204.927C171.621 204.932 171.761 204.939 171.856 204.949V206.653C171.799 206.639 171.669 206.618 171.465 206.589C171.266 206.556 171.056 206.54 170.833 206.54C170.303 206.54 169.829 206.651 169.413 206.873C169.001 207.091 168.674 207.394 168.433 207.783C168.196 208.166 168.077 208.604 168.077 209.096V216H166.401ZM179.271 205.091V206.511H173.617V205.091H179.271ZM175.265 202.477H176.941V212.875C176.941 213.348 177.01 213.703 177.147 213.94C177.289 214.172 177.469 214.328 177.687 214.409C177.909 214.485 178.144 214.523 178.39 214.523C178.575 214.523 178.726 214.513 178.844 214.494C178.963 214.471 179.058 214.452 179.129 214.437L179.469 215.943C179.356 215.986 179.197 216.028 178.994 216.071C178.79 216.118 178.532 216.142 178.219 216.142C177.746 216.142 177.282 216.04 176.827 215.837C176.378 215.633 176.004 215.323 175.705 214.906C175.412 214.489 175.265 213.964 175.265 213.329V202.477ZM186.249 216.227C185.197 216.227 184.291 215.995 183.528 215.531C182.771 215.062 182.186 214.409 181.774 213.571C181.367 212.728 181.163 211.748 181.163 210.631C181.163 209.513 181.367 208.528 181.774 207.676C182.186 206.819 182.759 206.151 183.493 205.673C184.232 205.19 185.093 204.949 186.078 204.949C186.646 204.949 187.207 205.043 187.761 205.233C188.315 205.422 188.82 205.73 189.274 206.156C189.729 206.578 190.091 207.136 190.361 207.832C190.631 208.528 190.766 209.385 190.766 210.403V211.114H182.357V209.665H189.061C189.061 209.049 188.938 208.5 188.692 208.017C188.45 207.534 188.105 207.153 187.655 206.873C187.21 206.594 186.684 206.454 186.078 206.454C185.411 206.454 184.833 206.62 184.345 206.952C183.862 207.278 183.491 207.704 183.23 208.23C182.97 208.756 182.839 209.319 182.839 209.92V210.886C182.839 211.71 182.982 212.408 183.266 212.981C183.554 213.55 183.955 213.983 184.466 214.281C184.977 214.575 185.571 214.721 186.249 214.721C186.689 214.721 187.087 214.66 187.442 214.537C187.802 214.409 188.112 214.22 188.372 213.969C188.633 213.713 188.834 213.396 188.976 213.017L190.595 213.471C190.425 214.021 190.138 214.504 189.736 214.92C189.333 215.332 188.836 215.654 188.244 215.886C187.652 216.114 186.987 216.227 186.249 216.227ZM197.435 216.227C196.526 216.227 195.723 215.998 195.027 215.538C194.331 215.074 193.786 214.421 193.393 213.578C193 212.73 192.804 211.729 192.804 210.574C192.804 209.428 193 208.434 193.393 207.591C193.786 206.748 194.333 206.097 195.034 205.638C195.735 205.178 196.545 204.949 197.463 204.949C198.173 204.949 198.734 205.067 199.146 205.304C199.563 205.536 199.88 205.801 200.098 206.099C200.321 206.393 200.493 206.634 200.616 206.824H200.759V201.454H202.435V216H200.815V214.324H200.616C200.493 214.523 200.318 214.774 200.091 215.077C199.864 215.375 199.539 215.642 199.118 215.879C198.696 216.111 198.135 216.227 197.435 216.227ZM197.662 214.721C198.334 214.721 198.902 214.546 199.366 214.196C199.83 213.841 200.183 213.351 200.425 212.726C200.666 212.096 200.787 211.369 200.787 210.545C200.787 209.731 200.669 209.018 200.432 208.408C200.195 207.792 199.845 207.314 199.381 206.973C198.917 206.627 198.344 206.454 197.662 206.454C196.952 206.454 196.36 206.637 195.886 207.001C195.418 207.361 195.065 207.851 194.828 208.471C194.596 209.087 194.48 209.778 194.48 210.545C194.48 211.322 194.598 212.027 194.835 212.662C195.077 213.292 195.432 213.793 195.901 214.167C196.374 214.537 196.961 214.721 197.662 214.721ZM223.294 206H221.533C221.429 205.493 221.246 205.048 220.986 204.665C220.73 204.281 220.418 203.959 220.048 203.699C219.684 203.434 219.279 203.235 218.834 203.102C218.389 202.97 217.925 202.903 217.442 202.903C216.561 202.903 215.763 203.126 215.048 203.571C214.338 204.016 213.772 204.672 213.351 205.538C212.934 206.405 212.726 207.468 212.726 208.727C212.726 209.987 212.934 211.05 213.351 211.916C213.772 212.783 214.338 213.438 215.048 213.883C215.763 214.328 216.561 214.551 217.442 214.551C217.925 214.551 218.389 214.485 218.834 214.352C219.279 214.22 219.684 214.023 220.048 213.763C220.418 213.498 220.73 213.173 220.986 212.79C221.246 212.401 221.429 211.956 221.533 211.454H223.294C223.161 212.198 222.92 212.863 222.57 213.45C222.219 214.037 221.784 214.537 221.263 214.949C220.742 215.356 220.157 215.666 219.509 215.879C218.865 216.092 218.176 216.199 217.442 216.199C216.201 216.199 215.098 215.896 214.132 215.29C213.166 214.684 212.406 213.822 211.852 212.704C211.298 211.587 211.021 210.261 211.021 208.727C211.021 207.193 211.298 205.867 211.852 204.75C212.406 203.632 213.166 202.771 214.132 202.165C215.098 201.559 216.201 201.256 217.442 201.256C218.176 201.256 218.865 201.362 219.509 201.575C220.157 201.788 220.742 202.101 221.263 202.513C221.784 202.92 222.219 203.417 222.57 204.004C222.92 204.587 223.161 205.252 223.294 206ZM227.589 201.454V216H225.913V201.454H227.589ZM230.659 216V205.091H232.335V216H230.659ZM231.511 203.273C231.185 203.273 230.903 203.161 230.666 202.939C230.434 202.716 230.318 202.449 230.318 202.136C230.318 201.824 230.434 201.556 230.666 201.334C230.903 201.111 231.185 201 231.511 201C231.838 201 232.117 201.111 232.349 201.334C232.586 201.556 232.705 201.824 232.705 202.136C232.705 202.449 232.586 202.716 232.349 202.939C232.117 203.161 231.838 203.273 231.511 203.273ZM239.979 216.227C238.928 216.227 238.021 215.995 237.259 215.531C236.501 215.062 235.917 214.409 235.505 213.571C235.097 212.728 234.894 211.748 234.894 210.631C234.894 209.513 235.097 208.528 235.505 207.676C235.917 206.819 236.489 206.151 237.223 205.673C237.962 205.19 238.824 204.949 239.809 204.949C240.377 204.949 240.938 205.043 241.492 205.233C242.046 205.422 242.55 205.73 243.005 206.156C243.459 206.578 243.821 207.136 244.091 207.832C244.361 208.528 244.496 209.385 244.496 210.403V211.114H236.087V209.665H242.792C242.792 209.049 242.668 208.5 242.422 208.017C242.181 207.534 241.835 207.153 241.385 206.873C240.94 206.594 240.415 206.454 239.809 206.454C239.141 206.454 238.563 206.62 238.076 206.952C237.593 207.278 237.221 207.704 236.961 208.23C236.7 208.756 236.57 209.319 236.57 209.92V210.886C236.57 211.71 236.712 212.408 236.996 212.981C237.285 213.55 237.685 213.983 238.196 214.281C238.708 214.575 239.302 214.721 239.979 214.721C240.419 214.721 240.817 214.66 241.172 214.537C241.532 214.409 241.842 214.22 242.103 213.969C242.363 213.713 242.564 213.396 242.706 213.017L244.326 213.471C244.155 214.021 243.869 214.504 243.466 214.92C243.064 215.332 242.567 215.654 241.975 215.886C241.383 216.114 240.718 216.227 239.979 216.227ZM248.722 209.437V216H247.046V205.091H248.665V206.795H248.807C249.063 206.241 249.451 205.796 249.972 205.46C250.493 205.119 251.165 204.949 251.989 204.949C252.728 204.949 253.374 205.1 253.928 205.403C254.482 205.702 254.913 206.156 255.221 206.767C255.528 207.373 255.682 208.14 255.682 209.068V216H254.006V209.182C254.006 208.325 253.783 207.657 253.338 207.179C252.893 206.696 252.283 206.454 251.506 206.454C250.971 206.454 250.493 206.57 250.071 206.802C249.655 207.034 249.326 207.373 249.084 207.818C248.843 208.263 248.722 208.803 248.722 209.437ZM263.489 205.091V206.511H257.836V205.091H263.489ZM259.484 202.477H261.16V212.875C261.16 213.348 261.228 213.703 261.366 213.94C261.508 214.172 261.688 214.328 261.906 214.409C262.128 214.485 262.362 214.523 262.609 214.523C262.793 214.523 262.945 214.513 263.063 214.494C263.182 214.471 263.276 214.452 263.347 214.437L263.688 215.943C263.575 215.986 263.416 216.028 263.212 216.071C263.009 216.118 262.751 216.142 262.438 216.142C261.965 216.142 261.501 216.04 261.046 215.837C260.596 215.633 260.222 215.323 259.924 214.906C259.63 214.489 259.484 213.964 259.484 213.329V202.477ZM271.863 216V201.454H280.641V203.017H273.624V207.932H280.187V209.494H273.624V214.437H280.755V216H271.863ZM284.839 205.091L287.452 209.551L290.066 205.091H291.998L288.475 210.545L291.998 216H290.066L287.452 211.767L284.839 216H282.907L286.373 210.545L282.907 205.091H284.839ZM294.39 216V205.091H296.066V216H294.39ZM295.242 203.273C294.915 203.273 294.633 203.161 294.397 202.939C294.165 202.716 294.049 202.449 294.049 202.136C294.049 201.824 294.165 201.556 294.397 201.334C294.633 201.111 294.915 201 295.242 201C295.569 201 295.848 201.111 296.08 201.334C296.317 201.556 296.435 201.824 296.435 202.136C296.435 202.449 296.317 202.716 296.08 202.939C295.848 203.161 295.569 203.273 295.242 203.273ZM303.88 205.091V206.511H298.227V205.091H303.88ZM299.874 202.477H301.55V212.875C301.55 213.348 301.619 213.703 301.756 213.94C301.898 214.172 302.078 214.328 302.296 214.409C302.519 214.485 302.753 214.523 302.999 214.523C303.184 214.523 303.335 214.513 303.454 214.494C303.572 214.471 303.667 214.452 303.738 214.437L304.079 215.943C303.965 215.986 303.807 216.028 303.603 216.071C303.399 216.118 303.141 216.142 302.829 216.142C302.355 216.142 301.891 216.04 301.437 215.837C300.987 215.633 300.613 215.323 300.315 214.906C300.021 214.489 299.874 213.964 299.874 213.329V202.477ZM313.933 207.534L312.428 207.96C312.333 207.709 312.193 207.465 312.009 207.229C311.829 206.987 311.582 206.788 311.27 206.632C310.957 206.476 310.557 206.398 310.07 206.398C309.402 206.398 308.846 206.551 308.401 206.859C307.96 207.162 307.74 207.548 307.74 208.017C307.74 208.434 307.892 208.763 308.195 209.004C308.498 209.246 308.971 209.447 309.615 209.608L311.234 210.006C312.21 210.242 312.937 210.605 313.415 211.092C313.893 211.575 314.132 212.198 314.132 212.96C314.132 213.585 313.952 214.144 313.592 214.636C313.237 215.129 312.74 215.517 312.101 215.801C311.462 216.085 310.718 216.227 309.871 216.227C308.758 216.227 307.837 215.986 307.108 215.503C306.379 215.02 305.917 214.314 305.723 213.386L307.314 212.989C307.465 213.576 307.752 214.016 308.173 214.31C308.599 214.603 309.156 214.75 309.842 214.75C310.624 214.75 311.244 214.584 311.703 214.253C312.167 213.917 312.399 213.514 312.399 213.045C312.399 212.667 312.267 212.349 312.001 212.094C311.736 211.833 311.329 211.639 310.78 211.511L308.962 211.085C307.963 210.848 307.229 210.481 306.76 209.984C306.296 209.482 306.064 208.855 306.064 208.102C306.064 207.487 306.237 206.942 306.582 206.469C306.933 205.995 307.409 205.623 308.01 205.354C308.616 205.084 309.303 204.949 310.07 204.949C311.149 204.949 311.997 205.185 312.612 205.659C313.232 206.132 313.673 206.757 313.933 207.534Z" fill="#24223E"/>
<defs>
<linearGradient id="paint0_linear_2125_7595" x1="573.826" y1="453.017" x2="140.666" y2="-102.075" gradientUnits="userSpaceOnUse">
<stop offset="0.4" stop-color="white" stop-opacity="0"/>
<stop offset="1" stop-color="#1C27FF"/>
</linearGradient>
<linearGradient id="paint1_linear_2125_7595" x1="390.931" y1="276.778" x2="590.441" y2="523.984" gradientUnits="userSpaceOnUse">
<stop stop-color="white" stop-opacity="0"/>
<stop offset="1" stop-color="#505DFD"/>
</linearGradient>
<linearGradient id="paint2_linear_2125_7595" x1="210.522" y1="167.701" x2="1.32023" y2="-121.451" gradientUnits="userSpaceOnUse">
<stop stop-opacity="0"/>
<stop offset="1" stop-color="#6634E6"/>
</linearGradient>
<linearGradient id="paint3_linear_2125_7595" x1="89.7998" y1="370.189" x2="89.7998" y2="416.996" gradientUnits="userSpaceOnUse">
<stop stop-color="#3E45FF"/>
<stop offset="1" stop-color="white" stop-opacity="0"/>
</linearGradient>
<linearGradient id="paint4_linear_2125_7595" x1="89.7998" y1="370.189" x2="89.7998" y2="416.996" gradientUnits="userSpaceOnUse">
<stop stop-color="#1C27FF"/>
<stop offset="1" stop-color="white" stop-opacity="0"/>
</linearGradient>
<linearGradient id="paint5_linear_2125_7595" x1="150.446" y1="359.851" x2="150.446" y2="416.996" gradientUnits="userSpaceOnUse">
<stop stop-color="#3E45FF"/>
<stop offset="1" stop-color="white" stop-opacity="0"/>
</linearGradient>
<linearGradient id="paint6_linear_2125_7595" x1="150.446" y1="359.851" x2="150.446" y2="416.996" gradientUnits="userSpaceOnUse">
<stop stop-color="#1C27FF"/>
<stop offset="1" stop-color="white" stop-opacity="0"/>
</linearGradient>
<linearGradient id="paint7_linear_2125_7595" x1="211.092" y1="341.244" x2="211.092" y2="416.996" gradientUnits="userSpaceOnUse">
<stop stop-color="#3E45FF"/>
<stop offset="1" stop-color="white" stop-opacity="0"/>
</linearGradient>
<linearGradient id="paint8_linear_2125_7595" x1="211.092" y1="341.244" x2="211.092" y2="416.996" gradientUnits="userSpaceOnUse">
<stop stop-color="#1C27FF"/>
<stop offset="1" stop-color="white" stop-opacity="0"/>
</linearGradient>
<linearGradient id="paint9_linear_2125_7595" x1="271.738" y1="312.299" x2="271.738" y2="416.996" gradientUnits="userSpaceOnUse">
<stop stop-color="#3E45FF"/>
<stop offset="1" stop-color="white" stop-opacity="0"/>
</linearGradient>
<linearGradient id="paint10_linear_2125_7595" x1="271.738" y1="312.299" x2="271.738" y2="416.996" gradientUnits="userSpaceOnUse">
<stop stop-color="#1C27FF"/>
<stop offset="1" stop-color="white" stop-opacity="0"/>
</linearGradient>
<linearGradient id="paint11_linear_2125_7595" x1="332.383" y1="290.935" x2="332.383" y2="375.013" gradientUnits="userSpaceOnUse">
<stop stop-color="#3E45FF"/>
<stop offset="1" stop-color="white" stop-opacity="0"/>
</linearGradient>
<linearGradient id="paint12_linear_2125_7595" x1="332.383" y1="290.935" x2="332.383" y2="375.013" gradientUnits="userSpaceOnUse">
<stop stop-color="#1C27FF"/>
<stop offset="1" stop-color="white" stop-opacity="0"/>
</linearGradient>
<linearGradient id="paint13_linear_2125_7595" x1="393.029" y1="261.991" x2="393.029" y2="416.996" gradientUnits="userSpaceOnUse">
<stop stop-color="#3E45FF"/>
<stop offset="1" stop-color="white" stop-opacity="0"/>
</linearGradient>
<linearGradient id="paint14_linear_2125_7595" x1="393.029" y1="261.991" x2="393.029" y2="416.996" gradientUnits="userSpaceOnUse">
<stop stop-color="#1C27FF"/>
<stop offset="1" stop-color="white" stop-opacity="0"/>
</linearGradient>
<linearGradient id="paint15_linear_2125_7595" x1="453.675" y1="222.709" x2="453.675" y2="416.996" gradientUnits="userSpaceOnUse">
<stop stop-color="#3E45FF"/>
<stop offset="1" stop-color="white" stop-opacity="0"/>
</linearGradient>
<linearGradient id="paint16_linear_2125_7595" x1="453.675" y1="222.709" x2="453.675" y2="416.996" gradientUnits="userSpaceOnUse">
<stop stop-color="#1C27FF"/>
<stop offset="1" stop-color="white" stop-opacity="0"/>
</linearGradient>
<linearGradient id="paint17_linear_2125_7595" x1="514.321" y1="174.468" x2="514.321" y2="416.996" gradientUnits="userSpaceOnUse">
<stop stop-color="#3E45FF"/>
<stop offset="1" stop-color="white" stop-opacity="0"/>
</linearGradient>
<linearGradient id="paint18_linear_2125_7595" x1="514.321" y1="174.468" x2="514.321" y2="416.996" gradientUnits="userSpaceOnUse">
<stop stop-color="#1C27FF"/>
<stop offset="1" stop-color="white" stop-opacity="0"/>
</linearGradient>
</defs>
</svg>
