<svg xmlns="http://www.w3.org/2000/svg" width="722" height="498" viewBox="0 0 722 498" fill="none"><path d="M36.793 0.5H685.732C705.339 0.5 721.232 16.3939 721.232 36V461.811C721.232 481.417 705.339 497.312 685.732 497.312H36.793C17.187 497.312 1.29323 481.417 1.29297 461.812V36L1.30469 35.084C1.79056 15.9012 17.4931 0.5 36.793 0.5Z" fill="url(#paint0_linear_225_1619)" fill-opacity="0.2"></path><path d="M36.793 0.5H685.732C705.339 0.5 721.232 16.3939 721.232 36V461.811C721.232 481.417 705.339 497.312 685.732 497.312H36.793C17.187 497.312 1.29323 481.417 1.29297 461.812V36L1.30469 35.084C1.79056 15.9012 17.4931 0.5 36.793 0.5Z" stroke="url(#paint1_linear_225_1619)"></path><path d="M36.793 0.5H685.732C705.339 0.5 721.232 16.3939 721.232 36V461.811C721.232 481.417 705.339 497.312 685.732 497.312H36.793C17.187 497.312 1.29323 481.417 1.29297 461.812V36L1.30469 35.084C1.79056 15.9012 17.4931 0.5 36.793 0.5Z" stroke="url(#paint2_linear_225_1619)" stroke-opacity="0.2"></path><defs><linearGradient id="paint0_linear_225_1619" x1="697.175" y1="516.696" x2="210.892" y2="-146.409" gradientUnits="userSpaceOnUse"><stop offset="0.4" stop-color="white" stop-opacity="0"></stop><stop offset="1" stop-color="#1C27FF"></stop></linearGradient><linearGradient id="paint1_linear_225_1619" x1="474.97" y1="315.472" x2="699.386" y2="611.357" gradientUnits="userSpaceOnUse"><stop stop-color="white" stop-opacity="0"></stop><stop offset="1" stop-color="#505DFD"></stop></linearGradient><linearGradient id="paint2_linear_225_1619" x1="255.784" y1="190.93" x2="21.9221" y2="-153.019" gradientUnits="userSpaceOnUse"><stop stop-opacity="0"></stop><stop offset="1" stop-color="#6634E6"></stop></linearGradient></defs></svg>