<svg width="242" height="242" viewBox="0 0 242 242" fill="none" xmlns="http://www.w3.org/2000/svg">
<path d="M92.4975 167.007L84.9535 189.626C88.2279 190.414 93.6302 187.617 96.3279 189.584L119.289 217.736C120.113 218.346 121.857 216.248 122.372 215.693C130.073 207.39 136.684 197.997 144.29 189.598C147.461 187.781 151.442 190.387 154.971 189.626L148.113 167C156.44 176.448 170.725 174.549 179.69 182.42C185.387 187.418 189.375 197.469 190 204.908C178.859 213.376 166.4 220.225 152.911 224.25C121.795 233.526 87.7885 229.124 60.3033 211.853C58.2646 210.571 51.9081 206.506 50.6382 205.032C49.9724 204.257 49.938 204.222 50.0479 203.173C50.4872 199.142 55.306 188.933 57.9008 185.567C64.9162 176.448 74.9521 176.818 84.7339 172.602L92.5044 167L92.4975 167.007Z" fill="#505DFD"/>
<path d="M34.1478 36.2376C93.68 -24.7753 196.704 -5.90101 231.22 71.5297C274.43 168.461 180.354 270.078 80.3222 234.868C-2.25252 205.803 -27.2485 99.1565 34.1478 36.2376ZM112.864 5.23917C25.2403 10.9572 -24.3527 110.187 23.7202 184.149C71.0433 256.977 180.065 253.061 222.044 177.069C266.492 96.6106 204.078 -0.719695 112.864 5.23228V5.23917Z" fill="#D6D8F3"/>
<path d="M113.018 5.26074C204.336 -0.703624 266.815 96.8293 222.323 177.455C180.296 253.606 71.1492 257.522 23.7717 184.55C-24.3495 110.427 25.3005 10.9976 113.018 5.26764V5.26074ZM110.27 8.70835C28.5852 15.1002 -17.6973 108.303 24.0403 178.758C72.0995 259.874 194.51 249.007 226.607 160.369C255.281 81.1978 193.442 2.19926 110.263 8.70835H110.27Z" fill="white"/>
<path d="M110.263 9.37422C192.957 2.90443 254.428 81.4191 225.928 160.119C194.018 248.222 72.3223 259.023 24.5436 178.397C-16.9572 108.374 29.062 15.7275 110.27 9.37422H110.263ZM152.599 65.6147C150.436 63.449 144.856 60.1936 141.892 59.5425C139.154 58.9394 136.586 59.611 134.156 59.0627C130.322 58.206 126.92 53.6552 120.998 53.0453C95.6948 50.4615 81.7904 67.1088 80.2432 91.0415C79.3738 104.427 83.5088 120.327 77.7923 132.451C75.3414 137.66 72.2059 140.346 67.2836 143.163C76.3547 152.073 90.2933 151.874 101.884 153.745C102.452 156.308 102.014 158.7 102.493 161.359C104.704 173.655 114.891 197.272 119.642 209.999C119.971 210.877 120.012 211.809 119.985 212.734C121.744 213.008 121.053 212.569 121.415 211.767C128.563 196.052 132.486 176.691 139.523 160.674L139.831 153.101C151.49 153.005 164.696 151.25 174.062 143.842C172.097 141.066 169.194 140.141 166.935 137.276C156.994 124.693 162.649 106.709 161.773 91.7269C161.28 83.2901 158.727 71.7487 152.599 65.6147ZM93.2781 166.808L85.5284 172.407C75.7728 176.629 65.7706 176.259 58.7671 185.367C56.1861 188.733 51.3802 198.938 50.9352 202.967C50.8188 204.009 50.8531 204.05 51.524 204.825C52.7905 206.291 59.13 210.362 61.1632 211.644C88.5749 228.908 122.497 233.315 153.524 224.035C166.976 220.012 179.402 213.166 190.513 204.701C189.89 197.265 185.912 187.225 180.23 182.222C171.289 174.354 157.042 176.252 148.738 166.808L155.577 189.425C152.058 190.186 148.088 187.581 144.925 189.397C137.339 197.793 130.747 207.182 123.065 215.482C122.552 216.037 120.813 218.134 119.991 217.524L97.0914 189.384C94.4009 187.417 89.013 190.22 85.7475 189.425L93.2713 166.815L93.2781 166.808Z" fill="#D6D8F3"/>
<path d="M152.493 65.8308C158.633 71.9635 161.192 83.5024 161.686 91.9374C162.564 106.916 156.897 124.896 166.858 137.477C169.122 140.341 172.031 141.259 174 144.041C164.608 151.441 151.382 153.202 139.699 153.298L139.39 160.87C132.337 176.883 128.406 196.24 121.244 211.952C120.881 212.754 121.574 213.192 119.811 212.918C119.838 211.993 119.797 211.061 119.468 210.184C114.7 197.46 104.492 173.848 102.282 161.555C101.802 158.896 102.241 156.505 101.672 153.942C90.0574 152.078 76.0899 152.27 67 143.362C71.9394 140.546 75.0746 137.86 77.5306 132.653C83.2589 120.531 79.1153 104.641 79.9865 91.2522C81.5438 67.3246 95.4702 50.6808 120.826 53.264C126.76 53.867 130.17 58.4168 134.011 59.2802C136.447 59.8215 139.019 59.15 141.763 59.7599C144.734 60.4177 150.318 63.6655 152.493 65.8308Z" fill="#505DFD"/>
</svg>
