<svg width="242" height="241" viewBox="0 0 242 241" fill="none" xmlns="http://www.w3.org/2000/svg">
<path d="M111.551 0.322404C215.284 -6.95526 280.194 110.551 217.181 193.493C158.164 271.174 34.9163 249.786 5.61718 157.036C-17.6997 83.2233 34.2768 5.74121 111.551 0.322404ZM116.364 5.12388C26.0186 9.16398 -26.1092 110.29 25.1797 185.536C70.8096 252.482 169.867 252.818 216.081 186.222C268.594 110.557 215.105 8.38202 124.402 4.92496L116.357 5.11702L116.364 5.12388Z" fill="#D6D8F3"/>
<path d="M116.477 5.19203L124.528 5C215.3 8.44971 268.83 110.61 216.277 186.271C170.02 252.858 70.8946 252.522 25.23 185.585C-26.1048 110.343 26.0627 9.23155 116.477 5.19203ZM113.036 8.62116C31.7948 14.3067 -17.159 102.614 21.982 174.406C61.5567 246.994 164.942 253.105 212.829 185.578C267.701 108.203 207.434 2.01665 113.036 8.62116Z" fill="white"/>
<path d="M112.574 8.29448C206.782 1.67238 266.928 108.142 212.166 185.723C164.375 253.423 61.2047 247.296 21.7027 174.521C-17.3597 102.537 31.4958 13.9951 112.574 8.29448ZM162.329 91.8307C161.567 90.5379 162.988 81.9285 162.871 79.2329C160.784 28.7659 81.821 28.8622 78.346 77.1768C78.0507 81.2683 79.3487 87.2372 79.0671 90.256C78.9229 91.7895 77.1236 92.5184 76.4162 93.8043C73.3259 99.3812 75.1045 112.172 81.1205 115.046C81.8759 115.404 83.3456 115.135 83.7507 115.479C84.0735 115.754 85.6599 122.156 86.2849 123.6C102.739 161.435 138.457 160.294 154.939 122.913C155.702 121.187 156.54 116.779 157.281 115.782C157.755 115.142 159.362 115.403 160.475 114.716C166.168 111.202 167.734 99.113 164.389 93.5223C163.723 92.4083 162.501 92.1195 162.329 91.8307ZM131.947 159.379C126.604 158.966 121.165 158.279 115.774 158.664C114.497 158.753 108.852 159.331 108.632 160.459C109.119 165.093 114.861 166.764 115.492 171.379C116.536 179.039 114.002 193.452 112.388 201.34C111.928 203.588 111.784 206.366 110.307 208.196L93.8666 162.315C75.7501 167.081 47.0576 169.02 39.5926 189.65C39.1119 190.984 38.2466 192.476 38.6449 193.954C38.8715 194.793 46.5082 202.199 47.8336 203.375C88.3245 239.209 149.061 239.614 190.644 205.438C193.061 203.451 202.586 195.426 202.511 192.854C202.483 192.036 201.371 189.251 200.959 188.274C192.814 168.979 164.945 167.019 147.365 162.336C145.043 162.687 133.733 201.216 131.322 206.559C130.958 207.37 131.645 207.797 129.887 207.522C128.527 199.627 126.686 191.692 125.849 183.708C125.43 179.761 124.187 172.816 125.855 169.453C127.675 165.788 132.867 164.248 131.947 159.386V159.379Z" fill="#D6D8F3"/>
<path d="M162.208 91.9903C162.379 92.2809 163.599 92.5715 164.263 93.6925C167.6 99.3182 166.038 111.49 160.358 115.019C159.247 115.711 157.644 115.448 157.171 116.091C156.431 117.095 155.595 121.537 154.835 123.267C138.39 160.882 102.752 162.031 86.3349 123.959C85.7046 122.506 84.1286 116.064 83.8066 115.787C83.4023 115.441 81.9359 115.711 81.1822 115.351C75.1798 112.459 73.4052 99.5881 76.4886 93.9762C77.2012 92.6823 78.9896 91.9488 79.1335 90.4057C79.4144 87.368 78.1262 81.3617 78.414 77.2445C81.8743 28.627 160.659 28.5301 162.749 79.3135C162.859 82.026 161.447 90.6894 162.208 91.9903Z" fill="#505DFD"/>
<path d="M132.422 159.834C133.342 164.688 128.15 166.219 126.329 169.885C124.66 173.242 125.904 180.183 126.323 184.117C127.167 192.088 129.008 200.011 130.361 207.893C132.12 208.167 131.426 207.742 131.797 206.932C134.208 201.597 145.514 163.136 147.843 162.779C165.427 167.455 193.301 169.411 201.447 188.676C201.859 189.658 202.972 192.438 202.999 193.248C203.082 195.816 193.555 203.828 191.13 205.812C149.539 239.934 88.7911 239.522 48.2924 203.753C46.9667 202.579 39.3286 195.185 39.1019 194.347C38.7035 192.871 39.569 191.381 40.0498 190.049C47.5231 169.459 76.2143 167.516 94.3343 162.759L110.778 208.566C112.255 206.739 112.399 203.959 112.86 201.721C114.474 193.853 117.008 179.456 115.964 171.807C115.339 167.201 109.59 165.532 109.102 160.905C109.329 159.779 114.968 159.202 116.246 159.113C121.638 158.729 127.071 159.415 132.422 159.827V159.834Z" fill="#505DFD"/>
</svg>
