<svg width="232" height="34" viewBox="0 0 232 34" fill="none" xmlns="http://www.w3.org/2000/svg">
<path fill-rule="evenodd" clip-rule="evenodd" d="M3.68283 27.3062C5.50531 27.3062 6.98272 28.7837 6.98272 30.6063C6.98272 32.4287 5.50531 33.9062 3.68283 33.9062C1.86022 33.9062 0.382812 32.4287 0.382812 30.6063C0.382812 28.7837 1.86022 27.3062 3.68283 27.3062Z" fill="white"/>
<path fill-rule="evenodd" clip-rule="evenodd" d="M16.882 27.3064C18.7044 27.3064 20.1819 28.7839 20.1819 30.6063C20.1819 32.4288 18.7044 33.9062 16.882 33.9062C15.0595 33.9062 13.582 32.4288 13.582 30.6063C13.582 28.7839 15.0595 27.3064 16.882 27.3064Z" fill="#252525"/>
<path fill-rule="evenodd" clip-rule="evenodd" d="M30.0812 27.3063C31.9037 27.3063 33.3812 28.7838 33.3812 30.6063C33.3812 32.4288 31.9037 33.9062 30.0812 33.9062C28.2587 33.9062 26.7812 32.4288 26.7812 30.6063C26.7812 28.7838 28.2587 27.3063 30.0812 27.3063Z" fill="#252525"/>
<path fill-rule="evenodd" clip-rule="evenodd" d="M3.68283 14.1051C5.50531 14.1051 6.98272 15.5826 6.98272 17.4051C6.98272 19.2276 5.50531 20.7051 3.68283 20.7051C1.86022 20.7051 0.382812 19.2276 0.382812 17.4051C0.382812 15.5826 1.86022 14.1051 3.68283 14.1051Z" fill="#252525"/>
<path fill-rule="evenodd" clip-rule="evenodd" d="M16.882 14.1052C18.7044 14.1052 20.1819 15.5827 20.1819 17.4051C20.1819 19.2276 18.7044 20.7051 16.882 20.7051C15.0595 20.7051 13.582 19.2276 13.582 17.4051C13.582 15.5827 15.0595 14.1052 16.882 14.1052Z" fill="#252525"/>
<path fill-rule="evenodd" clip-rule="evenodd" d="M30.0812 14.1052C31.9037 14.1052 33.3812 15.5827 33.3812 17.4051C33.3812 19.2276 31.9037 20.7051 30.0812 20.7051C28.2587 20.7051 26.7812 19.2276 26.7812 17.4051C26.7812 15.5827 28.2587 14.1052 30.0812 14.1052Z" fill="white"/>
<path fill-rule="evenodd" clip-rule="evenodd" d="M3.68283 0.907777C5.50531 0.907777 6.98272 2.38531 6.98272 4.20779C6.98272 6.03028 5.50531 7.50781 3.68283 7.50781C1.86022 7.50781 0.382812 6.03028 0.382812 4.20779C0.382812 2.38531 1.86022 0.907777 3.68283 0.907777Z" fill="white"/>
<path fill-rule="evenodd" clip-rule="evenodd" d="M16.882 0.907907C18.7044 0.907907 20.1819 2.38541 20.1819 4.20786C20.1819 6.03031 18.7044 7.50781 16.882 7.50781C15.0595 7.50781 13.582 6.03031 13.582 4.20786C13.582 2.38541 15.0595 0.907907 16.882 0.907907Z" fill="#252525"/>
<path fill-rule="evenodd" clip-rule="evenodd" d="M30.0812 0.907876C31.9037 0.907876 33.3812 2.38539 33.3812 4.20784C33.3812 6.0303 31.9037 7.50781 30.0812 7.50781C28.2587 7.50781 26.7812 6.0303 26.7812 4.20784C26.7812 2.38539 28.2587 0.907876 30.0812 0.907876Z" fill="#252525"/>
<path d="M16.882 27.3063C15.0595 27.3063 13.582 28.7838 13.582 30.6063C13.582 32.4288 15.0595 33.9062 16.882 33.9062H30.0818C31.9043 33.9062 33.3817 32.4288 33.3817 30.6063C33.3817 28.7838 31.9043 27.3063 30.0818 27.3063H16.882Z" fill="#505CFD"/>
<path d="M3.68276 14.1052C1.86025 14.1052 0.382812 15.5826 0.382812 17.4051C0.382812 19.2276 1.86025 20.7051 3.68276 20.7051H16.8825C18.7051 20.7051 20.1825 19.2276 20.1825 17.4051V7.50534L30.0824 7.50529C31.9049 7.50528 33.3823 6.02783 33.3823 4.20532C33.3823 2.38281 31.9048 0.905384 30.0823 0.905384H16.8825C15.06 0.905384 13.5826 2.38289 13.5826 4.2054V14.1052H3.68276Z" fill="#505CFD"/>
<path d="M51.9252 28.4059H50.0529C49.3352 28.4059 48.8047 27.8639 48.8047 27.1306V7.71348C48.8047 6.94827 49.3352 6.40625 50.0529 6.40625H51.9252C52.6741 6.40625 53.2046 6.94827 53.2046 7.71348V27.1306C53.2046 27.8639 52.6741 28.4059 51.9252 28.4059ZM68.9466 24.2888L65.6862 12.5033C65.2067 10.8376 65.0788 10.3348 64.5034 10.3348C63.96 10.3348 63.8641 10.6805 63.9281 12.3462L64.3116 26.9917C64.3116 27.7145 63.7682 28.2488 63.033 28.2488H61.0831C60.3479 28.2488 59.8045 27.7145 59.8045 26.9917V10.5862C59.8045 7.47481 61.1471 6.40625 64.1838 6.40625C67.1566 6.40625 68.3712 7.09767 69.3302 10.5233L72.5587 22.3089C73.0382 23.9431 73.166 24.4774 73.7414 24.4774C74.2848 24.4774 74.3807 24.1317 74.3488 22.4974L73.9971 7.85194C73.9652 7.09767 74.5086 6.56339 75.2758 6.56339H77.1937C77.9608 6.56339 78.5043 7.09767 78.5043 7.85194V24.226C78.5043 27.3374 77.1297 28.4059 74.125 28.4059C71.1203 28.4059 69.8736 27.7145 68.9466 24.2888ZM85.1042 27.1306V7.71348C85.1042 6.94827 85.6494 6.40625 86.3872 6.40625H95.0795C101.238 6.40625 103.804 8.4468 103.804 16.2902V18.4264C103.804 26.3654 101.238 28.4059 95.0795 28.4059H86.3872C85.6494 28.4059 85.1042 27.8639 85.1042 27.1306ZM90.0922 9.7062C89.6348 9.7062 89.5041 9.8362 89.5041 10.2912V23.421C89.5041 23.876 89.6348 24.006 90.0922 24.006H95.0258C98.5871 24.006 99.404 22.901 99.404 17.7661V15.8811C99.404 10.8112 98.5871 9.7062 95.0258 9.7062H90.0922ZM109.304 19.7017V15.0786C109.304 8.00043 111.467 6.40625 116.569 6.40625H124.48C125.287 6.40625 125.804 6.94827 125.804 7.71348V9.08447C125.804 9.84968 125.287 10.3917 124.48 10.3917H117.86C114.47 10.3917 113.857 11.0294 113.857 14.6003V14.6641C113.857 15.1105 113.986 15.238 114.438 15.238H123.188C123.995 15.238 124.512 15.78 124.512 16.5452V17.8525C124.512 18.6177 123.995 19.1597 123.188 19.1597H114.438C114.018 19.1597 113.857 19.3191 113.857 19.7336V20.1481C113.857 23.7828 114.438 24.4205 117.86 24.4205H124.48C125.255 24.4205 125.804 24.9625 125.804 25.7277V27.1306C125.804 27.8639 125.255 28.4059 124.48 28.4059H116.569C111.467 28.4059 109.304 26.8118 109.304 19.7017ZM132.395 28.4059H130.215C129.236 28.4059 128.731 27.3842 129.426 26.4263L135.617 17.8691C136.028 17.2943 135.996 16.9431 135.617 16.4003L129.868 8.29011C129.173 7.23643 129.71 6.40625 130.626 6.40625H132.837C133.816 6.40625 134.227 6.82134 134.954 8.00274L138.523 13.2712C138.902 13.9098 139.218 13.9417 139.629 13.2712L143.103 8.00274C143.861 6.82134 144.24 6.40625 145.251 6.40625H147.399C148.315 6.40625 148.821 7.26836 148.094 8.29011L142.314 16.3684C141.871 17.007 141.903 17.1347 142.345 17.7414L148.568 26.4263C149.295 27.4161 148.758 28.4059 147.747 28.4059H145.567C144.556 28.4059 144.019 27.927 143.293 26.8094L139.471 21.0621C139.028 20.3596 138.776 20.3596 138.365 21.094L134.638 26.8094C133.974 27.8951 133.374 28.4059 132.395 28.4059ZM163.545 24.2888L160.285 12.5033C159.805 10.8376 159.677 10.3348 159.102 10.3348C158.559 10.3348 158.463 10.6805 158.527 12.3462L158.91 26.9917C158.91 27.7145 158.367 28.2488 157.632 28.2488H155.682C154.947 28.2488 154.403 27.7145 154.403 26.9917V10.5862C154.403 7.47481 155.746 6.40625 158.782 6.40625C161.755 6.40625 162.97 7.09767 163.929 10.5233L167.157 22.3089C167.637 23.9431 167.765 24.4774 168.34 24.4774C168.883 24.4774 168.979 24.1317 168.947 22.4974L168.596 7.85194C168.564 7.09767 169.107 6.56339 169.874 6.56339H171.792C172.559 6.56339 173.103 7.09767 173.103 7.85194V24.226C173.103 27.3374 171.728 28.4059 168.724 28.4059C165.719 28.4059 164.472 27.7145 163.545 24.2888ZM182.823 28.4059H180.951C180.233 28.4059 179.703 27.8639 179.703 27.1306V7.71348C179.703 6.94827 180.233 6.40625 180.951 6.40625H182.823C183.572 6.40625 184.103 6.94827 184.103 7.71348V27.1306C184.103 27.8639 183.572 28.4059 182.823 28.4059ZM199.845 24.2888L196.584 12.5033C196.105 10.8376 195.977 10.3348 195.402 10.3348C194.858 10.3348 194.762 10.6805 194.826 12.3462L195.21 26.9917C195.21 27.7145 194.666 28.2488 193.931 28.2488H191.981C191.246 28.2488 190.703 27.7145 190.703 26.9917V10.5862C190.703 7.47481 192.045 6.40625 195.082 6.40625C198.055 6.40625 199.269 7.09767 200.228 10.5233L203.457 22.3089C203.936 23.9431 204.064 24.4774 204.64 24.4774C205.183 24.4774 205.279 24.1317 205.247 22.4974L204.895 7.85194C204.863 7.09767 205.407 6.56339 206.174 6.56339H208.092C208.859 6.56339 209.402 7.09767 209.402 7.85194V24.226C209.402 27.3374 208.028 28.4059 205.023 28.4059C202.018 28.4059 200.772 27.7145 199.845 24.2888ZM214.902 19.7017V15.0786C214.902 8.00043 217.066 6.40625 222.167 6.40625H230.078C230.885 6.40625 231.402 6.94827 231.402 7.71348V9.08447C231.402 9.84968 230.885 10.3917 230.078 10.3917H223.459C220.069 10.3917 219.455 11.0294 219.455 14.6003V14.6641C219.455 15.1105 219.584 15.238 220.036 15.238H228.787C229.594 15.238 230.11 15.78 230.11 16.5452V17.8525C230.11 18.6177 229.594 19.1597 228.787 19.1597H220.036C219.616 19.1597 219.455 19.3191 219.455 19.7336V20.1481C219.455 23.7828 220.036 24.4205 223.459 24.4205H230.078C230.853 24.4205 231.402 24.9625 231.402 25.7277V27.1306C231.402 27.8639 230.853 28.4059 230.078 28.4059H222.167C217.066 28.4059 214.902 26.8118 214.902 19.7017Z" fill="white"/>
</svg>
