<svg width="106" height="42" viewBox="0 0 106 42" fill="none" xmlns="http://www.w3.org/2000/svg">
<g clip-path="url(#clip0_317_702)">
<path d="M100.213 0H5.478C2.45258 0 0 2.45258 0 5.478V36.522C0 39.5474 2.45258 42 5.478 42H100.213C103.238 42 105.691 39.5474 105.691 36.522V5.478C105.691 2.45258 103.238 0 100.213 0Z" fill="#404979"/>
<path d="M53.84 16.2258C54.588 15.5958 55.146 15.0148 55.146 14.2198C55.146 13.2698 54.517 12.7478 53.568 12.7478C52.618 12.7478 51.978 13.3878 51.978 14.4208V14.5638H50.66V14.3498C50.66 12.7708 51.8 11.6198 53.568 11.6198C55.431 11.6198 56.476 12.6398 56.476 14.1598C56.476 15.3948 55.728 16.1658 54.719 17.0088L52.511 18.8488H56.535V19.9998H50.648V18.9438L53.84 16.2258ZM57.068 11.6908H63.027V12.5698L59.134 19.9998H57.72L61.59 12.8428H57.067V11.6898L57.068 11.6908ZM63.536 15.6558C63.536 13.2458 64.877 11.6198 66.812 11.6198C68.747 11.6198 70.088 13.2458 70.088 15.6558V16.0358C70.088 18.5398 68.747 20.0708 66.812 20.0708C64.877 20.0708 63.536 18.5398 63.536 16.0358V15.6558ZM64.866 15.9878C64.866 17.8518 65.649 18.9198 66.812 18.9198C67.975 18.9198 68.759 17.8518 68.759 15.9878V15.7028C68.759 13.8518 67.975 12.7708 66.812 12.7708C65.649 12.7708 64.866 13.8508 64.866 15.7028V15.9878ZM71.131 15.6558C71.131 13.2458 72.473 11.6198 74.407 11.6198C76.342 11.6198 77.683 13.2458 77.683 15.6558V16.0358C77.683 18.5398 76.342 20.0708 74.407 20.0708C72.473 20.0708 71.131 18.5398 71.131 16.0358V15.6558ZM72.461 15.9878C72.461 17.8518 73.244 18.9198 74.407 18.9198C75.57 18.9198 76.354 17.8518 76.354 15.9878V15.7028C76.354 13.8518 75.57 12.7708 74.407 12.7708C73.244 12.7708 72.461 13.8508 72.461 15.7028V15.9878ZM80.234 11.6908H81.528V19.9998H80.21V14.3028C80.091 14.3728 79.913 14.4088 79.688 14.4088H78.335V13.2818H79.629C80.056 13.2818 80.234 12.9728 80.234 12.5338V11.6908ZM54.754 32.0708C52.334 32.0708 50.826 30.3978 50.826 27.8458C50.826 25.3168 52.381 23.6198 54.838 23.6198C56.737 23.6198 58.102 24.7598 58.375 26.5158H56.962C56.689 25.4718 55.906 24.8188 54.778 24.8188C53.2 24.8188 52.227 26.0648 52.227 27.8458C52.227 29.6138 53.177 30.8718 54.743 30.8718C55.894 30.8718 56.69 30.2318 56.951 29.1748H58.363C58.102 30.9318 56.689 32.0708 54.754 32.0708ZM62.364 32.0708C60.454 32.0708 59.254 30.8368 59.254 28.9728C59.254 27.0978 60.454 25.8518 62.246 25.8518C64.003 25.8518 65.178 26.9668 65.213 28.7478C65.213 28.9018 65.201 29.0678 65.178 29.2338H60.596V29.3168C60.632 30.3498 61.285 31.0268 62.293 31.0268C63.077 31.0268 63.647 30.6348 63.825 29.9578H65.106C64.893 31.1578 63.872 32.0708 62.365 32.0708H62.364ZM60.644 28.2968H63.884C63.777 27.3948 63.148 26.8838 62.258 26.8838C61.438 26.8838 60.738 27.4298 60.644 28.2968ZM66.368 25.9228H67.508L67.65 26.8368C67.959 26.3268 68.445 25.9228 69.443 25.9228H69.727V27.1218H69.157C68.018 27.1218 67.65 28.0118 67.65 28.9498V31.9998H66.368V25.9228ZM71.296 30.3498V27.0498H70.24V25.9228H71.296V24.2248H72.59V25.9228H74.074V27.0498H72.59V30.2198C72.59 30.6938 72.756 30.8718 73.243 30.8718H74.145V31.9998H72.958C71.795 31.9998 71.296 31.4538 71.296 30.3498ZM75.079 25.9228H76.361V31.9998H75.079V25.9228ZM74.949 24.2968C74.949 23.8458 75.293 23.5248 75.732 23.5248C76.171 23.5248 76.515 23.8448 76.515 24.2968C76.515 24.7468 76.171 25.0678 75.732 25.0678C75.292 25.0678 74.949 24.7478 74.949 24.2968ZM78.174 31.9998V27.0498H77.12V25.9228H78.176V25.3168C78.176 24.2488 78.699 23.6908 79.874 23.6908H80.954V24.8188H80.052C79.636 24.8188 79.47 24.9968 79.47 25.4118V25.9218H82.984V31.9998H81.7V27.0498H79.468V31.9998H78.174ZM81.569 24.2968C81.569 23.8458 81.913 23.5248 82.353 23.5248C82.792 23.5248 83.136 23.8448 83.136 24.2968C83.136 24.7468 82.792 25.0678 82.352 25.0678C81.913 25.0678 81.569 24.7478 81.569 24.2968ZM87.241 32.0708C85.33 32.0708 84.131 30.8368 84.131 28.9728C84.131 27.0978 85.33 25.8518 87.122 25.8518C88.879 25.8518 90.054 26.9668 90.09 28.7478C90.09 28.9018 90.078 29.0678 90.054 29.2338H85.472V29.3168C85.508 30.3498 86.161 31.0268 87.17 31.0268C87.953 31.0268 88.523 30.6348 88.701 29.9578H89.983C89.769 31.1578 88.748 32.0708 87.241 32.0708ZM85.52 28.2968H88.76C88.654 27.3948 88.024 26.8838 87.134 26.8838C86.315 26.8838 85.614 27.4298 85.52 28.2968ZM95.862 23.6908H97.144V31.9998H96.028L95.874 31.0858C95.482 31.6198 94.854 32.0708 93.892 32.0708C92.242 32.0708 91.019 30.9078 91.019 28.9608C91.019 27.0858 92.242 25.8508 93.892 25.8508C94.817 25.8508 95.47 26.2308 95.862 26.7658V23.6908ZM92.337 28.9608C92.337 30.1608 93.037 30.9908 94.105 30.9908C95.174 30.9908 95.874 30.1608 95.874 28.9848C95.874 27.7748 95.174 26.9438 94.105 26.9438C93.037 26.9438 92.337 27.7738 92.337 28.9608ZM42.537 17.9068C42.197 17.0078 41.497 16.2068 40.647 15.6278C38.189 14.0598 34.444 13.9478 31.913 15.3658C30.532 16.0728 29.624 17.4728 29.342 18.9148C28.829 21.2828 28.962 24.1008 30.778 25.8758C32.895 27.7408 35.977 28.1528 38.718 27.3868C38.848 27.3618 39.26 27.2568 39.545 27.1058L39.625 27.0708C40.5163 26.7031 41.2978 26.1117 41.894 25.3538C43.293 23.2988 43.389 20.2198 42.537 17.9068ZM38.075 23.2248C37.979 23.6748 37.678 24.1388 37.204 24.3078C36.449 24.6418 35.428 24.5488 34.728 24.1588C34.142 23.7468 34.066 23.0568 33.991 22.4038C33.934 21.1168 33.841 19.7538 34.2 18.5778C34.481 17.8488 35.257 17.6618 35.958 17.6078C36.695 17.6078 37.412 17.7198 37.868 18.3168C38.15 18.7448 38.133 19.3058 38.189 19.8098C38.169 20.8728 38.264 22.1408 38.075 23.2248ZM15.672 24.3838C15.047 24.3458 14.348 24.4008 13.744 24.3258L13.762 17.7728L13.801 17.7188L15.671 17.6998C15.691 16.6368 15.71 15.4958 15.652 14.5268L8.52595 14.5068L7.35295 14.5268C7.33429 15.578 7.33429 16.6295 7.35295 17.6808C7.99595 17.7008 8.59995 17.6808 9.22395 17.7388V24.0848L9.20595 24.3458L7.33395 24.3838C7.29493 25.4101 7.29493 26.4375 7.33395 27.4638H15.671V24.3838H15.672ZM36.656 28.8628C35.863 30.0028 34.861 31.1028 33.766 31.9598C33.726 32.0188 33.614 31.9968 33.578 31.9428C33.103 31.6448 32.593 31.4008 32.138 31.1028C32.744 30.3758 33.331 29.6488 33.784 28.8428H33.196C32.726 29.5358 32.234 30.2628 31.61 30.8778C30.778 30.5418 30.022 30.2438 29.171 30.0178L29.076 29.9468C29.209 29.5698 29.454 29.2158 29.529 28.8418H29.019L28.509 29.8508C27.395 29.6078 26.165 29.4758 25.031 29.4018C24.973 29.2348 25.049 28.9918 24.973 28.8418H24.482C24.442 29.0668 24.539 29.2358 24.425 29.4218C23.2819 29.4694 22.1444 29.6072 21.023 29.8338L20.511 28.8418C20.324 28.8418 20.114 28.8058 19.983 28.8618L20.455 29.9638L20.398 30.0178C19.551 30.2638 18.718 30.5578 17.903 30.8968L17.828 30.8578C17.2939 30.2823 16.8064 29.6654 16.37 29.0128C16.276 28.6928 15.898 28.8798 15.69 28.8428C16.142 29.6648 16.749 30.3928 17.353 31.1398C16.843 31.4398 16.334 31.7738 15.803 32.0188C14.6455 31.1331 13.6371 30.068 12.816 28.8638C12.589 28.8268 12.439 28.8438 12.211 28.8638C13.572 30.9918 15.69 32.8578 17.902 33.9588C17.902 33.9588 17.902 33.9428 17.922 33.9428C17.939 33.9428 17.976 33.9768 17.939 33.9968C19.433 34.7248 21.022 35.2468 22.703 35.4718C28.508 36.2368 34.048 33.7548 37.26 28.8638C37.06 28.8428 36.857 28.8428 36.656 28.8628ZM28.774 30.5428L28.83 30.5048C29.645 30.6918 30.418 30.9528 31.137 31.3068C30.532 31.9968 29.757 32.5948 29.039 33.0978C28.605 33.3578 28.169 33.6418 27.714 33.8638L26.903 33.5098L26.958 33.3798C27.6338 32.4812 28.2409 31.5328 28.774 30.5428ZM25.048 29.9828C26.127 30.0028 27.205 30.1138 28.205 30.3558L28.225 30.4128C27.697 31.4188 27.034 32.3928 26.316 33.3048C25.993 33.3428 25.692 33.2148 25.371 33.1948L25.048 33.1558C25.011 32.0538 24.991 31.0848 25.048 29.9828ZM21.401 30.3178C22.384 30.1308 23.405 29.9818 24.463 29.9818L24.483 33.1398C24.084 33.2298 23.65 33.2298 23.271 33.3258C22.514 32.4202 21.8557 31.4367 21.307 30.3918L21.401 30.3178ZM18.356 31.3278C19.095 30.9708 19.869 30.7078 20.662 30.5048L20.739 30.5248C21.285 31.5508 21.967 32.5208 22.647 33.4918C22.385 33.6418 22.062 33.7318 21.797 33.8838C20.5182 33.2485 19.3553 32.4027 18.357 31.3818L18.356 31.3278ZM20.796 34.5178C19.207 34.1068 17.732 33.3978 16.371 32.4278V32.3708C16.824 32.0928 17.28 31.7938 17.77 31.5858C18.848 32.6528 19.963 33.4558 21.173 34.2188C21.0646 34.3388 20.9373 34.4392 20.796 34.5178ZM27.809 34.7598C25.805 35.1918 23.573 35.2088 21.57 34.7238C21.532 34.6308 21.665 34.6108 21.721 34.5568C23.48 33.4168 26.22 33.4168 27.942 34.6468C27.998 34.7598 27.847 34.7238 27.809 34.7598ZM29.625 34.2398L28.736 34.5178C28.584 34.4438 28.453 34.3318 28.319 34.2188L28.357 34.1618C29.567 33.4558 30.663 32.5938 31.704 31.5678C32.214 31.7728 32.706 32.0538 33.161 32.3698C32.101 33.2138 30.873 33.7718 29.625 34.2398ZM12.779 13.0878C13.247 12.4378 13.759 11.8198 14.31 11.2398C14.8 10.7738 15.256 10.3258 15.786 9.98779C16.278 10.3048 16.826 10.5698 17.298 10.8678C16.712 11.5908 16.107 12.3228 15.672 13.1048C15.804 13.1628 16.05 13.1448 16.24 13.1048C16.712 12.4148 17.22 11.7248 17.828 11.1078C18.639 11.4078 19.434 11.7238 20.268 11.9488L20.341 12.0228L19.87 13.1048C20.078 13.1448 20.21 13.1248 20.417 13.1048C20.587 12.7888 20.718 12.4348 20.907 12.1158C22.006 12.3598 23.159 12.4898 24.331 12.5258C24.481 12.6588 24.369 12.9378 24.426 13.1048H24.936C24.991 12.9208 24.916 12.7128 24.991 12.5468C26.089 12.4888 27.241 12.3768 28.304 12.1158L28.396 12.1358L28.906 13.1038C29.077 13.1038 29.303 13.1438 29.436 13.0648L28.962 11.9848L29.002 11.9478C29.87 11.7238 30.684 11.3878 31.516 11.0528C32.103 11.6688 32.65 12.3958 33.143 13.1028C33.35 13.1028 33.558 13.1228 33.71 13.0648C33.4764 12.6483 33.2038 12.2548 32.896 11.8898C32.6464 11.5325 32.3677 11.1963 32.063 10.8848V10.7878L33.387 10.0238L33.577 9.94879C34.7291 10.825 35.7366 11.8764 36.563 13.0648C36.79 13.0648 36.98 13.1428 37.169 13.0488C34.633 9.24378 30.456 6.79578 25.939 6.44378L25.919 6.47979L25.881 6.44378C25.3217 6.38123 24.7576 6.37386 24.197 6.42179C23.9637 6.41073 23.73 6.41808 23.498 6.44378C18.962 6.79578 14.784 9.13078 12.174 13.1058C12.363 13.0878 12.59 13.1628 12.779 13.0878ZM20.626 11.4478L20.551 11.4638C19.7813 11.2687 19.0282 11.0129 18.299 10.6988L18.336 10.5868C19.376 9.59778 20.472 8.77678 21.682 8.14278C21.967 8.25478 22.25 8.34678 22.534 8.47978L22.478 8.62579C21.758 9.52379 21.193 10.4918 20.626 11.4468V11.4478ZM24.387 11.9498C23.859 12.0238 23.387 11.9328 22.855 11.8918C22.347 11.8168 21.703 11.7618 21.193 11.5918C21.7433 10.5502 22.4023 9.56969 23.159 8.66679L24.369 8.83279C24.425 9.80179 24.387 10.9228 24.387 11.9498ZM24.973 11.9698C24.936 10.9768 24.955 9.87779 24.973 8.84979C25.353 8.79579 25.767 8.73778 26.146 8.68278C26.883 9.61478 27.603 10.5708 28.095 11.5928C27.073 11.8408 26.025 11.9678 24.973 11.9698ZM31.006 10.6608C30.267 10.9768 29.51 11.2758 28.698 11.4468C28.1037 10.4333 27.4534 9.45378 26.75 8.51278C27.015 8.36678 27.338 8.25479 27.62 8.10579C28.8861 8.75086 30.0413 9.59378 31.042 10.6028L31.006 10.6608ZM28.584 7.46978C30.1806 7.888 31.6867 8.59646 33.027 9.55979L32.99 9.63479L31.686 10.3618H31.59C30.5837 9.36261 29.4527 8.49746 28.225 7.78779C28.263 7.65679 28.452 7.56278 28.584 7.46978ZM27.829 7.28179V7.32179C26.183 8.51279 23.518 8.62579 21.779 7.52379C21.682 7.44979 21.495 7.41379 21.475 7.28279C23.48 6.81779 25.842 6.77979 27.829 7.28179ZM16.295 9.59979C17.484 8.73246 18.8063 8.0644 20.21 7.62179C20.267 7.56379 20.304 7.50879 20.378 7.50879V7.54679C20.529 7.58379 20.643 7.41479 20.775 7.52479C20.889 7.62179 21.023 7.69479 21.116 7.78879C19.8936 8.53679 18.7586 9.41892 17.732 10.4188C17.222 10.2358 16.751 9.95379 16.295 9.63679V9.59979ZM24.407 24.5298C22.63 25.0168 20.7 24.6458 19.415 23.2998C19.265 23.1138 19.169 22.8908 19.017 22.7048L16.466 22.7228C16.426 24.2348 16.408 25.9708 16.466 27.4648L19.301 27.4468L19.338 26.5498C19.661 26.6998 19.983 26.8848 20.304 27.0528C22.27 27.8748 24.801 28.0618 26.749 27.0528C28.168 26.2708 28.924 24.7598 28.716 23.1328C28.509 21.5478 26.996 20.1088 25.466 19.7188L20.889 18.3918L20.551 18.2228C20.399 18.0928 20.304 17.9268 20.341 17.7198C20.701 17.1048 21.533 17.2918 22.157 17.3078C23.48 17.4958 24.841 17.9428 25.617 19.1578C26.447 19.1578 27.411 19.1738 28.318 19.1378C28.357 17.6078 28.303 16.2648 28.281 14.7148C27.431 14.6948 26.39 14.6948 25.541 14.7348C25.502 14.9558 25.577 15.2718 25.482 15.4968L24.613 15.0308C22.533 14.1538 19.621 14.0618 17.731 15.4248C16.501 16.3188 16.125 17.9258 16.446 19.3448C16.691 20.6848 17.976 21.6758 19.206 22.1408C20.888 22.7378 22.646 23.1708 24.35 23.7478C24.519 23.8238 24.745 23.9928 24.709 24.1978C24.709 24.3638 24.539 24.4588 24.407 24.5298Z" fill="white"/>
</g>
<defs>
<clipPath id="clip0_317_702">
<rect width="106" height="42" fill="white"/>
</clipPath>
</defs>
</svg>
