<svg width="48" height="48" viewBox="0 0 48 48" fill="none" xmlns="http://www.w3.org/2000/svg">
<path d="M36 0C42.6274 0 48 5.37258 48 12V36C48 42.6274 42.6274 48 36 48H12C5.37258 48 0 42.6274 0 36V12C0 5.37258 5.37258 0 12 0H36Z" fill="url(#paint0_linear_1907_8593)"/>
<path d="M36 0C42.6274 0 48 5.37258 48 12V36C48 42.6274 42.6274 48 36 48H12C5.37258 48 0 42.6274 0 36V12C0 5.37258 5.37258 0 12 0H36Z" stroke="#E5E7EB"/>
<path d="M33 38H15V10H33V38Z" stroke="#E5E7EB"/>
<g clip-path="url(#clip0_1907_8593)">
<path d="M20.5038 27.7818L19.4175 26.6954C19.1186 26.3966 19.0132 25.9642 19.1468 25.5634C19.2522 25.2505 19.3929 24.8427 19.5616 24.3751H15.8421C15.5397 24.3751 15.2585 24.2134 15.1073 23.9497C14.9561 23.6861 14.9597 23.3626 15.1143 23.1025L16.96 19.9911C17.4171 19.2212 18.2432 18.7501 19.1362 18.7501H22.0296C22.114 18.6095 22.1983 18.4794 22.2827 18.3529C25.162 14.106 29.4511 13.9654 32.0104 14.4364C32.4182 14.5103 32.7347 14.8302 32.812 15.238C33.2831 17.8009 33.139 22.0864 28.8956 24.9657C28.7725 25.0501 28.639 25.1345 28.4983 25.2189V28.1122C28.4983 29.0052 28.0272 29.8349 27.2573 30.2884L24.146 32.1341C23.8858 32.2888 23.5624 32.2923 23.2987 32.1411C23.035 31.99 22.8733 31.7122 22.8733 31.4064V27.6376C22.3776 27.8099 21.9452 27.9505 21.6182 28.056C21.2245 28.1825 20.7956 28.0736 20.5003 27.7818H20.5038ZM28.4983 20.1564C28.8713 20.1564 29.229 20.0082 29.4927 19.7445C29.7564 19.4808 29.9046 19.1231 29.9046 18.7501C29.9046 18.3772 29.7564 18.0195 29.4927 17.7557C29.229 17.492 28.8713 17.3439 28.4983 17.3439C28.1254 17.3439 27.7677 17.492 27.504 17.7557C27.2402 18.0195 27.0921 18.3772 27.0921 18.7501C27.0921 19.1231 27.2402 19.4808 27.504 19.7445C27.7677 20.0082 28.1254 20.1564 28.4983 20.1564Z" fill="white"/>
</g>
<defs>
<linearGradient id="paint0_linear_1907_8593" x1="0" y1="24" x2="48" y2="24" gradientUnits="userSpaceOnUse">
<stop stop-color="#A855F7"/>
<stop offset="1" stop-color="#2563EB"/>
</linearGradient>
<clipPath id="clip0_1907_8593">
<path d="M15 14.25H33V32.25H15V14.25Z" fill="white"/>
</clipPath>
</defs>
</svg>
