<svg width="60" height="63" viewBox="0 0 60 63" fill="none" xmlns="http://www.w3.org/2000/svg">
<path d="M46.9854 0.538086H59.0215L46.8193 37.9385H55.0215C57.2306 37.9385 59.0215 39.7293 59.0215 41.9385V58.7578C59.0215 60.967 57.2306 62.7578 55.0215 62.7578H38.2021C35.993 62.7578 34.2021 60.9669 34.2021 58.7578V37.9385L46.9854 0.538086ZM13.6162 0.538086H25.7354L13.4502 37.9385H21.7354C23.9445 37.9385 25.7354 39.7293 25.7354 41.9385V58.7578C25.7354 60.967 23.9445 62.7578 21.7354 62.7578H4.91601C2.70688 62.7578 0.916016 60.9669 0.916016 58.7578V37.9385L13.6162 0.538086Z" fill="url(#paint0_linear_341_962)"/>
<defs>
<linearGradient id="paint0_linear_341_962" x1="29.9688" y1="0.538086" x2="29.9688" y2="90.7578" gradientUnits="userSpaceOnUse">
<stop stop-color="#505DFD"/>
<stop offset="1" stop-color="#4F1FD4"/>
</linearGradient>
</defs>
</svg>
