<svg width="48" height="48" viewBox="0 0 48 48" fill="none" xmlns="http://www.w3.org/2000/svg">
<path d="M36 0C42.6274 0 48 5.37258 48 12V36C48 42.6274 42.6274 48 36 48H12C5.37258 48 0 42.6274 0 36V12C0 5.37258 5.37258 0 12 0H36Z" fill="url(#paint0_linear_1907_8530)"/>
<path d="M36 0C42.6274 0 48 5.37258 48 12V36C48 42.6274 42.6274 48 36 48H12C5.37258 48 0 42.6274 0 36V12C0 5.37258 5.37258 0 12 0H36Z" stroke="#E5E7EB"/>
<g clip-path="url(#clip0_1907_8530)">
<path d="M33 32.25H15V14.25H33V32.25Z" stroke="#E5E7EB"/>
<path d="M17.25 16.5C17.25 15.8777 16.7473 15.375 16.125 15.375C15.5027 15.375 15 15.8777 15 16.5V28.3125C15 29.8664 16.2586 31.125 17.8125 31.125H31.875C32.4973 31.125 33 30.6223 33 30C33 29.3777 32.4973 28.875 31.875 28.875H17.8125C17.5031 28.875 17.25 28.6219 17.25 28.3125V16.5ZM31.5445 19.5445C31.984 19.1051 31.984 18.3914 31.5445 17.952C31.1051 17.5125 30.3914 17.5125 29.952 17.952L26.25 21.6574L24.232 19.6395C23.7926 19.2 23.0789 19.2 22.6395 19.6395L18.702 23.577C18.2625 24.0164 18.2625 24.7301 18.702 25.1695C19.1414 25.609 19.8551 25.609 20.2945 25.1695L23.4375 22.0301L25.4555 24.048C25.8949 24.4875 26.6086 24.4875 27.048 24.048L31.548 19.548L31.5445 19.5445Z" fill="white"/>
</g>
<defs>
<linearGradient id="paint0_linear_1907_8530" x1="0" y1="24" x2="48" y2="24" gradientUnits="userSpaceOnUse">
<stop stop-color="#A855F7"/>
<stop offset="1" stop-color="#2563EB"/>
</linearGradient>
<clipPath id="clip0_1907_8530">
<rect width="18" height="18" fill="white" transform="translate(15 14.25)"/>
</clipPath>
</defs>
</svg>
